<svg xmlns="http://www.w3.org/2000/svg" xmlns:xlink="http://www.w3.org/1999/xlink" width="1030" height="604.851" viewBox="0 0 1030 604.851">
  <defs>
    <clipPath id="clip-path">
      <rect id="Rectángulo_67201" data-name="Rectángulo 67201" width="244.562" height="237.029" fill="none"/>
    </clipPath>
    <clipPath id="clip-path-2">
      <path id="Trazado_210001" data-name="Trazado 210001" d="M11.929,55.945c0,25.66,21.462,46.46,47.937,46.46s47.937-20.8,47.937-46.46S86.341,9.485,59.866,9.485s-47.937,20.8-47.937,46.46" transform="translate(-11.929 -9.485)" fill="#fff"/>
    </clipPath>
  </defs>
  <g id="Grupo_873776" data-name="Grupo 873776" transform="translate(-285 -1653.512)">
    <path id="Trazado_210449" data-name="Trazado 210449" d="M0,0V34.229" transform="translate(874.37 1750.054)" fill="none" stroke="#002d52" stroke-width="2"/>
    <path id="Trazado_209982" data-name="Trazado 209982" d="M609.089,124.768l15.433,25.9,15.434-25.9Z" transform="translate(249.847 1655.138)" fill="#002d52"/>
    <path id="Trazado_210451" data-name="Trazado 210451" d="M0,0V34.229" transform="translate(874.37 1900.727)" fill="none" stroke="#002d52" stroke-width="2"/>
    <path id="Trazado_209983" data-name="Trazado 209983" d="M609.089,275.441l15.433,25.9,15.434-25.9Z" transform="translate(249.847 1655.138)" fill="#002d52"/>
    <path id="Trazado_209984" data-name="Trazado 209984" d="M609.089,425.308l15.433,25.9,15.434-25.9Z" transform="translate(249.847 1655.138)" fill="#002d52"/>
    <path id="Trazado_209985" data-name="Trazado 209985" d="M136.887,183.61V81.728c0-15.5,12.179-28.074,27.2-28.074H429" transform="translate(270.393 1655.138)" fill="none" stroke="#002d52" stroke-miterlimit="10" stroke-width="2"/>
    <path id="Trazado_209986" data-name="Trazado 209986" d="M454.457,68.613l26.727-14.958L454.457,38.7Z" transform="translate(244.932 1655.138)" fill="#002d52"/>
    <path id="Trazado_209987" data-name="Trazado 209987" d="M642.954,509.09v63.257c0,16.5-13.8,29.878-30.829,29.878H166.509c-16.359,0-29.621-12.854-29.621-28.71V432.283" transform="translate(270.393 1655.138)" fill="none" stroke="#002d52" stroke-miterlimit="10" stroke-width="2"/>
    <path id="Trazado_209988" data-name="Trazado 209988" d="M152.8,436.66l-15.433-25.9-15.434,25.9Z" transform="translate(269.917 1655.138)" fill="#002d52"/>
    <g id="Grupo_873599" data-name="Grupo 873599" transform="translate(285 1831.069)">
      <g id="Grupo_873599-2" data-name="Grupo 873599" clip-path="url(#clip-path)">
        <path id="Trazado_209998" data-name="Trazado 209998" d="M0,118.515C0,53.061,54.747,0,122.281,0s122.28,53.061,122.28,118.515-54.746,118.514-122.28,118.514S0,183.969,0,118.515" fill="#5c28be"/>
        <path id="Trazado_209999" data-name="Trazado 209999" d="M12.834,118.515c0-58.366,48.819-105.681,109.04-105.681s109.04,47.315,109.04,105.681S182.094,224.2,121.874,224.2,12.834,176.881,12.834,118.515" transform="translate(0.408)" fill="#fff"/>
      </g>
    </g>
    <path id="Trazado_210453" data-name="Trazado 210453" d="M13.213,12.836H11.345V17H9V5.625h4.227a4.778,4.778,0,0,1,3.109.9,3.1,3.1,0,0,1,1.094,2.539,3.5,3.5,0,0,1-.5,1.941A3.437,3.437,0,0,1,15.4,12.242l2.461,4.648V17H15.345Zm-1.867-1.9h1.891a1.936,1.936,0,0,0,1.367-.449,1.606,1.606,0,0,0,.484-1.238,1.719,1.719,0,0,0-.457-1.266,1.9,1.9,0,0,0-1.4-.461H11.345Zm11.609,6.219a4.15,4.15,0,0,1-3.027-1.141,4.054,4.054,0,0,1-1.168-3.039v-.219a5.106,5.106,0,0,1,.492-2.277,3.612,3.612,0,0,1,1.395-1.547A3.914,3.914,0,0,1,22.7,8.391a3.508,3.508,0,0,1,2.73,1.094,4.444,4.444,0,0,1,1,3.1v.922H21.049a2.1,2.1,0,0,0,.66,1.328,2,2,0,0,0,1.395.5,2.437,2.437,0,0,0,2.039-.945l1.109,1.242a3.389,3.389,0,0,1-1.375,1.121A4.511,4.511,0,0,1,22.955,17.156ZM22.7,10.211a1.411,1.411,0,0,0-1.09.455,2.357,2.357,0,0,0-.535,1.3h3.141v-.181a1.681,1.681,0,0,0-.406-1.165A1.456,1.456,0,0,0,22.7,10.211Zm8.078,4.031,1.57-5.7H34.7L31.853,17H29.7L26.845,8.547H29.2ZM38.08,17H35.814V8.547H38.08Zm-2.4-10.641a1.112,1.112,0,0,1,.34-.836,1.465,1.465,0,0,1,1.848,0,1.105,1.105,0,0,1,.344.836,1.108,1.108,0,0,1-.348.844,1.448,1.448,0,0,1-1.836,0A1.108,1.108,0,0,1,35.681,6.359Zm8.836,8.3a.727.727,0,0,0-.41-.652,4.659,4.659,0,0,0-1.316-.426q-3.016-.633-3.016-2.562a2.323,2.323,0,0,1,.934-1.879,3.766,3.766,0,0,1,2.441-.754,4.053,4.053,0,0,1,2.574.758,2.388,2.388,0,0,1,.965,1.969H44.431a1.092,1.092,0,0,0-.312-.8A1.322,1.322,0,0,0,43.142,10a1.351,1.351,0,0,0-.883.258.814.814,0,0,0-.312.656.7.7,0,0,0,.355.605,3.657,3.657,0,0,0,1.2.4,9.8,9.8,0,0,1,1.422.379,2.336,2.336,0,0,1,1.789,2.273,2.2,2.2,0,0,1-.992,1.871,4.28,4.28,0,0,1-2.562.715,4.47,4.47,0,0,1-1.887-.379,3.166,3.166,0,0,1-1.293-1.039,2.414,2.414,0,0,1-.469-1.426H41.65a1.179,1.179,0,0,0,.445.922,1.766,1.766,0,0,0,1.109.32,1.635,1.635,0,0,0,.98-.246A.766.766,0,0,0,44.517,14.664ZM50.549,17H48.283V8.547h2.266ZM48.15,6.359a1.112,1.112,0,0,1,.34-.836,1.465,1.465,0,0,1,1.848,0,1.105,1.105,0,0,1,.344.836,1.108,1.108,0,0,1-.348.844,1.448,1.448,0,0,1-1.836,0A1.108,1.108,0,0,1,48.15,6.359ZM52.056,12.7a5.013,5.013,0,0,1,.484-2.242A3.546,3.546,0,0,1,53.935,8.93a4.069,4.069,0,0,1,2.113-.539,3.849,3.849,0,0,1,2.793,1.047,4.2,4.2,0,0,1,1.207,2.844l.016.578a4.418,4.418,0,0,1-1.086,3.121,4.209,4.209,0,0,1-5.832,0,4.5,4.5,0,0,1-1.09-3.187Zm2.258.16a3.16,3.16,0,0,0,.453,1.843,1.628,1.628,0,0,0,2.578.008,3.457,3.457,0,0,0,.461-2.015,3.128,3.128,0,0,0-.461-1.831,1.5,1.5,0,0,0-1.3-.649,1.474,1.474,0,0,0-1.281.646A3.516,3.516,0,0,0,54.314,12.856ZM56.494,5h2.461L56.791,7.422H54.955Zm7.039,3.547.07.977a2.951,2.951,0,0,1,2.43-1.133,2.453,2.453,0,0,1,2,.789,3.682,3.682,0,0,1,.672,2.359V17H66.447V11.594a1.465,1.465,0,0,0-.312-1.043,1.4,1.4,0,0,0-1.039-.324,1.553,1.553,0,0,0-1.43.813V17H61.408V8.547ZM77.556,13.8l1.563-5.258h2.422l-3.4,9.766-.187.445a2.577,2.577,0,0,1-2.5,1.656,3.552,3.552,0,0,1-1-.148V18.555l.344.008a1.857,1.857,0,0,0,.957-.2,1.283,1.283,0,0,0,.5-.648l.266-.7L73.556,8.547h2.43ZM88.533,8.547l.07.945a2.971,2.971,0,0,1,2.43-1.1A2.255,2.255,0,0,1,93.275,9.68a2.9,2.9,0,0,1,2.539-1.289,2.521,2.521,0,0,1,2.047.8,3.681,3.681,0,0,1,.672,2.41V17H96.267V11.609a1.61,1.61,0,0,0-.281-1.051,1.246,1.246,0,0,0-.992-.332,1.409,1.409,0,0,0-1.406.969L93.6,17H91.338V11.617a1.59,1.59,0,0,0-.289-1.062,1.259,1.259,0,0,0-.984-.328,1.463,1.463,0,0,0-1.391.8V17H86.416V8.547Zm15.625,8.609a4.15,4.15,0,0,1-3.027-1.141,4.054,4.054,0,0,1-1.168-3.039v-.219a5.106,5.106,0,0,1,.492-2.277,3.612,3.612,0,0,1,1.395-1.547,3.914,3.914,0,0,1,2.059-.543,3.508,3.508,0,0,1,2.73,1.094,4.444,4.444,0,0,1,1,3.1v.922h-5.383a2.1,2.1,0,0,0,.66,1.328,2,2,0,0,0,1.395.5,2.437,2.437,0,0,0,2.039-.945l1.109,1.242a3.389,3.389,0,0,1-1.375,1.121A4.511,4.511,0,0,1,104.158,17.156Zm-.258-6.945a1.411,1.411,0,0,0-1.09.455,2.357,2.357,0,0,0-.535,1.3h3.141v-.181a1.681,1.681,0,0,0-.406-1.165A1.456,1.456,0,0,0,103.9,10.211Zm7.406-1.664v8.914a3.024,3.024,0,0,1-.742,2.176,2.821,2.821,0,0,1-2.141.777,4.591,4.591,0,0,1-1.117-.133V18.492a4.238,4.238,0,0,0,.711.07q1.023,0,1.023-1.086V8.547Zm-2.445-2.187a1.112,1.112,0,0,1,.34-.836,1.47,1.47,0,0,1,1.852,0,1.112,1.112,0,0,1,.34.836,1.108,1.108,0,0,1-.348.844,1.448,1.448,0,0,1-1.836,0A1.108,1.108,0,0,1,108.861,6.359ZM112.72,12.7a5.013,5.013,0,0,1,.484-2.242A3.546,3.546,0,0,1,114.6,8.93a4.069,4.069,0,0,1,2.113-.539,3.849,3.849,0,0,1,2.793,1.047,4.2,4.2,0,0,1,1.207,2.844l.016.578a4.418,4.418,0,0,1-1.086,3.121,4.209,4.209,0,0,1-5.832,0,4.5,4.5,0,0,1-1.09-3.187Zm2.258.16a3.16,3.16,0,0,0,.453,1.843,1.628,1.628,0,0,0,2.578.008,3.457,3.457,0,0,0,.461-2.015,3.128,3.128,0,0,0-.461-1.831,1.5,1.5,0,0,0-1.3-.649,1.474,1.474,0,0,0-1.281.646A3.516,3.516,0,0,0,114.978,12.856Zm11.891-2.192a6.134,6.134,0,0,0-.812-.062,1.654,1.654,0,0,0-1.68.867V17h-2.258V8.547h2.133l.063,1.008A2.092,2.092,0,0,1,126.2,8.391a2.366,2.366,0,0,1,.7.1ZM132.619,17a2.507,2.507,0,0,1-.227-.758,2.732,2.732,0,0,1-2.133.914,3,3,0,0,1-2.059-.719,2.312,2.312,0,0,1-.816-1.812,2.389,2.389,0,0,1,1-2.062,4.915,4.915,0,0,1,2.879-.727H132.3v-.484a1.393,1.393,0,0,0-.3-.937,1.183,1.183,0,0,0-.949-.352,1.345,1.345,0,0,0-.895.273.929.929,0,0,0-.324.75h-2.258a2.268,2.268,0,0,1,.453-1.359,3,3,0,0,1,1.281-.98,4.669,4.669,0,0,1,1.859-.355,3.689,3.689,0,0,1,2.48.785,2.747,2.747,0,0,1,.918,2.207v3.664a4.041,4.041,0,0,0,.336,1.82V17Zm-1.867-1.57a1.945,1.945,0,0,0,.922-.223,1.462,1.462,0,0,0,.625-.6V13.156h-.844q-1.7,0-1.8,1.172l-.008.133a.9.9,0,0,0,.3.7A1.153,1.153,0,0,0,130.752,15.43ZM24.6,37.711a5.094,5.094,0,0,1,.887-3.148,2.877,2.877,0,0,1,2.426-1.172,2.589,2.589,0,0,1,2.039.922V30H32.22V42H30.181l-.109-.9A2.657,2.657,0,0,1,27.9,42.156a2.869,2.869,0,0,1-2.395-1.176A5.258,5.258,0,0,1,24.6,37.711Zm2.258.168a3.337,3.337,0,0,0,.414,1.823,1.349,1.349,0,0,0,1.2.634,1.511,1.511,0,0,0,1.477-.884V36.111a1.489,1.489,0,0,0-1.461-.884Q26.861,35.227,26.861,37.879Zm11,4.277a4.15,4.15,0,0,1-3.027-1.141,4.054,4.054,0,0,1-1.168-3.039v-.219a5.106,5.106,0,0,1,.492-2.277,3.612,3.612,0,0,1,1.395-1.547,3.914,3.914,0,0,1,2.059-.543,3.508,3.508,0,0,1,2.73,1.094,4.444,4.444,0,0,1,1,3.1v.922H35.955a2.1,2.1,0,0,0,.66,1.328,2,2,0,0,0,1.395.5,2.437,2.437,0,0,0,2.039-.945l1.109,1.242a3.389,3.389,0,0,1-1.375,1.121A4.511,4.511,0,0,1,37.861,42.156ZM37.6,35.211a1.411,1.411,0,0,0-1.09.455,2.357,2.357,0,0,0-.535,1.3h3.141v-.181a1.681,1.681,0,0,0-.406-1.165A1.456,1.456,0,0,0,37.6,35.211ZM45,42H42.736V30H45Zm13.453-4.148a5.07,5.07,0,0,1-.887,3.129,2.843,2.843,0,0,1-2.395,1.176,2.633,2.633,0,0,1-2.07-.891V45.25H50.845v-11.7h2.094l.078.828a2.654,2.654,0,0,1,2.141-.984,2.862,2.862,0,0,1,2.43,1.156,5.207,5.207,0,0,1,.867,3.188ZM56.2,37.688a3.327,3.327,0,0,0-.418-1.82,1.361,1.361,0,0,0-1.215-.641,1.478,1.478,0,0,0-1.461.813V39.5a1.5,1.5,0,0,0,1.477.836Q56.2,40.336,56.2,37.688ZM64.6,35.664a6.134,6.134,0,0,0-.813-.062,1.654,1.654,0,0,0-1.68.867V42H59.853V33.547h2.133l.063,1.008a2.092,2.092,0,0,1,1.883-1.164,2.366,2.366,0,0,1,.7.1Zm.453,2.031a5.013,5.013,0,0,1,.484-2.242,3.546,3.546,0,0,1,1.395-1.523,4.069,4.069,0,0,1,2.113-.539,3.849,3.849,0,0,1,2.793,1.047,4.2,4.2,0,0,1,1.207,2.844l.016.578a4.418,4.418,0,0,1-1.086,3.121,4.209,4.209,0,0,1-5.832,0,4.5,4.5,0,0,1-1.09-3.187Zm2.258.16a3.16,3.16,0,0,0,.453,1.843,1.628,1.628,0,0,0,2.578.008,3.457,3.457,0,0,0,.461-2.015,3.128,3.128,0,0,0-.461-1.831,1.5,1.5,0,0,0-1.3-.649,1.474,1.474,0,0,0-1.281.646A3.516,3.516,0,0,0,67.314,37.856Zm6.813-.145a4.954,4.954,0,0,1,.926-3.133,3,3,0,0,1,2.5-1.187,2.631,2.631,0,0,1,2.164.953l.094-.8h2.047v8.172a3.613,3.613,0,0,1-.5,1.93,3.236,3.236,0,0,1-1.418,1.25,4.985,4.985,0,0,1-2.141.43,4.635,4.635,0,0,1-1.812-.371A3.217,3.217,0,0,1,74.642,44l1-1.375a2.645,2.645,0,0,0,2.047.945,1.936,1.936,0,0,0,1.4-.48,1.8,1.8,0,0,0,.5-1.363v-.453a2.612,2.612,0,0,1-2.055.883,2.992,2.992,0,0,1-2.465-1.191,4.953,4.953,0,0,1-.941-3.16Zm2.258.168a3.085,3.085,0,0,0,.461,1.8,1.466,1.466,0,0,0,1.266.653,1.568,1.568,0,0,0,1.477-.775V36a1.564,1.564,0,0,0-1.461-.775,1.476,1.476,0,0,0-1.277.665A3.477,3.477,0,0,0,76.384,37.879Zm11.953-2.215a6.134,6.134,0,0,0-.812-.062,1.654,1.654,0,0,0-1.68.867V42H83.588V33.547H85.72l.063,1.008a2.092,2.092,0,0,1,1.883-1.164,2.366,2.366,0,0,1,.7.1ZM94.088,42a2.507,2.507,0,0,1-.227-.758,2.732,2.732,0,0,1-2.133.914,3,3,0,0,1-2.059-.719,2.312,2.312,0,0,1-.816-1.812,2.389,2.389,0,0,1,1-2.062,4.915,4.915,0,0,1,2.879-.727h1.039v-.484a1.393,1.393,0,0,0-.3-.937,1.183,1.183,0,0,0-.949-.352,1.345,1.345,0,0,0-.895.273.929.929,0,0,0-.324.75H89.041a2.268,2.268,0,0,1,.453-1.359,3,3,0,0,1,1.281-.98,4.669,4.669,0,0,1,1.859-.355,3.689,3.689,0,0,1,2.48.785,2.747,2.747,0,0,1,.918,2.207v3.664a4.041,4.041,0,0,0,.336,1.82V42ZM92.22,40.43a1.945,1.945,0,0,0,.922-.223,1.462,1.462,0,0,0,.625-.6V38.156h-.844q-1.7,0-1.8,1.172l-.008.133a.9.9,0,0,0,.3.7A1.153,1.153,0,0,0,92.22,40.43Zm7.664-6.883.07.945a2.971,2.971,0,0,1,2.43-1.1,2.255,2.255,0,0,1,2.242,1.289,2.9,2.9,0,0,1,2.539-1.289,2.521,2.521,0,0,1,2.047.8,3.681,3.681,0,0,1,.672,2.41V42h-2.266V36.609a1.61,1.61,0,0,0-.281-1.051,1.246,1.246,0,0,0-.992-.332,1.409,1.409,0,0,0-1.406.969l.008,5.8h-2.258V36.617a1.59,1.59,0,0,0-.289-1.062,1.259,1.259,0,0,0-.984-.328,1.463,1.463,0,0,0-1.391.8V42H97.767V33.547ZM116.517,42a2.507,2.507,0,0,1-.227-.758,2.732,2.732,0,0,1-2.133.914,3,3,0,0,1-2.059-.719,2.312,2.312,0,0,1-.816-1.812,2.389,2.389,0,0,1,1-2.062,4.915,4.915,0,0,1,2.879-.727H116.2v-.484a1.393,1.393,0,0,0-.3-.937,1.183,1.183,0,0,0-.949-.352,1.345,1.345,0,0,0-.895.273.929.929,0,0,0-.324.75H111.47a2.268,2.268,0,0,1,.453-1.359,3,3,0,0,1,1.281-.98,4.669,4.669,0,0,1,1.859-.355,3.689,3.689,0,0,1,2.48.785,2.747,2.747,0,0,1,.918,2.207v3.664a4.041,4.041,0,0,0,.336,1.82V42Zm-1.867-1.57a1.945,1.945,0,0,0,.922-.223,1.462,1.462,0,0,0,.625-.6V38.156h-.844q-1.7,0-1.8,1.172l-.008.133a.9.9,0,0,0,.3.7A1.153,1.153,0,0,0,114.65,40.43Z" transform="translate(331.583 1981.9)" fill="#12263f"/>
    <g id="investigacion-de-mercado" transform="translate(358 1875.268)">
      <g id="Grupo_873232" data-name="Grupo 873232" transform="translate(0 61.596)">
        <path id="Trazado_200091" data-name="Trazado 200091" d="M10,322H26.3v31.588H10Z" transform="translate(-10 -322)" fill="#98ca69"/>
      </g>
      <g id="Grupo_873233" data-name="Grupo 873233" transform="translate(20.37 37.905)">
        <path id="Trazado_200092" data-name="Trazado 200092" d="M110,202h16.3v55.278H110Z" transform="translate(-110 -202)" fill="#ffe352"/>
      </g>
      <g id="Grupo_873234" data-name="Grupo 873234" transform="translate(40.739 45.802)">
        <path id="Trazado_200093" data-name="Trazado 200093" d="M210,242h16.3v47.381H210Z" transform="translate(-210 -242)" fill="#ffb0aa"/>
      </g>
      <g id="Grupo_873235" data-name="Grupo 873235" transform="translate(61.109 77.39)">
        <path id="Trazado_200094" data-name="Trazado 200094" d="M310,402h16.3v15.794H310Z" transform="translate(-310 -402)" fill="#80d6fb"/>
      </g>
      <g id="Grupo_873236" data-name="Grupo 873236" transform="translate(0 93.183)">
        <path id="Trazado_200095" data-name="Trazado 200095" d="M10,482H110.219v3.948H10Z" transform="translate(-10 -482)" fill="#6e83b7"/>
      </g>
      <g id="Grupo_873237" data-name="Grupo 873237" transform="translate(16.907)">
        <path id="Trazado_200096" data-name="Trazado 200096" d="M93,10V26.386h16.907A16.652,16.652,0,0,0,93,10Z" transform="translate(-93 -10)" fill="#ffb0aa"/>
      </g>
      <g id="Grupo_873238" data-name="Grupo 873238" transform="translate(16.907 16.386)">
        <path id="Trazado_200097" data-name="Trazado 200097" d="M93,93l11.955,11.587A16.086,16.086,0,0,0,109.907,93Z" transform="translate(-93 -93)" fill="#ffe352"/>
      </g>
      <g id="Grupo_873239" data-name="Grupo 873239" transform="translate(38.702)">
        <path id="Trazado_200098" data-name="Trazado 200098" d="M200,10h6.926v6.712H200Z" transform="translate(-200 -10)" fill="#80d6fb"/>
      </g>
      <g id="Grupo_873241" data-name="Grupo 873241" transform="translate(49.702 2.764)">
        <g id="Grupo_873240" data-name="Grupo 873240">
          <path id="Trazado_200099" data-name="Trazado 200099" d="M254,24h28.518v3.948H254Z" transform="translate(-254 -24)" fill="#6e83b7"/>
        </g>
      </g>
      <g id="Grupo_873243" data-name="Grupo 873243" transform="translate(49.702 11.451)">
        <g id="Grupo_873242" data-name="Grupo 873242">
          <path id="Trazado_200100" data-name="Trazado 200100" d="M254,68h28.518v3.948H254Z" transform="translate(-254 -68)" fill="#6e83b7"/>
        </g>
      </g>
      <g id="Grupo_873245" data-name="Grupo 873245" transform="translate(49.702 20.137)">
        <g id="Grupo_873244" data-name="Grupo 873244">
          <path id="Trazado_200101" data-name="Trazado 200101" d="M254,112h28.518v3.948H254Z" transform="translate(-254 -112)" fill="#6e83b7"/>
        </g>
      </g>
      <g id="Grupo_873247" data-name="Grupo 873247" transform="translate(49.702 28.824)">
        <g id="Grupo_873246" data-name="Grupo 873246">
          <path id="Trazado_200102" data-name="Trazado 200102" d="M254,156h28.518v3.948H254Z" transform="translate(-254 -156)" fill="#6e83b7"/>
        </g>
      </g>
      <g id="Grupo_873248" data-name="Grupo 873248" transform="translate(38.702 26.06)">
        <path id="Trazado_200103" data-name="Trazado 200103" d="M200,142h6.926v6.712H200Z" transform="translate(-200 -142)" fill="#98ca69"/>
      </g>
      <g id="Grupo_873249" data-name="Grupo 873249" transform="translate(38.702 17.373)">
        <path id="Trazado_200104" data-name="Trazado 200104" d="M200,98h6.926v6.712H200Z" transform="translate(-200 -98)" fill="#ffe352"/>
      </g>
      <g id="Grupo_873250" data-name="Grupo 873250" transform="translate(38.702 8.687)">
        <path id="Trazado_200105" data-name="Trazado 200105" d="M200,54h6.926v6.712H200Z" transform="translate(-200 -54)" fill="#ffb0aa"/>
      </g>
      <g id="Grupo_873251" data-name="Grupo 873251" transform="translate(4.952 16.386)">
        <path id="Trazado_200106" data-name="Trazado 200106" d="M34.31,104.587a17.289,17.289,0,0,0,23.91,0L46.265,93Z" transform="translate(-34.31 -93)" fill="#98ca69"/>
      </g>
      <g id="Grupo_873252" data-name="Grupo 873252" transform="translate(0)">
        <path id="Trazado_200107" data-name="Trazado 200107" d="M14.952,37.973,26.907,26.386V10A16.652,16.652,0,0,0,10,26.386,16.086,16.086,0,0,0,14.952,37.973Z" transform="translate(-10 -10)" fill="#80d6fb"/>
      </g>
      <g id="Grupo_873258" data-name="Grupo 873258" transform="translate(46.43 33.132)">
        <g id="Grupo_873253" data-name="Grupo 873253" transform="translate(29.33 27.626)">
          <path id="Trazado_200108" data-name="Trazado 200108" d="M0,0,5.673.089l.053,3.4L.053,3.4Z" transform="translate(0 3.998) rotate(-45)" fill="#466089"/>
        </g>
        <g id="Grupo_873254" data-name="Grupo 873254" transform="translate(30.958 29.08)">
          <path id="Trazado_200109" data-name="Trazado 200109" d="M0,0,7.942.124l.373,23.825L.373,23.825Z" transform="translate(0 5.704) rotate(-45)" fill="#6e83b7"/>
        </g>
        <g id="Grupo_873257" data-name="Grupo 873257" transform="translate(0)">
          <g id="Grupo_873255" data-name="Grupo 873255">
            <ellipse id="Elipse_4712" data-name="Elipse 4712" cx="18.572" cy="17.5" rx="18.572" ry="17.5" fill="#6e83b7"/>
          </g>
          <g id="Grupo_873256" data-name="Grupo 873256" transform="translate(4.127 4)">
            <ellipse id="Elipse_4713" data-name="Elipse 4713" cx="14.445" cy="13.5" rx="14.445" ry="13.5" transform="translate(0)" fill="#80d6fb"/>
          </g>
        </g>
      </g>
    </g>
    <path id="Trazado_210000" data-name="Trazado 210000" d="M256.669,110.561H49.9C22.34,110.561,0,85.811,0,55.28S22.34,0,49.9,0H256.669c27.558,0,49.9,24.75,49.9,55.28s-22.34,55.281-49.9,55.281" transform="translate(726.117 1653.512)" fill="#ceb7f9"/>
    <g id="Grupo_873602" data-name="Grupo 873602" transform="translate(737.562 1662.331)" clip-path="url(#clip-path-2)">
      <rect id="Rectángulo_67203" data-name="Rectángulo 67203" width="95.874" height="92.921" transform="translate(0 0)" fill="#fff"/>
    </g>
    <path id="Trazado_210002" data-name="Trazado 210002" d="M60.35,92.148c20.152,0,36.489-15.834,36.489-35.365S80.5,21.417,60.35,21.417,23.861,37.251,23.861,56.782,40.2,92.148,60.35,92.148" transform="translate(725.148 1652.01)" fill="#ceb7f9"/>
    <g id="Grupo_873622" data-name="Grupo 873622" transform="translate(726.117 1805.219)">
      <path id="Trazado_210003" data-name="Trazado 210003" d="M256.669,110.561H49.9C22.34,110.561,0,85.811,0,55.28S22.34,0,49.9,0H256.669c27.558,0,49.9,24.75,49.9,55.28s-22.34,55.281-49.9,55.281" transform="translate(0)" fill="#ceb7f9"/>
      <g id="Grupo_873603" data-name="Grupo 873603" transform="translate(11.445 8.82)" clip-path="url(#clip-path-2)">
        <rect id="Rectángulo_67204" data-name="Rectángulo 67204" width="95.874" height="92.921" transform="translate(0 0)" fill="#fff"/>
      </g>
      <path id="Trazado_210005" data-name="Trazado 210005" d="M60.35,92.148c20.152,0,36.489-15.834,36.489-35.365S80.5,21.417,60.35,21.417,23.861,37.251,23.861,56.782,40.2,92.148,60.35,92.148" transform="translate(-0.969 -1.502)" fill="#ceb7f9"/>
    </g>
    <g id="Grupo_873640" data-name="Grupo 873640" transform="translate(1104.675 1917.377)">
      <path id="Trazado_210003-2" data-name="Trazado 210003" d="M176.092,69.735H34.233C15.327,69.735,0,54.125,0,34.867S15.327,0,34.233,0H176.092C195,0,210.325,15.611,210.325,34.867S195,69.735,176.092,69.735" transform="translate(0)" fill="#eae0fd"/>
    </g>
    <g id="Grupo_873641" data-name="Grupo 873641" transform="translate(1104.675 2036.415)">
      <path id="Trazado_210003-3" data-name="Trazado 210003" d="M176.092,69.735H34.233C15.327,69.735,0,54.125,0,34.867S15.327,0,34.233,0H176.092C195,0,210.325,15.611,210.325,34.867S195,69.735,176.092,69.735" transform="translate(0)" fill="#eae0fd"/>
    </g>
    <g id="Grupo_873624" data-name="Grupo 873624" transform="translate(726.117 2109.719)">
      <path id="Trazado_210003-4" data-name="Trazado 210003" d="M256.669,110.561H49.9C22.34,110.561,0,85.811,0,55.28S22.34,0,49.9,0H256.669c27.558,0,49.9,24.75,49.9,55.28s-22.34,55.281-49.9,55.281" transform="translate(0)" fill="#ceb7f9"/>
      <g id="Grupo_873603-2" data-name="Grupo 873603" transform="translate(11.445 8.82)" clip-path="url(#clip-path-2)">
        <rect id="Rectángulo_67204-2" data-name="Rectángulo 67204" width="95.874" height="92.921" transform="translate(0 0)" fill="#fff"/>
      </g>
      <path id="Trazado_210005-2" data-name="Trazado 210005" d="M60.35,92.148c20.152,0,36.489-15.834,36.489-35.365S80.5,21.417,60.35,21.417,23.861,37.251,23.861,56.782,40.2,92.148,60.35,92.148" transform="translate(-0.969 -1.502)" fill="#ceb7f9"/>
    </g>
    <path id="Trazado_210448" data-name="Trazado 210448" d="M16.61,12.07h-4.5v3.047h5.281V17H9.766V5.625h7.609v1.9H12.11v2.711h4.5ZM23.2,14.664a.727.727,0,0,0-.41-.652,4.659,4.659,0,0,0-1.316-.426q-3.016-.633-3.016-2.562a2.323,2.323,0,0,1,.934-1.879,3.766,3.766,0,0,1,2.441-.754,4.053,4.053,0,0,1,2.574.758,2.388,2.388,0,0,1,.965,1.969H23.11a1.092,1.092,0,0,0-.312-.8A1.322,1.322,0,0,0,21.821,10a1.351,1.351,0,0,0-.883.258.814.814,0,0,0-.312.656.7.7,0,0,0,.355.605,3.657,3.657,0,0,0,1.2.4A9.8,9.8,0,0,1,23.6,12.3a2.336,2.336,0,0,1,1.789,2.273,2.2,2.2,0,0,1-.992,1.871,4.28,4.28,0,0,1-2.562.715,4.47,4.47,0,0,1-1.887-.379,3.166,3.166,0,0,1-1.293-1.039,2.414,2.414,0,0,1-.469-1.426h2.141a1.179,1.179,0,0,0,.445.922,1.766,1.766,0,0,0,1.109.32,1.635,1.635,0,0,0,.98-.246A.766.766,0,0,0,23.2,14.664Zm6.352-8.2V8.547h1.445V10.2H29.548v4.219a1.007,1.007,0,0,0,.18.672.9.9,0,0,0,.688.2,3.6,3.6,0,0,0,.664-.055v1.711a4.648,4.648,0,0,1-1.367.2,2.156,2.156,0,0,1-2.422-2.4V10.2H26.055V8.547H27.29V6.469ZM37.149,17a2.507,2.507,0,0,1-.227-.758,2.732,2.732,0,0,1-2.133.914,3,3,0,0,1-2.059-.719,2.312,2.312,0,0,1-.816-1.812,2.389,2.389,0,0,1,1-2.062,4.915,4.915,0,0,1,2.879-.727h1.039v-.484a1.393,1.393,0,0,0-.3-.937,1.183,1.183,0,0,0-.949-.352,1.345,1.345,0,0,0-.895.273.929.929,0,0,0-.324.75H32.1a2.268,2.268,0,0,1,.453-1.359,3,3,0,0,1,1.281-.98A4.669,4.669,0,0,1,35.7,8.391a3.689,3.689,0,0,1,2.48.785,2.747,2.747,0,0,1,.918,2.207v3.664a4.041,4.041,0,0,0,.336,1.82V17Zm-1.867-1.57a1.945,1.945,0,0,0,.922-.223,1.462,1.462,0,0,0,.625-.6V13.156h-.844q-1.7,0-1.8,1.172l-.008.133a.9.9,0,0,0,.3.7A1.153,1.153,0,0,0,35.282,15.43Zm13.164-2.578a5.119,5.119,0,0,1-.867,3.168,2.872,2.872,0,0,1-2.422,1.137,2.639,2.639,0,0,1-2.2-1.055l-.1.9H40.829V5h2.258V9.3a2.571,2.571,0,0,1,2.055-.914,2.9,2.9,0,0,1,2.426,1.137,5.126,5.126,0,0,1,.879,3.2Zm-2.258-.164a3.363,3.363,0,0,0-.406-1.871,1.374,1.374,0,0,0-1.211-.59,1.489,1.489,0,0,0-1.484.883v3.336a1.509,1.509,0,0,0,1.5.891,1.394,1.394,0,0,0,1.438-1.078A5.562,5.562,0,0,0,46.188,12.688ZM52.219,17H49.954V5h2.266Zm5.75.156a4.15,4.15,0,0,1-3.027-1.141,4.054,4.054,0,0,1-1.168-3.039v-.219a5.106,5.106,0,0,1,.492-2.277,3.612,3.612,0,0,1,1.395-1.547,3.914,3.914,0,0,1,2.059-.543,3.508,3.508,0,0,1,2.73,1.094,4.444,4.444,0,0,1,1,3.1v.922H56.063a2.1,2.1,0,0,0,.66,1.328,2,2,0,0,0,1.395.5,2.437,2.437,0,0,0,2.039-.945l1.109,1.242a3.389,3.389,0,0,1-1.375,1.121A4.511,4.511,0,0,1,57.969,17.156Zm-.258-6.945a1.411,1.411,0,0,0-1.09.455,2.357,2.357,0,0,0-.535,1.3h3.141v-.181a1.681,1.681,0,0,0-.406-1.165A1.456,1.456,0,0,0,57.712,10.211Zm8.531,5.125a1.481,1.481,0,0,0,1.016-.344,1.2,1.2,0,0,0,.406-.914h2.117a2.9,2.9,0,0,1-.469,1.574,3.093,3.093,0,0,1-1.262,1.109,3.949,3.949,0,0,1-1.77.395A3.67,3.67,0,0,1,63.423,16a4.56,4.56,0,0,1-1.047-3.184v-.148a4.508,4.508,0,0,1,1.039-3.117,3.627,3.627,0,0,1,2.852-1.164,3.555,3.555,0,0,1,2.543.9,3.2,3.2,0,0,1,.973,2.4H67.665a1.551,1.551,0,0,0-.406-1.072,1.51,1.51,0,0,0-2.223.163,3.333,3.333,0,0,0-.4,1.866v.235a3.375,3.375,0,0,0,.4,1.878A1.377,1.377,0,0,0,66.243,15.336ZM73.454,17H71.188V8.547h2.266Zm-2.4-10.641a1.112,1.112,0,0,1,.34-.836,1.465,1.465,0,0,1,1.848,0,1.105,1.105,0,0,1,.344.836,1.108,1.108,0,0,1-.348.844,1.448,1.448,0,0,1-1.836,0A1.108,1.108,0,0,1,71.055,6.359ZM77.43,8.547l.07.945a2.971,2.971,0,0,1,2.43-1.1A2.255,2.255,0,0,1,82.173,9.68a2.9,2.9,0,0,1,2.539-1.289,2.521,2.521,0,0,1,2.047.8,3.681,3.681,0,0,1,.672,2.41V17H85.165V11.609a1.61,1.61,0,0,0-.281-1.051,1.246,1.246,0,0,0-.992-.332,1.409,1.409,0,0,0-1.406.969l.008,5.8H80.235V11.617a1.59,1.59,0,0,0-.289-1.062,1.259,1.259,0,0,0-.984-.328,1.463,1.463,0,0,0-1.391.8V17H75.313V8.547ZM91.548,17H89.282V8.547h2.266Zm-2.4-10.641a1.112,1.112,0,0,1,.34-.836,1.465,1.465,0,0,1,1.848,0,1.105,1.105,0,0,1,.344.836,1.108,1.108,0,0,1-.348.844,1.448,1.448,0,0,1-1.836,0A1.108,1.108,0,0,1,89.149,6.359Zm8.148,10.8a4.15,4.15,0,0,1-3.027-1.141A4.054,4.054,0,0,1,93.1,12.977v-.219a5.106,5.106,0,0,1,.492-2.277,3.612,3.612,0,0,1,1.395-1.547,3.914,3.914,0,0,1,2.059-.543,3.508,3.508,0,0,1,2.73,1.094,4.444,4.444,0,0,1,1,3.1v.922H95.391a2.1,2.1,0,0,0,.66,1.328,2,2,0,0,0,1.395.5,2.437,2.437,0,0,0,2.039-.945l1.109,1.242a3.389,3.389,0,0,1-1.375,1.121A4.511,4.511,0,0,1,97.3,17.156Zm-.258-6.945a1.411,1.411,0,0,0-1.09.455,2.357,2.357,0,0,0-.535,1.3h3.141v-.181a1.681,1.681,0,0,0-.406-1.165A1.456,1.456,0,0,0,97.04,10.211Zm7.094-1.664.07.977a2.951,2.951,0,0,1,2.43-1.133,2.453,2.453,0,0,1,2,.789,3.682,3.682,0,0,1,.672,2.359V17h-2.258V11.594a1.465,1.465,0,0,0-.312-1.043,1.4,1.4,0,0,0-1.039-.324,1.553,1.553,0,0,0-1.43.813V17h-2.258V8.547Zm9.586-2.078V8.547h1.445V10.2h-1.445v4.219a1.007,1.007,0,0,0,.18.672.9.9,0,0,0,.688.2,3.6,3.6,0,0,0,.664-.055v1.711a4.648,4.648,0,0,1-1.367.2,2.156,2.156,0,0,1-2.422-2.4V10.2h-1.234V8.547h1.234V6.469Zm2.117,6.227a5.013,5.013,0,0,1,.484-2.242,3.546,3.546,0,0,1,1.395-1.523,4.069,4.069,0,0,1,2.113-.539,3.849,3.849,0,0,1,2.793,1.047,4.2,4.2,0,0,1,1.207,2.844l.016.578a4.418,4.418,0,0,1-1.086,3.121,4.209,4.209,0,0,1-5.832,0,4.5,4.5,0,0,1-1.09-3.187Zm2.258.16a3.16,3.16,0,0,0,.453,1.843,1.628,1.628,0,0,0,2.578.008,3.457,3.457,0,0,0,.461-2.015,3.128,3.128,0,0,0-.461-1.831,1.5,1.5,0,0,0-1.3-.649,1.474,1.474,0,0,0-1.281.646A3.516,3.516,0,0,0,118.094,12.856Zm10.773-.145a5.094,5.094,0,0,1,.887-3.148,2.877,2.877,0,0,1,2.426-1.172,2.589,2.589,0,0,1,2.039.922V5h2.266V17h-2.039l-.109-.9a2.657,2.657,0,0,1-2.172,1.055,2.869,2.869,0,0,1-2.395-1.176A5.258,5.258,0,0,1,128.868,12.711Zm2.258.168a3.337,3.337,0,0,0,.414,1.823,1.349,1.349,0,0,0,1.2.634,1.511,1.511,0,0,0,1.477-.884V11.111a1.489,1.489,0,0,0-1.461-.884Q131.126,10.227,131.126,12.879Zm11,4.277a4.15,4.15,0,0,1-3.027-1.141,4.054,4.054,0,0,1-1.168-3.039v-.219a5.106,5.106,0,0,1,.492-2.277,3.612,3.612,0,0,1,1.395-1.547,3.914,3.914,0,0,1,2.059-.543,3.508,3.508,0,0,1,2.73,1.094,4.444,4.444,0,0,1,1,3.1v.922h-5.383a2.1,2.1,0,0,0,.66,1.328,2,2,0,0,0,1.395.5,2.437,2.437,0,0,0,2.039-.945l1.109,1.242a3.389,3.389,0,0,1-1.375,1.121A4.511,4.511,0,0,1,142.126,17.156Zm-.258-6.945a1.411,1.411,0,0,0-1.09.455,2.357,2.357,0,0,0-.535,1.3h3.141v-.181a1.681,1.681,0,0,0-.406-1.165A1.456,1.456,0,0,0,141.868,10.211ZM35.008,42H32.743V30h2.266Zm1.508-4.3A5.013,5.013,0,0,1,37,35.453,3.546,3.546,0,0,1,38.4,33.93a4.069,4.069,0,0,1,2.113-.539A3.849,3.849,0,0,1,43.3,34.438a4.2,4.2,0,0,1,1.207,2.844l.016.578a4.418,4.418,0,0,1-1.086,3.121,4.209,4.209,0,0,1-5.832,0,4.5,4.5,0,0,1-1.09-3.187Zm2.258.16a3.16,3.16,0,0,0,.453,1.843,1.628,1.628,0,0,0,2.578.008,3.457,3.457,0,0,0,.461-2.015,3.128,3.128,0,0,0-.461-1.831,1.5,1.5,0,0,0-1.3-.649,1.474,1.474,0,0,0-1.281.646A3.516,3.516,0,0,0,38.774,37.856Zm11.719,1.808a.727.727,0,0,0-.41-.652,4.659,4.659,0,0,0-1.316-.426q-3.016-.633-3.016-2.562a2.323,2.323,0,0,1,.934-1.879,3.766,3.766,0,0,1,2.441-.754,4.053,4.053,0,0,1,2.574.758,2.388,2.388,0,0,1,.965,1.969H50.407a1.092,1.092,0,0,0-.312-.8A1.322,1.322,0,0,0,49.118,35a1.351,1.351,0,0,0-.883.258.814.814,0,0,0-.312.656.7.7,0,0,0,.355.605,3.657,3.657,0,0,0,1.2.4A9.8,9.8,0,0,1,50.9,37.3a2.336,2.336,0,0,1,1.789,2.273,2.205,2.205,0,0,1-.992,1.871,4.28,4.28,0,0,1-2.562.715,4.47,4.47,0,0,1-1.887-.379,3.166,3.166,0,0,1-1.293-1.039,2.414,2.414,0,0,1-.469-1.426h2.141a1.179,1.179,0,0,0,.445.922,1.766,1.766,0,0,0,1.109.32,1.635,1.635,0,0,0,.98-.246A.766.766,0,0,0,50.493,39.664ZM57.774,37.7a5.013,5.013,0,0,1,.484-2.242,3.546,3.546,0,0,1,1.395-1.523,4.069,4.069,0,0,1,2.113-.539,3.849,3.849,0,0,1,2.793,1.047,4.2,4.2,0,0,1,1.207,2.844l.016.578A4.418,4.418,0,0,1,64.7,40.98a4.209,4.209,0,0,1-5.832,0,4.5,4.5,0,0,1-1.09-3.187Zm2.258.16a3.16,3.16,0,0,0,.453,1.843,1.628,1.628,0,0,0,2.578.008,3.457,3.457,0,0,0,.461-2.015,3.128,3.128,0,0,0-.461-1.831,1.5,1.5,0,0,0-1.3-.649,1.474,1.474,0,0,0-1.281.646A3.516,3.516,0,0,0,60.032,37.856Zm14.758,0a5.119,5.119,0,0,1-.867,3.168A2.872,2.872,0,0,1,71.5,42.156a2.639,2.639,0,0,1-2.2-1.055l-.1.9H67.173V30H69.43v4.3a2.571,2.571,0,0,1,2.055-.914,2.9,2.9,0,0,1,2.426,1.137,5.126,5.126,0,0,1,.879,3.2Zm-2.258-.164a3.363,3.363,0,0,0-.406-1.871,1.374,1.374,0,0,0-1.211-.59,1.489,1.489,0,0,0-1.484.883v3.336a1.509,1.509,0,0,0,1.5.891,1.394,1.394,0,0,0,1.438-1.078A5.562,5.562,0,0,0,72.532,37.688Zm6.039-4.141v8.914a3.024,3.024,0,0,1-.742,2.176,2.821,2.821,0,0,1-2.141.777,4.591,4.591,0,0,1-1.117-.133V43.492a4.238,4.238,0,0,0,.711.07q1.023,0,1.023-1.086v-8.93Zm-2.445-2.187a1.112,1.112,0,0,1,.34-.836,1.47,1.47,0,0,1,1.852,0,1.2,1.2,0,0,1-.008,1.68,1.448,1.448,0,0,1-1.836,0A1.108,1.108,0,0,1,76.126,31.359Zm8.1,10.8A4.15,4.15,0,0,1,81.2,41.016a4.054,4.054,0,0,1-1.168-3.039v-.219a5.106,5.106,0,0,1,.492-2.277,3.612,3.612,0,0,1,1.395-1.547,3.914,3.914,0,0,1,2.059-.543,3.508,3.508,0,0,1,2.73,1.094,4.444,4.444,0,0,1,1,3.1v.922H82.321a2.1,2.1,0,0,0,.66,1.328,2,2,0,0,0,1.395.5,2.437,2.437,0,0,0,2.039-.945l1.109,1.242a3.389,3.389,0,0,1-1.375,1.121A4.511,4.511,0,0,1,84.227,42.156Zm-.258-6.945a1.411,1.411,0,0,0-1.09.455,2.357,2.357,0,0,0-.535,1.3h3.141v-.181a1.681,1.681,0,0,0-.406-1.165A1.456,1.456,0,0,0,83.969,35.211Zm7.719-3.742v2.078h1.445V35.2H91.688v4.219a1.007,1.007,0,0,0,.18.672.9.9,0,0,0,.688.2,3.6,3.6,0,0,0,.664-.055v1.711a4.648,4.648,0,0,1-1.367.2,2.156,2.156,0,0,1-2.422-2.4V35.2H88.2V33.547H89.43V31.469ZM96.774,42H94.508V33.547h2.266Zm-2.4-10.641a1.112,1.112,0,0,1,.34-.836,1.465,1.465,0,0,1,1.848,0,1.193,1.193,0,0,1,0,1.68,1.448,1.448,0,0,1-1.836,0A1.108,1.108,0,0,1,94.376,31.359Zm7.422,7.883,1.57-5.7h2.359L102.876,42h-2.156l-2.852-8.453h2.359Zm4.453-1.547a5.013,5.013,0,0,1,.484-2.242,3.546,3.546,0,0,1,1.395-1.523,4.069,4.069,0,0,1,2.113-.539,3.849,3.849,0,0,1,2.793,1.047,4.2,4.2,0,0,1,1.207,2.844l.016.578a4.418,4.418,0,0,1-1.086,3.121,4.209,4.209,0,0,1-5.832,0,4.5,4.5,0,0,1-1.09-3.187Zm2.258.16a3.16,3.16,0,0,0,.453,1.843,1.628,1.628,0,0,0,2.578.008A3.457,3.457,0,0,0,112,37.691a3.128,3.128,0,0,0-.461-1.831,1.5,1.5,0,0,0-1.3-.649,1.474,1.474,0,0,0-1.281.646A3.516,3.516,0,0,0,108.508,37.856Zm11.719,1.808a.727.727,0,0,0-.41-.652,4.659,4.659,0,0,0-1.316-.426q-3.016-.633-3.016-2.562a2.323,2.323,0,0,1,.934-1.879,3.766,3.766,0,0,1,2.441-.754,4.053,4.053,0,0,1,2.574.758,2.388,2.388,0,0,1,.965,1.969h-2.258a1.092,1.092,0,0,0-.312-.8,1.322,1.322,0,0,0-.977-.316,1.351,1.351,0,0,0-.883.258.814.814,0,0,0-.312.656.7.7,0,0,0,.355.605,3.657,3.657,0,0,0,1.2.4,9.8,9.8,0,0,1,1.422.379,2.336,2.336,0,0,1,1.789,2.273,2.2,2.2,0,0,1-.992,1.871,4.28,4.28,0,0,1-2.562.715,4.47,4.47,0,0,1-1.887-.379,3.166,3.166,0,0,1-1.293-1.039,2.414,2.414,0,0,1-.469-1.426h2.141a1.179,1.179,0,0,0,.445.922,1.766,1.766,0,0,0,1.109.32,1.635,1.635,0,0,0,.98-.246A.766.766,0,0,0,120.227,39.664Z" transform="translate(840.014 1686.261)" fill="#12263f"/>
    <g id="lista-de-verificacion_4_" data-name="lista-de-verificacion(4)" transform="translate(764.392 1686.261)">
      <g id="Page-1_41_" transform="translate(0 0)">
        <g id="_x30_42---Checklist-Goals" transform="translate(0)">
          <ellipse id="Oval_11_" cx="0.71" cy="0.688" rx="0.71" ry="0.688" transform="translate(13.493 2.753)" fill="#451e8f"/>
          <path id="Shape_305_" d="M42.5,18.1a.726.726,0,0,0-1,0l-.258.249a.71.71,0,0,0-.788-.44.691.691,0,0,0-.582.677v1.092l-1.225,1.187A12.16,12.16,0,0,0,28.5,18.089V6.883A2.8,2.8,0,0,0,25.662,4.13H21.84a2.868,2.868,0,0,0-1.859-.688H17.85a3.553,3.553,0,0,0-7.1,0H8.618a2.868,2.868,0,0,0-1.859.688H2.937A2.8,2.8,0,0,0,.1,6.883V35.791a2.8,2.8,0,0,0,2.841,2.753H22.87c.244.2.5.385.76.564l-.71,1.147a.67.67,0,0,0-.023.7.721.721,0,0,0,1.242.008l.686-1.112a12.37,12.37,0,0,0,11.613,0l.686,1.112a.723.723,0,0,0,.964.222.677.677,0,0,0,.254-.929l-.71-1.147a11.59,11.59,0,0,0,4.994-8.2,11.419,11.419,0,0,0-2.986-9.072l1.23-1.187H42a.7.7,0,0,0,.685-.567.685.685,0,0,0-.44-.762l.257-.249a.673.673,0,0,0,0-.973ZM27.082,6.883V18.414a12.1,12.1,0,0,0-1.42.532V8.26a1.4,1.4,0,0,0-1.42-1.377h-1.42V6.195a2.631,2.631,0,0,0-.1-.688h2.942a1.4,1.4,0,0,1,1.42,1.377ZM7.2,6.195a1.4,1.4,0,0,1,1.42-1.377h2.131v.688a.71.71,0,0,0,1.42,0V3.441a2.132,2.132,0,0,1,4.261,0V5.506a.71.71,0,0,0,1.42,0V4.818h2.131A1.4,1.4,0,0,1,21.4,6.195V7.571H7.2ZM21.4,8.948a1.424,1.424,0,0,0,1.223-.688h1.618V19.685a11.451,11.451,0,0,0-4.6,14.73H4.357V8.26H5.975A1.424,1.424,0,0,0,7.2,8.948ZM1.516,35.791V6.883a1.4,1.4,0,0,1,1.42-1.377H5.878a2.635,2.635,0,0,0-.1.688v.688H4.357a1.4,1.4,0,0,0-1.42,1.377V34.415a1.4,1.4,0,0,0,1.42,1.377h16.05a11.717,11.717,0,0,0,1.035,1.377H2.937a1.4,1.4,0,0,1-1.42-1.377ZM41.286,29.6a10.438,10.438,0,0,1-8.4,10.156A10.783,10.783,0,0,1,20.87,33.929a10.164,10.164,0,0,1,3.345-12.608,10.954,10.954,0,0,1,13.422.515l-1,.973a9.471,9.471,0,0,0-12.821.716,8.777,8.777,0,0,0,.246,12.444,9.473,9.473,0,0,0,12.839.239,8.779,8.779,0,0,0,.739-12.426l1-.973A10.09,10.09,0,0,1,41.286,29.6Zm-5.681,0a4.87,4.87,0,0,1-3.83,4.723,5.044,5.044,0,0,1-5.62-2.531,4.737,4.737,0,0,1,1.255-5.882,5.116,5.116,0,0,1,6.2-.163l-1.016.985a3.64,3.64,0,0,0-4.724.694,3.374,3.374,0,0,0,.24,4.625,3.645,3.645,0,0,0,4.772.232,3.379,3.379,0,0,0,.717-4.578l1.018-.984A4.689,4.689,0,0,1,35.6,29.6Zm-2.841,0a2.132,2.132,0,1,1-2.131-2.065,2.151,2.151,0,0,1,.913.206l-1.415,1.371a.674.674,0,0,0-.194.669.7.7,0,0,0,.507.492.725.725,0,0,0,.691-.188l1.415-1.37A1.981,1.981,0,0,1,32.764,29.6Zm1.854-4.835a6.553,6.553,0,0,0-8.777.71A6.073,6.073,0,0,0,26.086,34a6.556,6.556,0,0,0,8.8.237,6.076,6.076,0,0,0,.733-8.506l1.011-.979A7.418,7.418,0,0,1,35.9,35.208a8,8,0,0,1-10.808-.238A7.415,7.415,0,0,1,24.843,24.5a8,8,0,0,1,10.785-.714Z" transform="translate(-0.096 0)" fill="#451e8f"/>
          <path id="Shape_304_" d="M77.916,139.81a.722.722,0,0,0,.5.2h.071a.714.714,0,0,0,.521-.3l1.42-2.065a.675.675,0,0,0-.2-.955.724.724,0,0,0-.985.191l-.94,1.367-.1-.1a.726.726,0,0,0-1,.008.673.673,0,0,0-.009.965Z" transform="translate(-70.607 -125.557)" fill="#451e8f"/>
          <path id="Shape_303_" d="M137.339,154.978h9.232a.689.689,0,1,0,0-1.377h-9.232a.689.689,0,1,0,0,1.377Z" transform="translate(-125.266 -141.212)" fill="#451e8f"/>
          <path id="Shape_302_" d="M77.916,208.076a.722.722,0,0,0,.5.2h.071a.714.714,0,0,0,.521-.3l1.42-2.065a.675.675,0,0,0-.2-.955.724.724,0,0,0-.985.191l-.94,1.367-.1-.1a.726.726,0,0,0-1,.008.673.673,0,0,0-.009.965Z" transform="translate(-70.607 -188.317)" fill="#451e8f"/>
          <path id="Shape_301_" d="M137.339,223.244h9.232a.689.689,0,1,0,0-1.377h-9.232a.689.689,0,1,0,0,1.377Z" transform="translate(-125.266 -203.971)" fill="#451e8f"/>
          <path id="Shape_300_" d="M137.339,359.778H141.6a.689.689,0,1,0,0-1.377h-4.261a.689.689,0,1,0,0,1.377Z" transform="translate(-125.266 -329.492)" fill="#451e8f"/>
          <path id="Shape_299_" d="M77.916,276.3a.722.722,0,0,0,.5.2.49.49,0,0,0,.071,0,.714.714,0,0,0,.521-.3l1.42-2.065a.675.675,0,0,0-.2-.955.724.724,0,0,0-.985.191l-.94,1.367-.1-.1a.726.726,0,0,0-1,.008.673.673,0,0,0-.009.965Z" transform="translate(-70.607 -251.038)" fill="#451e8f"/>
          <path id="Shape_298_" d="M77.917,344.57a.722.722,0,0,0,.5.2.494.494,0,0,0,.071,0,.714.714,0,0,0,.521-.3l1.42-2.065a.676.676,0,0,0-.2-.955.724.724,0,0,0-.985.191L78.31,343l-.1-.095a.726.726,0,0,0-1,.008.673.673,0,0,0-.009.965Z" transform="translate(-70.608 -313.799)" fill="#451e8f"/>
          <path id="Shape_297_" d="M137.339,291.511h5.447a.689.689,0,1,0,0-1.377h-5.447a.689.689,0,1,0,0,1.377Z" transform="translate(-125.266 -266.732)" fill="#451e8f"/>
        </g>
      </g>
    </g>
    <path id="Trazado_210450" data-name="Trazado 210450" d="M18.1,12.07H13.6v3.047h5.281V17H11.256V5.625h7.609v1.9H13.6v2.711h4.5Zm6.586,2.594a.727.727,0,0,0-.41-.652,4.659,4.659,0,0,0-1.316-.426q-3.016-.633-3.016-2.562a2.323,2.323,0,0,1,.934-1.879,3.766,3.766,0,0,1,2.441-.754,4.053,4.053,0,0,1,2.574.758,2.388,2.388,0,0,1,.965,1.969H24.6a1.092,1.092,0,0,0-.312-.8A1.322,1.322,0,0,0,23.311,10a1.351,1.351,0,0,0-.883.258.814.814,0,0,0-.312.656.7.7,0,0,0,.355.605,3.657,3.657,0,0,0,1.2.4,9.8,9.8,0,0,1,1.422.379,2.336,2.336,0,0,1,1.789,2.273,2.2,2.2,0,0,1-.992,1.871,4.28,4.28,0,0,1-2.562.715,4.47,4.47,0,0,1-1.887-.379,3.166,3.166,0,0,1-1.293-1.039,2.414,2.414,0,0,1-.469-1.426h2.141a1.179,1.179,0,0,0,.445.922,1.766,1.766,0,0,0,1.109.32,1.635,1.635,0,0,0,.98-.246A.766.766,0,0,0,24.686,14.664Zm6.352-8.2V8.547h1.445V10.2H31.038v4.219a1.007,1.007,0,0,0,.18.672.9.9,0,0,0,.688.2,3.6,3.6,0,0,0,.664-.055v1.711a4.648,4.648,0,0,1-1.367.2,2.156,2.156,0,0,1-2.422-2.4V10.2H27.546V8.547H28.78V6.469ZM38.639,17a2.507,2.507,0,0,1-.227-.758,2.732,2.732,0,0,1-2.133.914,3,3,0,0,1-2.059-.719,2.312,2.312,0,0,1-.816-1.812,2.389,2.389,0,0,1,1-2.062,4.915,4.915,0,0,1,2.879-.727h1.039v-.484a1.393,1.393,0,0,0-.3-.937,1.183,1.183,0,0,0-.949-.352,1.345,1.345,0,0,0-.895.273.929.929,0,0,0-.324.75H33.592a2.268,2.268,0,0,1,.453-1.359,3,3,0,0,1,1.281-.98,4.669,4.669,0,0,1,1.859-.355,3.689,3.689,0,0,1,2.48.785,2.747,2.747,0,0,1,.918,2.207v3.664a4.041,4.041,0,0,0,.336,1.82V17Zm-1.867-1.57a1.945,1.945,0,0,0,.922-.223,1.462,1.462,0,0,0,.625-.6V13.156h-.844q-1.7,0-1.8,1.172l-.008.133a.9.9,0,0,0,.3.7A1.153,1.153,0,0,0,36.772,15.43Zm13.164-2.578a5.119,5.119,0,0,1-.867,3.168,2.872,2.872,0,0,1-2.422,1.137,2.639,2.639,0,0,1-2.2-1.055l-.1.9H42.319V5h2.258V9.3a2.571,2.571,0,0,1,2.055-.914,2.9,2.9,0,0,1,2.426,1.137,5.126,5.126,0,0,1,.879,3.2Zm-2.258-.164a3.363,3.363,0,0,0-.406-1.871,1.374,1.374,0,0,0-1.211-.59,1.489,1.489,0,0,0-1.484.883v3.336a1.509,1.509,0,0,0,1.5.891,1.394,1.394,0,0,0,1.438-1.078A5.562,5.562,0,0,0,47.678,12.688ZM53.71,17H51.444V5H53.71Zm5.75.156a4.15,4.15,0,0,1-3.027-1.141,4.054,4.054,0,0,1-1.168-3.039v-.219a5.106,5.106,0,0,1,.492-2.277,3.612,3.612,0,0,1,1.395-1.547,3.914,3.914,0,0,1,2.059-.543,3.508,3.508,0,0,1,2.73,1.094,4.444,4.444,0,0,1,1,3.1v.922H57.553a2.1,2.1,0,0,0,.66,1.328,2,2,0,0,0,1.395.5,2.437,2.437,0,0,0,2.039-.945l1.109,1.242a3.389,3.389,0,0,1-1.375,1.121A4.511,4.511,0,0,1,59.46,17.156ZM59.2,10.211a1.411,1.411,0,0,0-1.09.455,2.357,2.357,0,0,0-.535,1.3h3.141v-.181a1.681,1.681,0,0,0-.406-1.165A1.456,1.456,0,0,0,59.2,10.211Zm8.531,5.125a1.481,1.481,0,0,0,1.016-.344,1.2,1.2,0,0,0,.406-.914h2.117a2.9,2.9,0,0,1-.469,1.574,3.093,3.093,0,0,1-1.262,1.109,3.949,3.949,0,0,1-1.77.395A3.67,3.67,0,0,1,64.913,16a4.56,4.56,0,0,1-1.047-3.184v-.148A4.508,4.508,0,0,1,64.9,9.555a3.627,3.627,0,0,1,2.852-1.164,3.555,3.555,0,0,1,2.543.9,3.2,3.2,0,0,1,.973,2.4H69.155a1.551,1.551,0,0,0-.406-1.072,1.51,1.51,0,0,0-2.223.163,3.333,3.333,0,0,0-.4,1.866v.235a3.375,3.375,0,0,0,.4,1.878A1.377,1.377,0,0,0,67.733,15.336ZM74.944,17H72.678V8.547h2.266Zm-2.4-10.641a1.112,1.112,0,0,1,.34-.836,1.465,1.465,0,0,1,1.848,0,1.105,1.105,0,0,1,.344.836,1.108,1.108,0,0,1-.348.844,1.448,1.448,0,0,1-1.836,0A1.108,1.108,0,0,1,72.546,6.359Zm6.375,2.188.07.945a2.971,2.971,0,0,1,2.43-1.1A2.255,2.255,0,0,1,83.663,9.68,2.9,2.9,0,0,1,86.2,8.391a2.521,2.521,0,0,1,2.047.8,3.681,3.681,0,0,1,.672,2.41V17H86.655V11.609a1.61,1.61,0,0,0-.281-1.051,1.246,1.246,0,0,0-.992-.332,1.409,1.409,0,0,0-1.406.969l.008,5.8H81.725V11.617a1.59,1.59,0,0,0-.289-1.062,1.259,1.259,0,0,0-.984-.328,1.463,1.463,0,0,0-1.391.8V17H76.8V8.547ZM93.038,17H90.772V8.547h2.266Zm-2.4-10.641a1.112,1.112,0,0,1,.34-.836,1.465,1.465,0,0,1,1.848,0,1.105,1.105,0,0,1,.344.836,1.108,1.108,0,0,1-.348.844,1.448,1.448,0,0,1-1.836,0A1.108,1.108,0,0,1,90.639,6.359Zm8.148,10.8a4.15,4.15,0,0,1-3.027-1.141,4.054,4.054,0,0,1-1.168-3.039v-.219a5.106,5.106,0,0,1,.492-2.277,3.612,3.612,0,0,1,1.395-1.547,3.914,3.914,0,0,1,2.059-.543,3.508,3.508,0,0,1,2.73,1.094,4.444,4.444,0,0,1,1,3.1v.922H96.881a2.1,2.1,0,0,0,.66,1.328,2,2,0,0,0,1.395.5,2.437,2.437,0,0,0,2.039-.945l1.109,1.242a3.389,3.389,0,0,1-1.375,1.121A4.511,4.511,0,0,1,98.788,17.156Zm-.258-6.945a1.411,1.411,0,0,0-1.09.455,2.357,2.357,0,0,0-.535,1.3h3.141v-.181a1.681,1.681,0,0,0-.406-1.165A1.456,1.456,0,0,0,98.53,10.211Zm7.094-1.664.07.977a2.951,2.951,0,0,1,2.43-1.133,2.453,2.453,0,0,1,2,.789,3.682,3.682,0,0,1,.672,2.359V17h-2.258V11.594a1.465,1.465,0,0,0-.312-1.043,1.4,1.4,0,0,0-1.039-.324,1.553,1.553,0,0,0-1.43.813V17H103.5V8.547Zm9.586-2.078V8.547h1.445V10.2H115.21v4.219a1.007,1.007,0,0,0,.18.672.9.9,0,0,0,.688.2,3.6,3.6,0,0,0,.664-.055v1.711a4.648,4.648,0,0,1-1.367.2,2.156,2.156,0,0,1-2.422-2.4V10.2h-1.234V8.547h1.234V6.469Zm2.117,6.227a5.013,5.013,0,0,1,.484-2.242,3.546,3.546,0,0,1,1.395-1.523,4.069,4.069,0,0,1,2.113-.539,3.849,3.849,0,0,1,2.793,1.047,4.2,4.2,0,0,1,1.207,2.844l.016.578a4.418,4.418,0,0,1-1.086,3.121,4.209,4.209,0,0,1-5.832,0,4.5,4.5,0,0,1-1.09-3.187Zm2.258.16a3.16,3.16,0,0,0,.453,1.843,1.628,1.628,0,0,0,2.578.008,3.457,3.457,0,0,0,.461-2.015,3.128,3.128,0,0,0-.461-1.831,1.5,1.5,0,0,0-1.3-.649,1.474,1.474,0,0,0-1.281.646A3.516,3.516,0,0,0,119.585,12.856Zm10.773-.145a5.094,5.094,0,0,1,.887-3.148,2.877,2.877,0,0,1,2.426-1.172,2.589,2.589,0,0,1,2.039.922V5h2.266V17h-2.039l-.109-.9a2.657,2.657,0,0,1-2.172,1.055,2.869,2.869,0,0,1-2.395-1.176A5.258,5.258,0,0,1,130.358,12.711Zm2.258.168a3.337,3.337,0,0,0,.414,1.823,1.349,1.349,0,0,0,1.2.634,1.511,1.511,0,0,0,1.477-.884V11.111a1.489,1.489,0,0,0-1.461-.884Q132.616,10.227,132.616,12.879Zm11,4.277a4.15,4.15,0,0,1-3.027-1.141,4.054,4.054,0,0,1-1.168-3.039v-.219a5.106,5.106,0,0,1,.492-2.277,3.612,3.612,0,0,1,1.395-1.547,3.914,3.914,0,0,1,2.059-.543,3.508,3.508,0,0,1,2.73,1.094,4.444,4.444,0,0,1,1,3.1v.922H141.71a2.1,2.1,0,0,0,.66,1.328,2,2,0,0,0,1.395.5,2.437,2.437,0,0,0,2.039-.945l1.109,1.242a3.389,3.389,0,0,1-1.375,1.121A4.511,4.511,0,0,1,143.616,17.156Zm-.258-6.945a1.411,1.411,0,0,0-1.09.455,2.357,2.357,0,0,0-.535,1.3h3.141v-.181a1.681,1.681,0,0,0-.406-1.165A1.456,1.456,0,0,0,143.358,10.211Zm7.4,6.789h-2.266V5h2.266ZM54.8,37.852a5.07,5.07,0,0,1-.887,3.129,2.843,2.843,0,0,1-2.395,1.176,2.633,2.633,0,0,1-2.07-.891V45.25H47.186v-11.7H49.28l.078.828a2.654,2.654,0,0,1,2.141-.984,2.862,2.862,0,0,1,2.43,1.156,5.207,5.207,0,0,1,.867,3.188Zm-2.258-.164a3.327,3.327,0,0,0-.418-1.82,1.361,1.361,0,0,0-1.215-.641,1.478,1.478,0,0,0-1.461.813V39.5a1.5,1.5,0,0,0,1.477.836Q52.538,40.336,52.538,37.688Zm8.406-2.023a6.134,6.134,0,0,0-.812-.062,1.654,1.654,0,0,0-1.68.867V42H56.194V33.547h2.133l.063,1.008a2.092,2.092,0,0,1,1.883-1.164,2.366,2.366,0,0,1,.7.1ZM61.4,37.7a5.013,5.013,0,0,1,.484-2.242,3.546,3.546,0,0,1,1.395-1.523,4.069,4.069,0,0,1,2.113-.539,3.849,3.849,0,0,1,2.793,1.047,4.2,4.2,0,0,1,1.207,2.844l.016.578a4.418,4.418,0,0,1-1.086,3.121,4.209,4.209,0,0,1-5.832,0A4.5,4.5,0,0,1,61.4,37.8Zm2.258.16a3.16,3.16,0,0,0,.453,1.843,1.628,1.628,0,0,0,2.578.008,3.457,3.457,0,0,0,.461-2.015,3.128,3.128,0,0,0-.461-1.831,1.5,1.5,0,0,0-1.3-.649,1.474,1.474,0,0,0-1.281.646A3.516,3.516,0,0,0,63.655,37.856Zm6.812-.145a4.954,4.954,0,0,1,.926-3.133,3,3,0,0,1,2.5-1.187,2.631,2.631,0,0,1,2.164.953l.094-.8h2.047v8.172a3.613,3.613,0,0,1-.5,1.93,3.236,3.236,0,0,1-1.418,1.25,4.985,4.985,0,0,1-2.141.43,4.635,4.635,0,0,1-1.812-.371A3.217,3.217,0,0,1,70.983,44l1-1.375a2.645,2.645,0,0,0,2.047.945,1.936,1.936,0,0,0,1.4-.48,1.8,1.8,0,0,0,.5-1.363v-.453a2.612,2.612,0,0,1-2.055.883,2.992,2.992,0,0,1-2.465-1.191,4.953,4.953,0,0,1-.941-3.16Zm2.258.168a3.085,3.085,0,0,0,.461,1.8,1.466,1.466,0,0,0,1.266.653,1.568,1.568,0,0,0,1.477-.775V36a1.564,1.564,0,0,0-1.461-.775,1.476,1.476,0,0,0-1.277.665A3.477,3.477,0,0,0,72.725,37.879Zm11.953-2.215a6.134,6.134,0,0,0-.812-.062,1.654,1.654,0,0,0-1.68.867V42H79.928V33.547h2.133l.063,1.008a2.092,2.092,0,0,1,1.883-1.164,2.366,2.366,0,0,1,.7.1ZM90.428,42a2.507,2.507,0,0,1-.227-.758,2.732,2.732,0,0,1-2.133.914,3,3,0,0,1-2.059-.719,2.312,2.312,0,0,1-.816-1.812,2.389,2.389,0,0,1,1-2.062,4.915,4.915,0,0,1,2.879-.727h1.039v-.484a1.393,1.393,0,0,0-.3-.937,1.183,1.183,0,0,0-.949-.352,1.345,1.345,0,0,0-.895.273.929.929,0,0,0-.324.75H85.381a2.268,2.268,0,0,1,.453-1.359,3,3,0,0,1,1.281-.98,4.669,4.669,0,0,1,1.859-.355,3.689,3.689,0,0,1,2.48.785,2.747,2.747,0,0,1,.918,2.207v3.664a4.041,4.041,0,0,0,.336,1.82V42Zm-1.867-1.57a1.945,1.945,0,0,0,.922-.223,1.462,1.462,0,0,0,.625-.6V38.156h-.844q-1.7,0-1.8,1.172l-.008.133a.9.9,0,0,0,.3.7A1.153,1.153,0,0,0,88.561,40.43Zm7.664-6.883.07.945a2.971,2.971,0,0,1,2.43-1.1,2.255,2.255,0,0,1,2.242,1.289,2.9,2.9,0,0,1,2.539-1.289,2.521,2.521,0,0,1,2.047.8,3.681,3.681,0,0,1,.672,2.41V42H103.96V36.609a1.61,1.61,0,0,0-.281-1.051,1.246,1.246,0,0,0-.992-.332,1.409,1.409,0,0,0-1.406.969l.008,5.8H99.03V36.617a1.59,1.59,0,0,0-.289-1.062,1.259,1.259,0,0,0-.984-.328,1.463,1.463,0,0,0-1.391.8V42H94.108V33.547ZM112.858,42a2.507,2.507,0,0,1-.227-.758,2.732,2.732,0,0,1-2.133.914,3,3,0,0,1-2.059-.719,2.312,2.312,0,0,1-.816-1.812,2.389,2.389,0,0,1,1-2.062,4.915,4.915,0,0,1,2.879-.727h1.039v-.484a1.393,1.393,0,0,0-.3-.937,1.183,1.183,0,0,0-.949-.352,1.345,1.345,0,0,0-.895.273.929.929,0,0,0-.324.75h-2.258a2.268,2.268,0,0,1,.453-1.359,3,3,0,0,1,1.281-.98,4.669,4.669,0,0,1,1.859-.355,3.689,3.689,0,0,1,2.48.785,2.747,2.747,0,0,1,.918,2.207v3.664a4.041,4.041,0,0,0,.336,1.82V42Zm-1.867-1.57a1.945,1.945,0,0,0,.922-.223,1.462,1.462,0,0,0,.625-.6V38.156h-.844q-1.7,0-1.8,1.172l-.008.133a.9.9,0,0,0,.3.7A1.153,1.153,0,0,0,110.991,40.43Z" transform="translate(836.402 1838.748)" fill="#12263f"/>
    <g id="ejecucion" transform="translate(764.392 1842.591)">
      <g id="Grupo_873605" data-name="Grupo 873605" transform="translate(0 0)">
        <g id="Grupo_873604" data-name="Grupo 873604" transform="translate(0 0)">
          <path id="Trazado_210006" data-name="Trazado 210006" d="M18.086,7.4,16.844,6.87c-.056-.2-.117-.393-.186-.578l.69-1.152a.672.672,0,0,0,.006-.682,9.169,9.169,0,0,0-1.211-1.641.721.721,0,0,0-.69-.212l-1.307.29q-.228-.177-.477-.341l-.127-1.341a.691.691,0,0,0-.41-.563,9.237,9.237,0,0,0-1.95-.635A.721.721,0,0,0,10.5.241L9.587,1.267H9.039L8.127.241A.72.72,0,0,0,7.442.016a9.247,9.247,0,0,0-1.95.635.691.691,0,0,0-.41.563l-.127,1.34c-.165.109-.325.223-.477.341l-1.307-.29a.72.72,0,0,0-.69.212A9.155,9.155,0,0,0,1.271,4.458a.672.672,0,0,0,.006.682l.69,1.152c-.068.185-.129.376-.186.578L.539,7.4a.689.689,0,0,0-.424.631V9.907a.689.689,0,0,0,.424.631l1.242.531c.056.2.117.393.186.578L1.277,12.8a.672.672,0,0,0-.006.682,9.169,9.169,0,0,0,1.211,1.641.723.723,0,0,0,.69.212l1.307-.29q.228.177.477.341l.127,1.341a.691.691,0,0,0,.41.563,9.237,9.237,0,0,0,1.95.635.723.723,0,0,0,.685-.225l.912-1.026h.548L10.5,17.7a.727.727,0,0,0,.685.225,9.247,9.247,0,0,0,1.95-.635.691.691,0,0,0,.41-.563l.127-1.34c.165-.109.325-.223.477-.341l1.307.29a.722.722,0,0,0,.69-.212,9.155,9.155,0,0,0,1.211-1.641.672.672,0,0,0-.006-.682l-.69-1.152c.068-.185.129-.376.186-.578l1.242-.531a.689.689,0,0,0,.424-.631V8.033A.689.689,0,0,0,18.086,7.4Zm-1,2.056-1.136.486a.7.7,0,0,0-.406.477,6.2,6.2,0,0,1-.329,1.023.672.672,0,0,0,.042.61l.651,1.088a7.832,7.832,0,0,1-.557.754l-1.23-.273a.722.722,0,0,0-.63.155,6.487,6.487,0,0,1-.873.626.687.687,0,0,0-.334.523l-.12,1.266a8.046,8.046,0,0,1-.87.286l-.842-.947a.722.722,0,0,0-.539-.24h-1.2a.722.722,0,0,0-.539.24l-.842.947a8.058,8.058,0,0,1-.871-.286l-.12-1.267a.688.688,0,0,0-.334-.523,6.408,6.408,0,0,1-.872-.625.722.722,0,0,0-.63-.155l-1.23.273a7.847,7.847,0,0,1-.557-.754l.651-1.088a.672.672,0,0,0,.042-.61,6.2,6.2,0,0,1-.329-1.023.7.7,0,0,0-.406-.477L1.538,9.458V8.482L2.675,8a.7.7,0,0,0,.406-.477A6.2,6.2,0,0,1,3.411,6.5a.672.672,0,0,0-.042-.61L2.717,4.8a7.831,7.831,0,0,1,.557-.754l1.23.273a.725.725,0,0,0,.63-.155,6.487,6.487,0,0,1,.873-.626.687.687,0,0,0,.334-.523l.12-1.266a8.047,8.047,0,0,1,.87-.286l.842.947a.722.722,0,0,0,.539.24h1.2a.722.722,0,0,0,.539-.24l.842-.947a8.059,8.059,0,0,1,.871.286l.12,1.267a.688.688,0,0,0,.334.523,6.408,6.408,0,0,1,.872.625.724.724,0,0,0,.63.155l1.23-.273a7.832,7.832,0,0,1,.557.754l-.651,1.088a.672.672,0,0,0-.042.61,6.2,6.2,0,0,1,.329,1.023A.7.7,0,0,0,15.95,8l1.136.486v.976Z" transform="translate(-0.115 -0.001)" fill="#451e8f"/>
        </g>
      </g>
      <g id="Grupo_873607" data-name="Grupo 873607" transform="translate(4.215 4.14)">
        <g id="Grupo_873606" data-name="Grupo 873606">
          <path id="Trazado_210007" data-name="Trazado 210007" d="M52.474,48.005a4.831,4.831,0,1,0,4.983,4.829A4.908,4.908,0,0,0,52.474,48.005Zm0,8.278a3.451,3.451,0,1,1,3.559-3.449A3.505,3.505,0,0,1,52.474,56.283Z" transform="translate(-47.491 -48.005)" fill="#451e8f"/>
        </g>
      </g>
      <g id="Grupo_873609" data-name="Grupo 873609" transform="translate(27.039 0)">
        <g id="Grupo_873608" data-name="Grupo 873608">
          <path id="Trazado_210008" data-name="Trazado 210008" d="M319.15,6.176l-.983-.42c-.038-.133-.08-.261-.124-.386l.548-.915a.674.674,0,0,0,.006-.683,7.806,7.806,0,0,0-1.025-1.387.721.721,0,0,0-.689-.212l-1.034.229q-.152-.115-.313-.224l-.1-1.063a.69.69,0,0,0-.41-.563,7.877,7.877,0,0,0-1.651-.537.72.72,0,0,0-.685.225l-.724.815h-.348l-.724-.815a.719.719,0,0,0-.685-.225,7.873,7.873,0,0,0-1.651.537.69.69,0,0,0-.41.563l-.1,1.063q-.161.108-.313.224L306.7,2.172a.722.722,0,0,0-.689.212,7.753,7.753,0,0,0-1.024,1.388.672.672,0,0,0,.005.682l.547.914q-.067.187-.124.387l-.983.42a.689.689,0,0,0-.425.631V8.369a.689.689,0,0,0,.425.631l.983.42c.038.133.08.261.124.386l-.548.915a.674.674,0,0,0-.006.683,7.8,7.8,0,0,0,1.025,1.387.722.722,0,0,0,.69.212l1.033-.23c.1.077.206.152.313.224l.1,1.063a.69.69,0,0,0,.41.563,7.876,7.876,0,0,0,1.651.537.722.722,0,0,0,.685-.225l.724-.815h.348l.724.815a.727.727,0,0,0,.685.225,7.872,7.872,0,0,0,1.651-.537.69.69,0,0,0,.41-.563l.1-1.063q.161-.108.313-.224l1.034.229a.722.722,0,0,0,.689-.212A7.807,7.807,0,0,0,318.6,11.4a.674.674,0,0,0-.006-.683l-.548-.915c.045-.125.086-.253.124-.386L319.15,9a.689.689,0,0,0,.425-.631V6.807A.689.689,0,0,0,319.15,6.176Zm-1,1.744-.877.375a.693.693,0,0,0-.407.478,5.039,5.039,0,0,1-.268.832.673.673,0,0,0,.042.611l.507.846q-.172.259-.371.5l-.954-.212a.721.721,0,0,0-.629.155,5.256,5.256,0,0,1-.71.509.689.689,0,0,0-.335.524l-.092.985c-.191.073-.383.136-.574.189l-.652-.734a.722.722,0,0,0-.539-.24h-1a.722.722,0,0,0-.539.24l-.652.734c-.191-.053-.383-.116-.574-.189l-.092-.985a.688.688,0,0,0-.335-.524,5.215,5.215,0,0,1-.71-.509.733.733,0,0,0-.63-.156l-.953.212c-.133-.162-.256-.331-.371-.5l.507-.846a.673.673,0,0,0,.042-.611,5.041,5.041,0,0,1-.268-.832.693.693,0,0,0-.407-.478l-.877-.375V7.257l.877-.375a.693.693,0,0,0,.407-.478,5.077,5.077,0,0,1,.268-.833.672.672,0,0,0-.042-.61l-.506-.846c.114-.172.238-.34.37-.5l.954.212a.724.724,0,0,0,.629-.155,5.262,5.262,0,0,1,.71-.509.688.688,0,0,0,.335-.524l.092-.985c.191-.073.383-.136.574-.189l.652.734a.722.722,0,0,0,.539.24h1a.722.722,0,0,0,.539-.24l.652-.734c.191.053.383.116.574.189l.092.985a.688.688,0,0,0,.335.524,5.258,5.258,0,0,1,.71.509.723.723,0,0,0,.629.155l.954-.212q.2.245.371.5l-.507.846a.673.673,0,0,0-.042.611,5.042,5.042,0,0,1,.268.832.693.693,0,0,0,.407.478l.877.375Z" transform="translate(-304.007 0.001)" fill="#451e8f"/>
        </g>
      </g>
      <g id="Grupo_873611" data-name="Grupo 873611" transform="translate(31.263 4.14)">
        <g id="Grupo_873610" data-name="Grupo 873610">
          <path id="Trazado_210009" data-name="Trazado 210009" d="M355.05,48.005a3.451,3.451,0,1,0,3.559,3.449A3.505,3.505,0,0,0,355.05,48.005Zm0,5.519a2.071,2.071,0,1,1,2.135-2.07A2.1,2.1,0,0,1,355.05,53.524Z" transform="translate(-351.491 -48.005)" fill="#451e8f"/>
        </g>
      </g>
      <g id="Grupo_873613" data-name="Grupo 873613" transform="translate(21.379 20.775)">
        <g id="Grupo_873612" data-name="Grupo 873612">
          <path id="Trazado_210010" data-name="Trazado 210010" d="M261.028,249.334l-1.032-.21c-.042-.173-.09-.346-.144-.518l.791-.687a.675.675,0,0,0,.18-.784,10.3,10.3,0,0,0-1.307-2.171.728.728,0,0,0-.791-.241l-.995.317c-.127-.13-.258-.257-.392-.38l.327-.963a.677.677,0,0,0-.247-.766,10.733,10.733,0,0,0-2.24-1.269.731.731,0,0,0-.809.174l-.709.767c-.177-.053-.356-.1-.535-.14l-.217-1a.707.707,0,0,0-.7-.548h-2.427a.707.707,0,0,0-.7.548l-.217,1c-.179.041-.357.088-.535.139l-.709-.767a.731.731,0,0,0-.809-.174,10.781,10.781,0,0,0-2.24,1.267.678.678,0,0,0-.248.767l.327.964c-.134.123-.266.25-.392.38l-.994-.317a.729.729,0,0,0-.79.24,10.254,10.254,0,0,0-1.309,2.171.675.675,0,0,0,.18.784l.792.687c-.054.172-.1.345-.145.518l-1.032.21a.7.7,0,0,0-.565.675v2.353a.7.7,0,0,0,.565.675l1.032.21c.042.173.09.346.144.518l-.791.687a.675.675,0,0,0-.18.784,10.3,10.3,0,0,0,1.307,2.171.728.728,0,0,0,.791.241l.995-.317c.126.13.258.257.392.38l-.327.963a.678.678,0,0,0,.247.766,10.737,10.737,0,0,0,2.24,1.269.725.725,0,0,0,.809-.174l.709-.767c.177.053.356.1.535.14l.217,1a.707.707,0,0,0,.7.548h2.427a.707.707,0,0,0,.7-.548l.217-1c.179-.041.357-.088.535-.139l.709.767a.725.725,0,0,0,.809.174,10.781,10.781,0,0,0,2.24-1.267.678.678,0,0,0,.248-.767l-.327-.964c.134-.123.265-.25.392-.38l.994.317a.727.727,0,0,0,.79-.24,10.255,10.255,0,0,0,1.309-2.171.675.675,0,0,0-.18-.784l-.792-.687c.054-.172.1-.345.145-.518l1.032-.21a.7.7,0,0,0,.565-.675v-2.353A.7.7,0,0,0,261.028,249.334Zm-.858,2.468-.921.188a.7.7,0,0,0-.554.552,7.318,7.318,0,0,1-.334,1.2.675.675,0,0,0,.2.747l.747.648a9,9,0,0,1-.629,1.039l-.94-.3a.729.729,0,0,0-.766.21,7.661,7.661,0,0,1-.911.883.678.678,0,0,0-.216.742l.309.911a9.361,9.361,0,0,1-1.072.61l-.669-.724a.73.73,0,0,0-.772-.189,7.859,7.859,0,0,1-1.239.324.7.7,0,0,0-.57.537l-.194.893h-1.272l-.194-.893a.7.7,0,0,0-.57-.537,7.94,7.94,0,0,1-1.241-.324h0a.732.732,0,0,0-.771.189l-.669.724a9.421,9.421,0,0,1-1.072-.61l.309-.911a.678.678,0,0,0-.216-.742,7.659,7.659,0,0,1-.911-.883.73.73,0,0,0-.765-.209l-.94.3a8.948,8.948,0,0,1-.629-1.039l.747-.649a.676.676,0,0,0,.2-.748,7.246,7.246,0,0,1-.334-1.2.7.7,0,0,0-.554-.552l-.921-.188v-1.233l.921-.188a.7.7,0,0,0,.554-.552,7.319,7.319,0,0,1,.334-1.2.675.675,0,0,0-.2-.747l-.747-.648a9,9,0,0,1,.629-1.039l.94.3a.729.729,0,0,0,.766-.21,7.659,7.659,0,0,1,.911-.883.678.678,0,0,0,.216-.742l-.309-.911a9.363,9.363,0,0,1,1.072-.61l.669.724a.73.73,0,0,0,.772.189,7.861,7.861,0,0,1,1.239-.324.7.7,0,0,0,.57-.537l.194-.893h1.272l.194.893a.7.7,0,0,0,.57.537,7.935,7.935,0,0,1,1.241.324.728.728,0,0,0,.771-.189l.669-.724a9.423,9.423,0,0,1,1.072.61l-.309.911a.678.678,0,0,0,.216.742,7.658,7.658,0,0,1,.911.883.733.733,0,0,0,.765.209l.94-.3a8.948,8.948,0,0,1,.629,1.039l-.747.649a.676.676,0,0,0-.2.748,7.249,7.249,0,0,1,.334,1.2.7.7,0,0,0,.554.552l.921.188Z" transform="translate(-240.402 -240.916)" fill="#451e8f"/>
        </g>
      </g>
      <g id="Grupo_873615" data-name="Grupo 873615" transform="translate(25.569 24.836)">
        <g id="Grupo_873614" data-name="Grupo 873614">
          <path id="Trazado_210011" data-name="Trazado 210011" d="M293.9,288.005a6.212,6.212,0,1,0,6.406,6.209A6.31,6.31,0,0,0,293.9,288.005Zm0,11.038a4.831,4.831,0,1,1,4.983-4.829A4.914,4.914,0,0,1,293.9,299.043Z" transform="translate(-287.491 -288.005)" fill="#451e8f"/>
        </g>
      </g>
      <g id="Grupo_873617" data-name="Grupo 873617" transform="translate(19.875 7.589)">
        <g id="Grupo_873616" data-name="Grupo 873616">
          <rect id="Rectángulo_67205" data-name="Rectángulo 67205" width="5.694" height="1.38" fill="#451e8f"/>
        </g>
      </g>
      <g id="Grupo_873619" data-name="Grupo 873619" transform="translate(3.503 18.627)">
        <g id="Grupo_873618" data-name="Grupo 873618">
          <path id="Trazado_210012" data-name="Trazado 210012" d="M55.8,227.461a.7.7,0,0,0-.374-.363h0l-4.983-2.07a.72.72,0,0,0-.934.361.672.672,0,0,0-.058.272v1.38H40.915V216H39.491v11.728a.7.7,0,0,0,.711.69h9.254v1.38a.7.7,0,0,0,.711.69h0a.721.721,0,0,0,.28-.056l4.983-2.07A.682.682,0,0,0,55.8,227.461Zm-4.925,1.294v-2.047l2.464,1.023Z" transform="translate(-39.491 -216.004)" fill="#451e8f"/>
        </g>
      </g>
      <g id="Grupo_873621" data-name="Grupo 873621" transform="translate(28.625 28.533)">
        <g id="Grupo_873620" data-name="Grupo 873620">
          <path id="Trazado_210013" data-name="Trazado 210013" d="M327.485,330.88l-3.06,3.559-1.584-1.535-1.007.975,2.135,2.07a.721.721,0,0,0,.5.2h.032a.721.721,0,0,0,.515-.247l3.559-4.139Z" transform="translate(-321.834 -330.88)" fill="#451e8f"/>
        </g>
      </g>
    </g>
    <path id="Trazado_210456" data-name="Trazado 210456" d="M0,0V34.229" transform="translate(874.37 2050.594)" fill="none" stroke="#002d52" stroke-width="2"/>
    <path id="Trazado_210455" data-name="Trazado 210455" d="M0,0H47.369" transform="translate(1030.168 2011.764)" fill="none" stroke="#002d52" stroke-width="2"/>
    <path id="Trazado_210452" data-name="Trazado 210452" d="M5.774,12.836H3.907V17H1.563V5.625H5.789a4.778,4.778,0,0,1,3.109.9A3.1,3.1,0,0,1,9.992,9.063,3.5,3.5,0,0,1,9.489,11a3.437,3.437,0,0,1-1.527,1.238l2.461,4.648V17H7.907Zm-1.867-1.9H5.8a1.936,1.936,0,0,0,1.367-.449A1.606,1.606,0,0,0,7.649,9.25a1.719,1.719,0,0,0-.457-1.266,1.9,1.9,0,0,0-1.4-.461H3.907Zm11.609,6.219a4.15,4.15,0,0,1-3.027-1.141,4.054,4.054,0,0,1-1.168-3.039v-.219a5.106,5.106,0,0,1,.492-2.277,3.612,3.612,0,0,1,1.395-1.547,3.914,3.914,0,0,1,2.059-.543A3.508,3.508,0,0,1,18,9.484a4.444,4.444,0,0,1,1,3.1v.922H13.61a2.1,2.1,0,0,0,.66,1.328,2,2,0,0,0,1.395.5,2.437,2.437,0,0,0,2.039-.945l1.109,1.242a3.389,3.389,0,0,1-1.375,1.121A4.511,4.511,0,0,1,15.516,17.156Zm-.258-6.945a1.411,1.411,0,0,0-1.09.455,2.357,2.357,0,0,0-.535,1.3h3.141v-.181a1.681,1.681,0,0,0-.406-1.165A1.456,1.456,0,0,0,15.258,10.211ZM25.172,17a2.507,2.507,0,0,1-.227-.758,2.732,2.732,0,0,1-2.133.914,3,3,0,0,1-2.059-.719,2.312,2.312,0,0,1-.816-1.812,2.389,2.389,0,0,1,1-2.062,4.915,4.915,0,0,1,2.879-.727h1.039v-.484a1.393,1.393,0,0,0-.3-.937,1.183,1.183,0,0,0-.949-.352,1.345,1.345,0,0,0-.895.273.929.929,0,0,0-.324.75H20.125a2.268,2.268,0,0,1,.453-1.359,3,3,0,0,1,1.281-.98,4.669,4.669,0,0,1,1.859-.355,3.689,3.689,0,0,1,2.48.785,2.747,2.747,0,0,1,.918,2.207v3.664a4.041,4.041,0,0,0,.336,1.82V17ZM23.3,15.43a1.945,1.945,0,0,0,.922-.223,1.462,1.462,0,0,0,.625-.6V13.156h-.844q-1.7,0-1.8,1.172l-.008.133a.9.9,0,0,0,.3.7A1.153,1.153,0,0,0,23.3,15.43ZM31.235,17H28.969V5h2.266Zm4.242,0H33.211V8.547h2.266Zm-2.4-10.641a1.112,1.112,0,0,1,.34-.836,1.465,1.465,0,0,1,1.848,0,1.105,1.105,0,0,1,.344.836,1.108,1.108,0,0,1-.348.844,1.448,1.448,0,0,1-1.836,0A1.108,1.108,0,0,1,33.078,6.359Zm6.852,8.82h4.133V17H37.047V15.625l3.977-5.258H37.164V8.547h6.773v1.33ZM50.375,17a2.507,2.507,0,0,1-.227-.758,2.732,2.732,0,0,1-2.133.914,3,3,0,0,1-2.059-.719,2.312,2.312,0,0,1-.816-1.812,2.389,2.389,0,0,1,1-2.062,4.915,4.915,0,0,1,2.879-.727h1.039v-.484a1.393,1.393,0,0,0-.3-.937,1.183,1.183,0,0,0-.949-.352,1.345,1.345,0,0,0-.895.273.929.929,0,0,0-.324.75H45.328a2.268,2.268,0,0,1,.453-1.359,3,3,0,0,1,1.281-.98,4.669,4.669,0,0,1,1.859-.355,3.689,3.689,0,0,1,2.48.785,2.747,2.747,0,0,1,.918,2.207v3.664a4.041,4.041,0,0,0,.336,1.82V17Zm-1.867-1.57a1.945,1.945,0,0,0,.922-.223,1.462,1.462,0,0,0,.625-.6V13.156h-.844q-1.7,0-1.8,1.172l-.008.133a.9.9,0,0,0,.3.7A1.153,1.153,0,0,0,48.508,15.43Zm9.063-.094a1.481,1.481,0,0,0,1.016-.344,1.2,1.2,0,0,0,.406-.914H61.11a2.9,2.9,0,0,1-.469,1.574,3.093,3.093,0,0,1-1.262,1.109,3.949,3.949,0,0,1-1.77.395A3.67,3.67,0,0,1,54.75,16,4.56,4.56,0,0,1,53.7,12.82v-.148a4.508,4.508,0,0,1,1.039-3.117,3.627,3.627,0,0,1,2.852-1.164,3.555,3.555,0,0,1,2.543.9,3.2,3.2,0,0,1,.973,2.4H58.992a1.551,1.551,0,0,0-.406-1.072,1.51,1.51,0,0,0-2.223.163,3.333,3.333,0,0,0-.4,1.866v.235a3.375,3.375,0,0,0,.4,1.878A1.377,1.377,0,0,0,57.571,15.336ZM64.782,17H62.516V8.547h2.266Zm-2.4-10.641a1.112,1.112,0,0,1,.34-.836,1.465,1.465,0,0,1,1.848,0,1.105,1.105,0,0,1,.344.836,1.108,1.108,0,0,1-.348.844,1.448,1.448,0,0,1-1.836,0A1.108,1.108,0,0,1,62.383,6.359ZM66.289,12.7a5.013,5.013,0,0,1,.484-2.242A3.546,3.546,0,0,1,68.168,8.93a4.069,4.069,0,0,1,2.113-.539,3.849,3.849,0,0,1,2.793,1.047,4.2,4.2,0,0,1,1.207,2.844l.016.578a4.418,4.418,0,0,1-1.086,3.121,4.209,4.209,0,0,1-5.832,0,4.5,4.5,0,0,1-1.09-3.187Zm2.258.16A3.16,3.16,0,0,0,69,14.7a1.628,1.628,0,0,0,2.578.008,3.457,3.457,0,0,0,.461-2.015,3.128,3.128,0,0,0-.461-1.831,1.5,1.5,0,0,0-1.3-.649A1.474,1.474,0,0,0,69,10.856,3.516,3.516,0,0,0,68.547,12.856ZM70.727,5h2.461L71.024,7.422H69.188Zm7.039,3.547.07.977a2.951,2.951,0,0,1,2.43-1.133,2.453,2.453,0,0,1,2,.789,3.682,3.682,0,0,1,.672,2.359V17H80.68V11.594a1.465,1.465,0,0,0-.312-1.043,1.4,1.4,0,0,0-1.039-.324,1.553,1.553,0,0,0-1.43.813V17H75.641V8.547Zm10.516,4.164a5.094,5.094,0,0,1,.887-3.148,2.877,2.877,0,0,1,2.426-1.172,2.589,2.589,0,0,1,2.039.922V5H95.9V17H93.86l-.109-.9a2.657,2.657,0,0,1-2.172,1.055,2.869,2.869,0,0,1-2.395-1.176A5.258,5.258,0,0,1,88.282,12.711Zm2.258.168a3.337,3.337,0,0,0,.414,1.823,1.349,1.349,0,0,0,1.2.634,1.511,1.511,0,0,0,1.477-.884V11.111a1.489,1.489,0,0,0-1.461-.884Q90.539,10.227,90.539,12.879Zm11,4.277a4.15,4.15,0,0,1-3.027-1.141,4.054,4.054,0,0,1-1.168-3.039v-.219a5.106,5.106,0,0,1,.492-2.277,3.612,3.612,0,0,1,1.395-1.547,3.914,3.914,0,0,1,2.059-.543,3.508,3.508,0,0,1,2.73,1.094,4.444,4.444,0,0,1,1,3.1v.922H99.633a2.1,2.1,0,0,0,.66,1.328,2,2,0,0,0,1.395.5,2.437,2.437,0,0,0,2.039-.945l1.109,1.242a3.389,3.389,0,0,1-1.375,1.121A4.511,4.511,0,0,1,101.539,17.156Zm-.258-6.945a1.411,1.411,0,0,0-1.09.455,2.357,2.357,0,0,0-.535,1.3H102.8v-.181a1.681,1.681,0,0,0-.406-1.165A1.456,1.456,0,0,0,101.282,10.211ZM112.664,17H110.4V5h2.266Zm6.758,0a2.507,2.507,0,0,1-.227-.758,2.732,2.732,0,0,1-2.133.914A3,3,0,0,1,115,16.438a2.312,2.312,0,0,1-.816-1.812,2.389,2.389,0,0,1,1-2.062,4.915,4.915,0,0,1,2.879-.727H119.1v-.484a1.393,1.393,0,0,0-.3-.937,1.183,1.183,0,0,0-.949-.352,1.345,1.345,0,0,0-.895.273.929.929,0,0,0-.324.75h-2.258a2.268,2.268,0,0,1,.453-1.359,3,3,0,0,1,1.281-.98,4.669,4.669,0,0,1,1.859-.355,3.689,3.689,0,0,1,2.48.785,2.747,2.747,0,0,1,.918,2.207v3.664a4.041,4.041,0,0,0,.336,1.82V17Zm-1.867-1.57a1.945,1.945,0,0,0,.922-.223,1.462,1.462,0,0,0,.625-.6V13.156h-.844q-1.7,0-1.8,1.172l-.008.133a.9.9,0,0,0,.3.7A1.153,1.153,0,0,0,117.555,15.43ZM35.254,42a2.507,2.507,0,0,1-.227-.758,2.732,2.732,0,0,1-2.133.914,3,3,0,0,1-2.059-.719,2.312,2.312,0,0,1-.816-1.812,2.389,2.389,0,0,1,1-2.062,4.915,4.915,0,0,1,2.879-.727h1.039v-.484a1.393,1.393,0,0,0-.3-.937,1.183,1.183,0,0,0-.949-.352,1.345,1.345,0,0,0-.895.273.929.929,0,0,0-.324.75H30.207a2.268,2.268,0,0,1,.453-1.359,3,3,0,0,1,1.281-.98,4.669,4.669,0,0,1,1.859-.355,3.689,3.689,0,0,1,2.48.785,2.747,2.747,0,0,1,.918,2.207v3.664a4.041,4.041,0,0,0,.336,1.82V42Zm-1.867-1.57a1.945,1.945,0,0,0,.922-.223,1.462,1.462,0,0,0,.625-.6V38.156H34.09q-1.7,0-1.8,1.172l-.008.133a.9.9,0,0,0,.3.7A1.153,1.153,0,0,0,33.387,40.43ZM44,41.141a2.831,2.831,0,0,1-2.312,1.016,2.67,2.67,0,0,1-2.074-.781,3.335,3.335,0,0,1-.73-2.289V33.547h2.258v5.467q0,1.322,1.2,1.322a1.63,1.63,0,0,0,1.578-.8V33.547h2.266V42H44.059Zm3.539-3.43a5.094,5.094,0,0,1,.887-3.148,2.877,2.877,0,0,1,2.426-1.172,2.589,2.589,0,0,1,2.039.922V30h2.266V42H53.114L53,41.1a2.657,2.657,0,0,1-2.172,1.055,2.869,2.869,0,0,1-2.395-1.176A5.258,5.258,0,0,1,47.535,37.711Zm2.258.168a3.337,3.337,0,0,0,.414,1.823,1.349,1.349,0,0,0,1.2.634,1.511,1.511,0,0,0,1.477-.884V36.111a1.489,1.489,0,0,0-1.461-.884Q49.793,35.227,49.793,37.879ZM59.285,42H57.02V33.547h2.266Zm-2.4-10.641a1.112,1.112,0,0,1,.34-.836,1.465,1.465,0,0,1,1.848,0,1.193,1.193,0,0,1,0,1.68,1.448,1.448,0,0,1-1.836,0A1.108,1.108,0,0,1,56.887,31.359Zm6.961.109v2.078h1.445V35.2H63.848v4.219a1.007,1.007,0,0,0,.18.672.9.9,0,0,0,.688.2,3.6,3.6,0,0,0,.664-.055v1.711a4.648,4.648,0,0,1-1.367.2,2.156,2.156,0,0,1-2.422-2.4V35.2H60.356V33.547H61.59V31.469ZM65.965,37.7a5.013,5.013,0,0,1,.484-2.242,3.546,3.546,0,0,1,1.395-1.523,4.069,4.069,0,0,1,2.113-.539,3.849,3.849,0,0,1,2.793,1.047,4.2,4.2,0,0,1,1.207,2.844l.016.578a4.418,4.418,0,0,1-1.086,3.121,4.209,4.209,0,0,1-5.832,0,4.5,4.5,0,0,1-1.09-3.187Zm2.258.16a3.16,3.16,0,0,0,.453,1.843,1.628,1.628,0,0,0,2.578.008,3.457,3.457,0,0,0,.461-2.015,3.128,3.128,0,0,0-.461-1.831,1.5,1.5,0,0,0-1.3-.649,1.474,1.474,0,0,0-1.281.646A3.516,3.516,0,0,0,68.223,37.856Zm11.891-2.192A6.134,6.134,0,0,0,79.3,35.6a1.654,1.654,0,0,0-1.68.867V42H75.364V33.547H77.5l.063,1.008a2.092,2.092,0,0,1,1.883-1.164,2.366,2.366,0,0,1,.7.1ZM83.637,42H81.379V33.547h2.258Zm-.664-11.883h2.461L83.27,32.539H81.434ZM90.481,42a2.507,2.507,0,0,1-.227-.758,2.732,2.732,0,0,1-2.133.914,3,3,0,0,1-2.059-.719,2.312,2.312,0,0,1-.816-1.812,2.389,2.389,0,0,1,1-2.062,4.915,4.915,0,0,1,2.879-.727H90.16v-.484a1.393,1.393,0,0,0-.3-.937,1.183,1.183,0,0,0-.949-.352,1.345,1.345,0,0,0-.895.273.929.929,0,0,0-.324.75H85.434a2.268,2.268,0,0,1,.453-1.359,3,3,0,0,1,1.281-.98,4.669,4.669,0,0,1,1.859-.355,3.689,3.689,0,0,1,2.48.785,2.747,2.747,0,0,1,.918,2.207v3.664a4.041,4.041,0,0,0,.336,1.82V42Zm-1.867-1.57a1.945,1.945,0,0,0,.922-.223,1.462,1.462,0,0,0,.625-.6V38.156h-.844q-1.7,0-1.8,1.172l-.008.133a.9.9,0,0,0,.3.7A1.153,1.153,0,0,0,88.614,40.43Z" transform="translate(1148.45 1930.245)" fill="#12263f"/>
    <path id="Trazado_210457" data-name="Trazado 210457" d="M46.617,13.211A4.025,4.025,0,0,1,45.261,16.1a4.76,4.76,0,0,1-3.223,1.055A4.28,4.28,0,0,1,38.6,15.684a6.038,6.038,0,0,1-1.254-4.043v-.7a6.819,6.819,0,0,1,.578-2.891,4.332,4.332,0,0,1,1.652-1.918,5.164,5.164,0,0,1,5.668.387,4.326,4.326,0,0,1,1.391,2.961H44.289a2.376,2.376,0,0,0-.613-1.6,2.271,2.271,0,0,0-1.605-.5,1.991,1.991,0,0,0-1.754.84,4.707,4.707,0,0,0-.6,2.605V11.7a5.038,5.038,0,0,0,.559,2.7,1.954,1.954,0,0,0,1.762.852,2.314,2.314,0,0,0,1.621-.5,2.241,2.241,0,0,0,.613-1.535Zm1.039-.516a5.013,5.013,0,0,1,.484-2.242A3.546,3.546,0,0,1,49.535,8.93a4.069,4.069,0,0,1,2.113-.539,3.849,3.849,0,0,1,2.793,1.047,4.2,4.2,0,0,1,1.207,2.844l.016.578a4.418,4.418,0,0,1-1.086,3.121,4.209,4.209,0,0,1-5.832,0,4.5,4.5,0,0,1-1.09-3.187Zm2.258.16a3.16,3.16,0,0,0,.453,1.843,1.628,1.628,0,0,0,2.578.008,3.457,3.457,0,0,0,.461-2.015,3.128,3.128,0,0,0-.461-1.831,1.5,1.5,0,0,0-1.3-.649,1.474,1.474,0,0,0-1.281.646A3.516,3.516,0,0,0,49.914,12.856Zm9.258-4.309.07.945a2.971,2.971,0,0,1,2.43-1.1A2.255,2.255,0,0,1,63.914,9.68a2.9,2.9,0,0,1,2.539-1.289,2.521,2.521,0,0,1,2.047.8,3.681,3.681,0,0,1,.672,2.41V17H66.906V11.609a1.61,1.61,0,0,0-.281-1.051,1.246,1.246,0,0,0-.992-.332,1.409,1.409,0,0,0-1.406.969l.008,5.8H61.976V11.617a1.59,1.59,0,0,0-.289-1.062,1.259,1.259,0,0,0-.984-.328,1.463,1.463,0,0,0-1.391.8V17H57.054V8.547Zm19.344,4.3a5.07,5.07,0,0,1-.887,3.129,2.843,2.843,0,0,1-2.395,1.176,2.633,2.633,0,0,1-2.07-.891V20.25H70.906V8.547H73l.078.828a2.654,2.654,0,0,1,2.141-.984,2.862,2.862,0,0,1,2.43,1.156,5.207,5.207,0,0,1,.867,3.188Zm-2.258-.164a3.327,3.327,0,0,0-.418-1.82,1.361,1.361,0,0,0-1.215-.641,1.478,1.478,0,0,0-1.461.813V14.5a1.5,1.5,0,0,0,1.477.836Q76.257,15.336,76.257,12.688ZM83.8,17.156a4.15,4.15,0,0,1-3.027-1.141,4.054,4.054,0,0,1-1.168-3.039v-.219A5.106,5.106,0,0,1,80.1,10.48,3.612,3.612,0,0,1,81.5,8.934a3.914,3.914,0,0,1,2.059-.543,3.508,3.508,0,0,1,2.73,1.094,4.444,4.444,0,0,1,1,3.1v.922H81.9a2.1,2.1,0,0,0,.66,1.328,2,2,0,0,0,1.395.5,2.437,2.437,0,0,0,2.039-.945L87.1,15.633a3.389,3.389,0,0,1-1.375,1.121A4.511,4.511,0,0,1,83.8,17.156Zm-.258-6.945a1.411,1.411,0,0,0-1.09.455,2.357,2.357,0,0,0-.535,1.3h3.141v-.181a1.681,1.681,0,0,0-.406-1.165A1.456,1.456,0,0,0,83.546,10.211Zm7.719-3.742V8.547H92.71V10.2H91.265v4.219a1.007,1.007,0,0,0,.18.672.9.9,0,0,0,.688.2,3.6,3.6,0,0,0,.664-.055v1.711a4.648,4.648,0,0,1-1.367.2,2.156,2.156,0,0,1-2.422-2.4V10.2H87.773V8.547h1.234V6.469Zm6.594,10.688a4.15,4.15,0,0,1-3.027-1.141,4.054,4.054,0,0,1-1.168-3.039v-.219a5.106,5.106,0,0,1,.492-2.277A3.612,3.612,0,0,1,95.55,8.934a3.914,3.914,0,0,1,2.059-.543,3.508,3.508,0,0,1,2.73,1.094,4.444,4.444,0,0,1,1,3.1v.922H95.953a2.1,2.1,0,0,0,.66,1.328,2,2,0,0,0,1.395.5,2.437,2.437,0,0,0,2.039-.945l1.109,1.242a3.389,3.389,0,0,1-1.375,1.121A4.511,4.511,0,0,1,97.859,17.156ZM97.6,10.211a1.411,1.411,0,0,0-1.09.455,2.357,2.357,0,0,0-.535,1.3h3.141v-.181a1.681,1.681,0,0,0-.406-1.165A1.456,1.456,0,0,0,97.6,10.211Zm7.094-1.664.07.977a2.951,2.951,0,0,1,2.43-1.133,2.453,2.453,0,0,1,2,.789,3.682,3.682,0,0,1,.672,2.359V17h-2.258V11.594a1.465,1.465,0,0,0-.312-1.043,1.4,1.4,0,0,0-1.039-.324,1.553,1.553,0,0,0-1.43.813V17H102.57V8.547Zm10.4,6.789a1.481,1.481,0,0,0,1.016-.344,1.2,1.2,0,0,0,.406-.914h2.117a2.9,2.9,0,0,1-.469,1.574,3.093,3.093,0,0,1-1.262,1.109,3.949,3.949,0,0,1-1.77.395A3.67,3.67,0,0,1,112.273,16a4.56,4.56,0,0,1-1.047-3.184v-.148a4.508,4.508,0,0,1,1.039-3.117,3.627,3.627,0,0,1,2.852-1.164,3.555,3.555,0,0,1,2.543.9,3.2,3.2,0,0,1,.973,2.4h-2.117a1.551,1.551,0,0,0-.406-1.072,1.51,1.51,0,0,0-2.223.163,3.333,3.333,0,0,0-.4,1.866v.235a3.375,3.375,0,0,0,.4,1.878A1.377,1.377,0,0,0,115.093,15.336ZM122.3,17h-2.266V8.547H122.3Zm-2.4-10.641a1.112,1.112,0,0,1,.34-.836,1.465,1.465,0,0,1,1.848,0,1.105,1.105,0,0,1,.344.836,1.108,1.108,0,0,1-.348.844,1.448,1.448,0,0,1-1.836,0A1.108,1.108,0,0,1,119.906,6.359ZM129.062,17a2.507,2.507,0,0,1-.227-.758,2.732,2.732,0,0,1-2.133.914,3,3,0,0,1-2.059-.719,2.312,2.312,0,0,1-.816-1.812,2.389,2.389,0,0,1,1-2.062,4.915,4.915,0,0,1,2.879-.727h1.039v-.484a1.393,1.393,0,0,0-.3-.937,1.183,1.183,0,0,0-.949-.352,1.345,1.345,0,0,0-.895.273.929.929,0,0,0-.324.75h-2.258a2.268,2.268,0,0,1,.453-1.359,3,3,0,0,1,1.281-.98,4.669,4.669,0,0,1,1.859-.355,3.689,3.689,0,0,1,2.48.785,2.747,2.747,0,0,1,.918,2.207v3.664a4.041,4.041,0,0,0,.336,1.82V17Zm-1.867-1.57a1.945,1.945,0,0,0,.922-.223,1.462,1.462,0,0,0,.625-.6V13.156H127.9q-1.7,0-1.8,1.172l-.008.133a.9.9,0,0,0,.3.7A1.153,1.153,0,0,0,127.195,15.43ZM139.882,13.8l1.563-5.258h2.422l-3.4,9.766-.187.445a2.577,2.577,0,0,1-2.5,1.656,3.552,3.552,0,0,1-1-.148V18.555l.344.008a1.857,1.857,0,0,0,.957-.2,1.283,1.283,0,0,0,.5-.648l.266-.7-2.961-8.477h2.43ZM9.632,42.156A4.15,4.15,0,0,1,6.6,41.016a4.054,4.054,0,0,1-1.168-3.039v-.219a5.106,5.106,0,0,1,.492-2.277,3.612,3.612,0,0,1,1.395-1.547,3.914,3.914,0,0,1,2.059-.543,3.508,3.508,0,0,1,2.73,1.094,4.444,4.444,0,0,1,1,3.1v.922H7.726a2.1,2.1,0,0,0,.66,1.328,2,2,0,0,0,1.395.5,2.437,2.437,0,0,0,2.039-.945l1.109,1.242a3.389,3.389,0,0,1-1.375,1.121A4.511,4.511,0,0,1,9.632,42.156Zm-.258-6.945a1.411,1.411,0,0,0-1.09.455,2.357,2.357,0,0,0-.535,1.3H10.89v-.181a1.681,1.681,0,0,0-.406-1.165A1.456,1.456,0,0,0,9.374,35.211Zm8.078,4.031,1.57-5.7h2.359L18.531,42H16.374l-2.852-8.453h2.359ZM27.156,42a2.507,2.507,0,0,1-.227-.758,2.732,2.732,0,0,1-2.133.914,3,3,0,0,1-2.059-.719,2.312,2.312,0,0,1-.816-1.812,2.389,2.389,0,0,1,1-2.062,4.915,4.915,0,0,1,2.879-.727h1.039v-.484a1.393,1.393,0,0,0-.3-.937,1.183,1.183,0,0,0-.949-.352,1.345,1.345,0,0,0-.895.273.929.929,0,0,0-.324.75H22.109a2.268,2.268,0,0,1,.453-1.359,3,3,0,0,1,1.281-.98,4.669,4.669,0,0,1,1.859-.355,3.689,3.689,0,0,1,2.48.785,2.747,2.747,0,0,1,.918,2.207v3.664a4.041,4.041,0,0,0,.336,1.82V42Zm-1.867-1.57a1.945,1.945,0,0,0,.922-.223,1.462,1.462,0,0,0,.625-.6V38.156h-.844q-1.7,0-1.8,1.172l-.008.133a.9.9,0,0,0,.3.7A1.153,1.153,0,0,0,25.289,40.43ZM33.218,42H30.953V30h2.266Zm6.922-.859a2.831,2.831,0,0,1-2.312,1.016,2.67,2.67,0,0,1-2.074-.781,3.335,3.335,0,0,1-.73-2.289V33.547h2.258v5.467q0,1.322,1.2,1.322a1.63,1.63,0,0,0,1.578-.8V33.547h2.266V42H40.2ZM48.929,42a2.507,2.507,0,0,1-.227-.758,2.732,2.732,0,0,1-2.133.914,3,3,0,0,1-2.059-.719,2.312,2.312,0,0,1-.816-1.812,2.389,2.389,0,0,1,1-2.062,4.915,4.915,0,0,1,2.879-.727h1.039v-.484a1.393,1.393,0,0,0-.3-.937,1.183,1.183,0,0,0-.949-.352,1.345,1.345,0,0,0-.895.273.929.929,0,0,0-.324.75H43.882a2.268,2.268,0,0,1,.453-1.359,3,3,0,0,1,1.281-.98,4.669,4.669,0,0,1,1.859-.355,3.689,3.689,0,0,1,2.48.785,2.747,2.747,0,0,1,.918,2.207v3.664a4.041,4.041,0,0,0,.336,1.82V42Zm-1.867-1.57a1.945,1.945,0,0,0,.922-.223,1.462,1.462,0,0,0,.625-.6V38.156h-.844q-1.7,0-1.8,1.172l-.008.133a.9.9,0,0,0,.3.7A1.153,1.153,0,0,0,47.062,40.43Zm9.063-.094a1.481,1.481,0,0,0,1.016-.344,1.2,1.2,0,0,0,.406-.914h2.117a2.9,2.9,0,0,1-.469,1.574,3.093,3.093,0,0,1-1.262,1.109,3.949,3.949,0,0,1-1.77.395A3.67,3.67,0,0,1,53.3,41a4.56,4.56,0,0,1-1.047-3.184v-.148A4.508,4.508,0,0,1,53.3,34.555a3.627,3.627,0,0,1,2.852-1.164,3.555,3.555,0,0,1,2.543.9,3.2,3.2,0,0,1,.973,2.4H57.546a1.551,1.551,0,0,0-.406-1.072,1.51,1.51,0,0,0-2.223.163,3.333,3.333,0,0,0-.4,1.866v.235a3.375,3.375,0,0,0,.4,1.878A1.377,1.377,0,0,0,56.124,40.336ZM63.335,42H61.07V33.547h2.266Zm-2.4-10.641a1.112,1.112,0,0,1,.34-.836,1.465,1.465,0,0,1,1.848,0,1.193,1.193,0,0,1,0,1.68,1.448,1.448,0,0,1-1.836,0A1.108,1.108,0,0,1,60.937,31.359ZM64.843,37.7a5.013,5.013,0,0,1,.484-2.242,3.546,3.546,0,0,1,1.395-1.523,4.069,4.069,0,0,1,2.113-.539,3.849,3.849,0,0,1,2.793,1.047,4.2,4.2,0,0,1,1.207,2.844l.016.578a4.418,4.418,0,0,1-1.086,3.121,4.209,4.209,0,0,1-5.832,0,4.5,4.5,0,0,1-1.09-3.187Zm2.258.16a3.16,3.16,0,0,0,.453,1.843,1.628,1.628,0,0,0,2.578.008,3.457,3.457,0,0,0,.461-2.015,3.128,3.128,0,0,0-.461-1.831,1.5,1.5,0,0,0-1.3-.649,1.474,1.474,0,0,0-1.281.646A3.516,3.516,0,0,0,67.1,37.856ZM69.281,30h2.461l-2.164,2.422H67.742Zm7.039,3.547.07.977a2.951,2.951,0,0,1,2.43-1.133,2.453,2.453,0,0,1,2,.789,3.682,3.682,0,0,1,.672,2.359V42H79.234V36.594a1.465,1.465,0,0,0-.312-1.043,1.4,1.4,0,0,0-1.039-.324,1.553,1.553,0,0,0-1.43.813V42H74.195V33.547Zm10.516,4.164a5.094,5.094,0,0,1,.887-3.148,2.877,2.877,0,0,1,2.426-1.172,2.589,2.589,0,0,1,2.039.922V30h2.266V42H92.414l-.109-.9a2.657,2.657,0,0,1-2.172,1.055,2.869,2.869,0,0,1-2.395-1.176A5.258,5.258,0,0,1,86.835,37.711Zm2.258.168a3.337,3.337,0,0,0,.414,1.823,1.349,1.349,0,0,0,1.2.634,1.511,1.511,0,0,0,1.477-.884V36.111a1.489,1.489,0,0,0-1.461-.884Q89.093,35.227,89.093,37.879Zm11,4.277a4.15,4.15,0,0,1-3.027-1.141A4.054,4.054,0,0,1,95.9,37.977v-.219a5.106,5.106,0,0,1,.492-2.277,3.612,3.612,0,0,1,1.395-1.547,3.914,3.914,0,0,1,2.059-.543,3.508,3.508,0,0,1,2.73,1.094,4.444,4.444,0,0,1,1,3.1v.922H98.187a2.1,2.1,0,0,0,.66,1.328,2,2,0,0,0,1.395.5,2.437,2.437,0,0,0,2.039-.945l1.109,1.242a3.389,3.389,0,0,1-1.375,1.121A4.511,4.511,0,0,1,100.093,42.156Zm-.258-6.945a1.411,1.411,0,0,0-1.09.455,2.357,2.357,0,0,0-.535,1.3h3.141v-.181a1.681,1.681,0,0,0-.406-1.165A1.456,1.456,0,0,0,99.835,35.211ZM113.734,42a2.507,2.507,0,0,1-.227-.758,2.732,2.732,0,0,1-2.133.914,3,3,0,0,1-2.059-.719,2.312,2.312,0,0,1-.816-1.812,2.389,2.389,0,0,1,1-2.062,4.915,4.915,0,0,1,2.879-.727h1.039v-.484a1.393,1.393,0,0,0-.3-.937,1.183,1.183,0,0,0-.949-.352,1.345,1.345,0,0,0-.895.273.929.929,0,0,0-.324.75h-2.258a2.268,2.268,0,0,1,.453-1.359,3,3,0,0,1,1.281-.98,4.669,4.669,0,0,1,1.859-.355,3.689,3.689,0,0,1,2.48.785,2.747,2.747,0,0,1,.918,2.207v3.664a4.041,4.041,0,0,0,.336,1.82V42Zm-1.867-1.57a1.945,1.945,0,0,0,.922-.223,1.462,1.462,0,0,0,.625-.6V38.156h-.844q-1.7,0-1.8,1.172l-.008.133a.9.9,0,0,0,.3.7A1.153,1.153,0,0,0,111.867,40.43Zm10.609.711a2.831,2.831,0,0,1-2.312,1.016,2.67,2.67,0,0,1-2.074-.781,3.335,3.335,0,0,1-.73-2.289V33.547h2.258v5.467q0,1.322,1.2,1.322a1.63,1.63,0,0,0,1.578-.8V33.547h2.266V42h-2.125Zm3.539-3.43a5.094,5.094,0,0,1,.887-3.148,2.877,2.877,0,0,1,2.426-1.172,2.589,2.589,0,0,1,2.039.922V30h2.266V42h-2.039l-.109-.9a2.657,2.657,0,0,1-2.172,1.055,2.869,2.869,0,0,1-2.395-1.176A5.258,5.258,0,0,1,126.015,37.711Zm2.258.168a3.337,3.337,0,0,0,.414,1.823,1.349,1.349,0,0,0,1.2.634,1.511,1.511,0,0,0,1.477-.884V36.111a1.489,1.489,0,0,0-1.461-.884Q128.273,35.227,128.273,37.879ZM137.765,42H135.5V33.547h2.266Zm-2.4-10.641a1.112,1.112,0,0,1,.34-.836,1.465,1.465,0,0,1,1.848,0,1.193,1.193,0,0,1,0,1.68,1.448,1.448,0,0,1-1.836,0A1.109,1.109,0,0,1,135.367,31.359Zm6.961.109v2.078h1.445V35.2h-1.445v4.219a1.007,1.007,0,0,0,.18.672.9.9,0,0,0,.688.2,3.6,3.6,0,0,0,.664-.055v1.711a4.648,4.648,0,0,1-1.367.2,2.156,2.156,0,0,1-2.422-2.4V35.2h-1.234V33.547h1.234V31.469Zm2.117,6.227a5.013,5.013,0,0,1,.484-2.242,3.546,3.546,0,0,1,1.395-1.523,4.069,4.069,0,0,1,2.113-.539,3.849,3.849,0,0,1,2.793,1.047,4.2,4.2,0,0,1,1.207,2.844l.016.578a4.418,4.418,0,0,1-1.086,3.121,4.209,4.209,0,0,1-5.832,0,4.5,4.5,0,0,1-1.09-3.187Zm2.258.16a3.16,3.16,0,0,0,.453,1.843,1.628,1.628,0,0,0,2.578.008,3.457,3.457,0,0,0,.461-2.015,3.128,3.128,0,0,0-.461-1.831,1.5,1.5,0,0,0-1.3-.649,1.474,1.474,0,0,0-1.281.646A3.516,3.516,0,0,0,146.7,37.856Zm11.891-2.192a6.134,6.134,0,0,0-.812-.062,1.654,1.654,0,0,0-1.68.867V42h-2.258V33.547h2.133l.063,1.008a2.092,2.092,0,0,1,1.883-1.164,2.366,2.366,0,0,1,.7.1Zm4.977,6.492a4.15,4.15,0,0,1-3.027-1.141,4.054,4.054,0,0,1-1.168-3.039v-.219a5.106,5.106,0,0,1,.492-2.277,3.612,3.612,0,0,1,1.395-1.547,3.914,3.914,0,0,1,2.059-.543,3.508,3.508,0,0,1,2.73,1.094,4.444,4.444,0,0,1,1,3.1v.922h-5.383a2.1,2.1,0,0,0,.66,1.328,2,2,0,0,0,1.395.5,2.437,2.437,0,0,0,2.039-.945l1.109,1.242a3.389,3.389,0,0,1-1.375,1.121A4.511,4.511,0,0,1,163.57,42.156Zm-.258-6.945a1.411,1.411,0,0,0-1.09.455,2.357,2.357,0,0,0-.535,1.3h3.141v-.181a1.681,1.681,0,0,0-.406-1.165A1.456,1.456,0,0,0,163.312,35.211Zm9.594,4.453a.727.727,0,0,0-.41-.652,4.659,4.659,0,0,0-1.316-.426q-3.016-.633-3.016-2.562a2.323,2.323,0,0,1,.934-1.879,3.766,3.766,0,0,1,2.441-.754,4.053,4.053,0,0,1,2.574.758,2.388,2.388,0,0,1,.965,1.969H172.82a1.092,1.092,0,0,0-.312-.8,1.322,1.322,0,0,0-.977-.316,1.351,1.351,0,0,0-.883.258.814.814,0,0,0-.312.656.7.7,0,0,0,.355.605,3.657,3.657,0,0,0,1.2.4,9.8,9.8,0,0,1,1.422.379A2.336,2.336,0,0,1,175.1,39.57a2.205,2.205,0,0,1-.992,1.871,4.28,4.28,0,0,1-2.562.715,4.47,4.47,0,0,1-1.887-.379,3.166,3.166,0,0,1-1.293-1.039,2.414,2.414,0,0,1-.469-1.426h2.141a1.179,1.179,0,0,0,.445.922,1.766,1.766,0,0,0,1.109.32,1.635,1.635,0,0,0,.98-.246A.766.766,0,0,0,172.906,39.664Z" transform="translate(1119.561 2049.282)" fill="#12263f"/>
    <path id="Trazado_210458" data-name="Trazado 210458" d="M29.6,14.016A1.2,1.2,0,0,0,29.128,13a6.148,6.148,0,0,0-1.687-.75,11.963,11.963,0,0,1-1.93-.777,3.153,3.153,0,0,1-1.937-2.82A2.747,2.747,0,0,1,24.092,7a3.389,3.389,0,0,1,1.492-1.129,5.616,5.616,0,0,1,2.184-.406,5.112,5.112,0,0,1,2.172.441,3.458,3.458,0,0,1,1.48,1.246,3.261,3.261,0,0,1,.527,1.828H29.6a1.534,1.534,0,0,0-.492-1.215,2.023,2.023,0,0,0-1.383-.434,2.162,2.162,0,0,0-1.336.363,1.146,1.146,0,0,0-.477.957,1.1,1.1,0,0,0,.559.93,6.311,6.311,0,0,0,1.645.7,7.106,7.106,0,0,1,2.914,1.492A2.972,2.972,0,0,1,31.948,14a2.737,2.737,0,0,1-1.117,2.316,4.891,4.891,0,0,1-3.008.84,5.808,5.808,0,0,1-2.391-.48,3.783,3.783,0,0,1-1.645-1.316,3.371,3.371,0,0,1-.566-1.937h2.352q0,1.883,2.25,1.883a2.189,2.189,0,0,0,1.3-.34A1.106,1.106,0,0,0,29.6,14.016Zm7.68,3.141a4.15,4.15,0,0,1-3.027-1.141,4.054,4.054,0,0,1-1.168-3.039v-.219a5.106,5.106,0,0,1,.492-2.277,3.612,3.612,0,0,1,1.395-1.547,3.914,3.914,0,0,1,2.059-.543,3.508,3.508,0,0,1,2.73,1.094,4.444,4.444,0,0,1,1,3.1v.922H35.37a2.1,2.1,0,0,0,.66,1.328,2,2,0,0,0,1.395.5,2.437,2.437,0,0,0,2.039-.945l1.109,1.242A3.389,3.389,0,0,1,39.2,16.754,4.511,4.511,0,0,1,37.276,17.156Zm-.258-6.945a1.411,1.411,0,0,0-1.09.455,2.357,2.357,0,0,0-.535,1.3h3.141v-.181a1.681,1.681,0,0,0-.406-1.165A1.456,1.456,0,0,0,37.018,10.211Zm4.688,2.5a4.954,4.954,0,0,1,.926-3.133,3,3,0,0,1,2.5-1.187,2.631,2.631,0,0,1,2.164.953l.094-.8h2.047v8.172a3.613,3.613,0,0,1-.5,1.93A3.236,3.236,0,0,1,47.51,19.9a4.985,4.985,0,0,1-2.141.43,4.635,4.635,0,0,1-1.812-.371A3.217,3.217,0,0,1,42.221,19l1-1.375a2.645,2.645,0,0,0,2.047.945,1.936,1.936,0,0,0,1.4-.48,1.8,1.8,0,0,0,.5-1.363v-.453a2.612,2.612,0,0,1-2.055.883,2.992,2.992,0,0,1-2.465-1.191,4.953,4.953,0,0,1-.941-3.16Zm2.258.168a3.085,3.085,0,0,0,.461,1.8,1.466,1.466,0,0,0,1.266.653,1.568,1.568,0,0,0,1.477-.775V11a1.564,1.564,0,0,0-1.461-.775,1.476,1.476,0,0,0-1.277.665A3.477,3.477,0,0,0,43.963,12.879Zm12.266,3.262a2.831,2.831,0,0,1-2.312,1.016,2.67,2.67,0,0,1-2.074-.781,3.335,3.335,0,0,1-.73-2.289V8.547H53.37v5.467q0,1.322,1.2,1.322a1.63,1.63,0,0,0,1.578-.8V8.547h2.266V17H56.292ZM62.5,17H60.237V8.547H62.5ZM60.1,6.359a1.112,1.112,0,0,1,.34-.836,1.465,1.465,0,0,1,1.848,0,1.105,1.105,0,0,1,.344.836,1.108,1.108,0,0,1-.348.844,1.448,1.448,0,0,1-1.836,0A1.108,1.108,0,0,1,60.1,6.359Zm6.375,2.188.07.945a2.971,2.971,0,0,1,2.43-1.1A2.255,2.255,0,0,1,71.221,9.68,2.9,2.9,0,0,1,73.76,8.391a2.521,2.521,0,0,1,2.047.8,3.681,3.681,0,0,1,.672,2.41V17H74.213V11.609a1.61,1.61,0,0,0-.281-1.051,1.246,1.246,0,0,0-.992-.332,1.409,1.409,0,0,0-1.406.969l.008,5.8H69.284V11.617a1.59,1.59,0,0,0-.289-1.062,1.259,1.259,0,0,0-.984-.328,1.463,1.463,0,0,0-1.391.8V17H64.362V8.547ZM80.6,17H78.331V8.547H80.6ZM78.2,6.359a1.112,1.112,0,0,1,.34-.836,1.465,1.465,0,0,1,1.848,0,1.105,1.105,0,0,1,.344.836,1.108,1.108,0,0,1-.348.844,1.448,1.448,0,0,1-1.836,0A1.108,1.108,0,0,1,78.2,6.359Zm8.148,10.8a4.15,4.15,0,0,1-3.027-1.141,4.054,4.054,0,0,1-1.168-3.039v-.219a5.106,5.106,0,0,1,.492-2.277,3.612,3.612,0,0,1,1.395-1.547A3.914,3.914,0,0,1,86.1,8.391a3.508,3.508,0,0,1,2.73,1.094,4.444,4.444,0,0,1,1,3.1v.922H84.44a2.1,2.1,0,0,0,.66,1.328,2,2,0,0,0,1.395.5,2.437,2.437,0,0,0,2.039-.945l1.109,1.242a3.389,3.389,0,0,1-1.375,1.121A4.511,4.511,0,0,1,86.346,17.156Zm-.258-6.945a1.411,1.411,0,0,0-1.09.455,2.357,2.357,0,0,0-.535,1.3H87.6v-.181a1.681,1.681,0,0,0-.406-1.165A1.456,1.456,0,0,0,86.088,10.211Zm7.094-1.664.07.977a2.951,2.951,0,0,1,2.43-1.133,2.453,2.453,0,0,1,2,.789,3.682,3.682,0,0,1,.672,2.359V17H96.1V11.594a1.465,1.465,0,0,0-.312-1.043,1.4,1.4,0,0,0-1.039-.324,1.553,1.553,0,0,0-1.43.813V17H91.057V8.547Zm9.586-2.078V8.547h1.445V10.2h-1.445v4.219a1.007,1.007,0,0,0,.18.672.9.9,0,0,0,.688.2,3.6,3.6,0,0,0,.664-.055v1.711a4.648,4.648,0,0,1-1.367.2,2.156,2.156,0,0,1-2.422-2.4V10.2H99.276V8.547h1.234V6.469Zm2.117,6.227a5.013,5.013,0,0,1,.484-2.242,3.546,3.546,0,0,1,1.395-1.523,4.069,4.069,0,0,1,2.113-.539,3.849,3.849,0,0,1,2.793,1.047,4.2,4.2,0,0,1,1.207,2.844l.016.578a4.418,4.418,0,0,1-1.086,3.121,4.209,4.209,0,0,1-5.832,0,4.5,4.5,0,0,1-1.09-3.187Zm2.258.16A3.16,3.16,0,0,0,107.6,14.7a1.628,1.628,0,0,0,2.578.008,3.457,3.457,0,0,0,.461-2.015,3.128,3.128,0,0,0-.461-1.831,1.5,1.5,0,0,0-1.3-.649,1.474,1.474,0,0,0-1.281.646A3.516,3.516,0,0,0,107.143,12.856Zm10.773-.145a5.094,5.094,0,0,1,.887-3.148,2.877,2.877,0,0,1,2.426-1.172,2.589,2.589,0,0,1,2.039.922V5h2.266V17h-2.039l-.109-.9a2.657,2.657,0,0,1-2.172,1.055,2.869,2.869,0,0,1-2.395-1.176A5.258,5.258,0,0,1,117.917,12.711Zm2.258.168a3.337,3.337,0,0,0,.414,1.823,1.349,1.349,0,0,0,1.2.634,1.511,1.511,0,0,0,1.477-.884V11.111a1.489,1.489,0,0,0-1.461-.884Q120.174,10.227,120.174,12.879Zm11,4.277a4.15,4.15,0,0,1-3.027-1.141,4.054,4.054,0,0,1-1.168-3.039v-.219a5.106,5.106,0,0,1,.492-2.277,3.612,3.612,0,0,1,1.395-1.547,3.914,3.914,0,0,1,2.059-.543,3.508,3.508,0,0,1,2.73,1.094,4.444,4.444,0,0,1,1,3.1v.922h-5.383a2.1,2.1,0,0,0,.66,1.328,2,2,0,0,0,1.395.5,2.437,2.437,0,0,0,2.039-.945l1.109,1.242a3.389,3.389,0,0,1-1.375,1.121A4.511,4.511,0,0,1,131.174,17.156Zm-.258-6.945a1.411,1.411,0,0,0-1.09.455,2.357,2.357,0,0,0-.535,1.3h3.141v-.181a1.681,1.681,0,0,0-.406-1.165A1.456,1.456,0,0,0,130.917,10.211Zm7.4,6.789h-2.266V5h2.266ZM54.8,37.852a5.07,5.07,0,0,1-.887,3.129,2.843,2.843,0,0,1-2.395,1.176,2.633,2.633,0,0,1-2.07-.891V45.25H47.186v-11.7H49.28l.078.828a2.654,2.654,0,0,1,2.141-.984,2.862,2.862,0,0,1,2.43,1.156,5.207,5.207,0,0,1,.867,3.188Zm-2.258-.164a3.327,3.327,0,0,0-.418-1.82,1.361,1.361,0,0,0-1.215-.641,1.478,1.478,0,0,0-1.461.813V39.5a1.5,1.5,0,0,0,1.477.836Q52.538,40.336,52.538,37.688Zm8.406-2.023a6.134,6.134,0,0,0-.812-.062,1.654,1.654,0,0,0-1.68.867V42H56.194V33.547h2.133l.063,1.008a2.092,2.092,0,0,1,1.883-1.164,2.366,2.366,0,0,1,.7.1ZM61.4,37.7a5.013,5.013,0,0,1,.484-2.242,3.546,3.546,0,0,1,1.395-1.523,4.069,4.069,0,0,1,2.113-.539,3.849,3.849,0,0,1,2.793,1.047,4.2,4.2,0,0,1,1.207,2.844l.016.578a4.418,4.418,0,0,1-1.086,3.121,4.209,4.209,0,0,1-5.832,0A4.5,4.5,0,0,1,61.4,37.8Zm2.258.16a3.16,3.16,0,0,0,.453,1.843,1.628,1.628,0,0,0,2.578.008,3.457,3.457,0,0,0,.461-2.015,3.128,3.128,0,0,0-.461-1.831,1.5,1.5,0,0,0-1.3-.649,1.474,1.474,0,0,0-1.281.646A3.516,3.516,0,0,0,63.655,37.856Zm6.812-.145a4.954,4.954,0,0,1,.926-3.133,3,3,0,0,1,2.5-1.187,2.631,2.631,0,0,1,2.164.953l.094-.8h2.047v8.172a3.613,3.613,0,0,1-.5,1.93,3.236,3.236,0,0,1-1.418,1.25,4.985,4.985,0,0,1-2.141.43,4.635,4.635,0,0,1-1.812-.371A3.217,3.217,0,0,1,70.983,44l1-1.375a2.645,2.645,0,0,0,2.047.945,1.936,1.936,0,0,0,1.4-.48,1.8,1.8,0,0,0,.5-1.363v-.453a2.612,2.612,0,0,1-2.055.883,2.992,2.992,0,0,1-2.465-1.191,4.953,4.953,0,0,1-.941-3.16Zm2.258.168a3.085,3.085,0,0,0,.461,1.8,1.466,1.466,0,0,0,1.266.653,1.568,1.568,0,0,0,1.477-.775V36a1.564,1.564,0,0,0-1.461-.775,1.476,1.476,0,0,0-1.277.665A3.477,3.477,0,0,0,72.725,37.879Zm11.953-2.215a6.134,6.134,0,0,0-.812-.062,1.654,1.654,0,0,0-1.68.867V42H79.928V33.547h2.133l.063,1.008a2.092,2.092,0,0,1,1.883-1.164,2.366,2.366,0,0,1,.7.1ZM90.428,42a2.507,2.507,0,0,1-.227-.758,2.732,2.732,0,0,1-2.133.914,3,3,0,0,1-2.059-.719,2.312,2.312,0,0,1-.816-1.812,2.389,2.389,0,0,1,1-2.062,4.915,4.915,0,0,1,2.879-.727h1.039v-.484a1.393,1.393,0,0,0-.3-.937,1.183,1.183,0,0,0-.949-.352,1.345,1.345,0,0,0-.895.273.929.929,0,0,0-.324.75H85.381a2.268,2.268,0,0,1,.453-1.359,3,3,0,0,1,1.281-.98,4.669,4.669,0,0,1,1.859-.355,3.689,3.689,0,0,1,2.48.785,2.747,2.747,0,0,1,.918,2.207v3.664a4.041,4.041,0,0,0,.336,1.82V42Zm-1.867-1.57a1.945,1.945,0,0,0,.922-.223,1.462,1.462,0,0,0,.625-.6V38.156h-.844q-1.7,0-1.8,1.172l-.008.133a.9.9,0,0,0,.3.7A1.153,1.153,0,0,0,88.561,40.43Zm7.664-6.883.07.945a2.971,2.971,0,0,1,2.43-1.1,2.255,2.255,0,0,1,2.242,1.289,2.9,2.9,0,0,1,2.539-1.289,2.521,2.521,0,0,1,2.047.8,3.681,3.681,0,0,1,.672,2.41V42H103.96V36.609a1.61,1.61,0,0,0-.281-1.051,1.246,1.246,0,0,0-.992-.332,1.409,1.409,0,0,0-1.406.969l.008,5.8H99.03V36.617a1.59,1.59,0,0,0-.289-1.062,1.259,1.259,0,0,0-.984-.328,1.463,1.463,0,0,0-1.391.8V42H94.108V33.547ZM112.858,42a2.507,2.507,0,0,1-.227-.758,2.732,2.732,0,0,1-2.133.914,3,3,0,0,1-2.059-.719,2.312,2.312,0,0,1-.816-1.812,2.389,2.389,0,0,1,1-2.062,4.915,4.915,0,0,1,2.879-.727h1.039v-.484a1.393,1.393,0,0,0-.3-.937,1.183,1.183,0,0,0-.949-.352,1.345,1.345,0,0,0-.895.273.929.929,0,0,0-.324.75h-2.258a2.268,2.268,0,0,1,.453-1.359,3,3,0,0,1,1.281-.98,4.669,4.669,0,0,1,1.859-.355,3.689,3.689,0,0,1,2.48.785,2.747,2.747,0,0,1,.918,2.207v3.664a4.041,4.041,0,0,0,.336,1.82V42Zm-1.867-1.57a1.945,1.945,0,0,0,.922-.223,1.462,1.462,0,0,0,.625-.6V38.156h-.844q-1.7,0-1.8,1.172l-.008.133a.9.9,0,0,0,.3.7A1.153,1.153,0,0,0,110.991,40.43Z" transform="translate(832.353 2140.5)" fill="#12263f"/>
    <g id="lista" transform="translate(767.211 2144.365)">
      <g id="Grupo_873626" data-name="Grupo 873626" transform="translate(0)">
        <g id="Grupo_873625" data-name="Grupo 873625">
          <path id="Trazado_210020" data-name="Trazado 210020" d="M60.5,26.614a3.394,3.394,0,0,0-3.017-2,2.829,2.829,0,0,0-2.107.937l-.408.431V5.53a3.045,3.045,0,0,0-3.088-2.993h-5.4V.806A.819.819,0,0,0,45.641,0H31.1a.819.819,0,0,0-.832.806V2.537h-5.4A3.045,3.045,0,0,0,21.772,5.53V38.275a3.045,3.045,0,0,0,3.088,2.993H51.877a3.045,3.045,0,0,0,3.088-2.993V34.811L59.906,29.6A2.628,2.628,0,0,0,60.5,26.614Zm-28.57-25H44.809v.925H31.928ZM51.877,39.656H24.86a1.405,1.405,0,0,1-1.425-1.381V5.53A1.405,1.405,0,0,1,24.86,4.149H51.877A1.405,1.405,0,0,1,53.3,5.53v22.2l-1.611,1.7V7.2a.819.819,0,0,0-.832-.806H25.878a.819.819,0,0,0-.832.806v29.41a.819.819,0,0,0,.832.806H45.521l1.208.913a4.147,4.147,0,0,0,2.494.982,4.035,4.035,0,0,0,2.93-1.531L53.3,36.566v1.709h0A1.405,1.405,0,0,1,51.877,39.656ZM43.537,35.8H26.709V8H50.028V31.187l-1.135,1.2-.9-.678a3.64,3.64,0,0,0-2.606-1.2A2.843,2.843,0,0,0,42.7,32.353,3.31,3.31,0,0,0,43.537,35.8ZM58.7,28.487l-.015.015-7.761,8.184c-.858.9-1.384,1.009-1.706,1.009a2.576,2.576,0,0,1-1.471-.642l-2.56-1.935a2.048,2.048,0,0,1-.927-2.214,1.2,1.2,0,0,1,1.126-.788,2.082,2.082,0,0,1,1.44.738.822.822,0,0,0,.095.084l1.551,1.172a.851.851,0,0,0,1.124-.09l7-7.387a1.175,1.175,0,0,1,.877-.411,1.737,1.737,0,0,1,1.486,1.018A1.046,1.046,0,0,1,58.7,28.487Z" transform="translate(-21.772 0)" fill="#451e8f"/>
        </g>
      </g>
      <g id="Grupo_873628" data-name="Grupo 873628" transform="translate(11.527 11.312)">
        <g id="Grupo_873627" data-name="Grupo 873627">
          <path id="Trazado_210021" data-name="Trazado 210021" d="M173.345,140.346H161.215a.806.806,0,1,0,0,1.612h12.131a.806.806,0,1,0,0-1.612Z" transform="translate(-160.383 -140.346)" fill="#451e8f"/>
        </g>
      </g>
      <g id="Grupo_873630" data-name="Grupo 873630" transform="translate(8.89 11.312)">
        <g id="Grupo_873629" data-name="Grupo 873629">
          <path id="Trazado_210022" data-name="Trazado 210022" d="M129.652,140.346h-.146a.806.806,0,1,0,0,1.612h.146a.806.806,0,1,0,0-1.612Z" transform="translate(-128.674 -140.346)" fill="#451e8f"/>
        </g>
      </g>
      <g id="Grupo_873632" data-name="Grupo 873632" transform="translate(13.482 16.525)">
        <g id="Grupo_873631" data-name="Grupo 873631">
          <path id="Trazado_210023" data-name="Trazado 210023" d="M194.891,205.02H184.715a.806.806,0,1,0,0,1.612h10.176a.806.806,0,1,0,0-1.612Z" transform="translate(-183.883 -205.02)" fill="#451e8f"/>
        </g>
      </g>
      <g id="Grupo_873634" data-name="Grupo 873634" transform="translate(11.86 21.754)">
        <g id="Grupo_873633" data-name="Grupo 873633">
          <path id="Trazado_210024" data-name="Trazado 210024" d="M177.013,269.9h-11.8a.806.806,0,1,0,0,1.612h11.8a.806.806,0,1,0,0-1.612Z" transform="translate(-164.383 -269.904)" fill="#451e8f"/>
        </g>
      </g>
      <g id="Grupo_873636" data-name="Grupo 873636" transform="translate(8.89 21.754)">
        <g id="Grupo_873635" data-name="Grupo 873635">
          <path id="Trazado_210025" data-name="Trazado 210025" d="M129.652,269.9h-.146a.806.806,0,1,0,0,1.612h.146a.806.806,0,1,0,0-1.612Z" transform="translate(-128.674 -269.904)" fill="#451e8f"/>
        </g>
      </g>
      <g id="Grupo_873638" data-name="Grupo 873638" transform="translate(13.482 26.967)">
        <g id="Grupo_873637" data-name="Grupo 873637">
          <path id="Trazado_210026" data-name="Trazado 210026" d="M194.891,334.578H184.715a.806.806,0,1,0,0,1.612h10.176a.806.806,0,1,0,0-1.612Z" transform="translate(-183.883 -334.578)" fill="#451e8f"/>
        </g>
      </g>
    </g>
    <g id="Grupo_873639" data-name="Grupo 873639" transform="translate(726.117 1956.482)">
      <path id="Trazado_210003-5" data-name="Trazado 210003" d="M256.669,110.561H49.9C22.34,110.561,0,85.811,0,55.28S22.34,0,49.9,0H256.669c27.558,0,49.9,24.75,49.9,55.28s-22.34,55.281-49.9,55.281" transform="translate(0)" fill="#ceb7f9"/>
      <g id="Grupo_873603-3" data-name="Grupo 873603" transform="translate(11.445 8.82)" clip-path="url(#clip-path-2)">
        <rect id="Rectángulo_67204-3" data-name="Rectángulo 67204" width="95.874" height="92.921" transform="translate(0 0)" fill="#fff"/>
      </g>
      <path id="Trazado_210005-3" data-name="Trazado 210005" d="M60.35,92.148c20.152,0,36.489-15.834,36.489-35.365S80.5,21.417,60.35,21.417,23.861,37.251,23.861,56.782,40.2,92.148,60.35,92.148" transform="translate(-0.969 -1.502)" fill="#ceb7f9"/>
    </g>
    <path id="Trazado_210454" data-name="Trazado 210454" d="M6.672,17H4.328V5.625H6.672Zm4.141-8.453.07.945a2.971,2.971,0,0,1,2.43-1.1A2.255,2.255,0,0,1,15.555,9.68a2.9,2.9,0,0,1,2.539-1.289,2.521,2.521,0,0,1,2.047.8,3.681,3.681,0,0,1,.672,2.41V17H18.547V11.609a1.61,1.61,0,0,0-.281-1.051,1.246,1.246,0,0,0-.992-.332,1.409,1.409,0,0,0-1.406.969l.008,5.8H13.617V11.617a1.59,1.59,0,0,0-.289-1.062,1.259,1.259,0,0,0-.984-.328,1.463,1.463,0,0,0-1.391.8V17H8.7V8.547Zm19.344,4.3a5.07,5.07,0,0,1-.887,3.129,2.843,2.843,0,0,1-2.395,1.176,2.633,2.633,0,0,1-2.07-.891V20.25H22.547V8.547h2.094l.078.828a2.654,2.654,0,0,1,2.141-.984,2.862,2.862,0,0,1,2.43,1.156,5.207,5.207,0,0,1,.867,3.188ZM27.9,12.688a3.327,3.327,0,0,0-.418-1.82,1.361,1.361,0,0,0-1.215-.641,1.478,1.478,0,0,0-1.461.813V14.5a1.5,1.5,0,0,0,1.477.836Q27.9,15.336,27.9,12.688ZM33.938,17H31.672V5h2.266Zm5.75.156a4.15,4.15,0,0,1-3.027-1.141,4.054,4.054,0,0,1-1.168-3.039v-.219a5.106,5.106,0,0,1,.492-2.277,3.612,3.612,0,0,1,1.395-1.547,3.914,3.914,0,0,1,2.059-.543,3.508,3.508,0,0,1,2.73,1.094,4.444,4.444,0,0,1,1,3.1v.922H37.782a2.1,2.1,0,0,0,.66,1.328,2,2,0,0,0,1.395.5,2.437,2.437,0,0,0,2.039-.945l1.109,1.242a3.389,3.389,0,0,1-1.375,1.121A4.511,4.511,0,0,1,39.688,17.156Zm-.258-6.945a1.411,1.411,0,0,0-1.09.455,2.357,2.357,0,0,0-.535,1.3h3.141v-.181a1.681,1.681,0,0,0-.406-1.165A1.456,1.456,0,0,0,39.43,10.211Zm7.133-1.664.07.945a2.971,2.971,0,0,1,2.43-1.1A2.255,2.255,0,0,1,51.3,9.68a2.9,2.9,0,0,1,2.539-1.289,2.521,2.521,0,0,1,2.047.8,3.681,3.681,0,0,1,.672,2.41V17H54.3V11.609a1.61,1.61,0,0,0-.281-1.051,1.246,1.246,0,0,0-.992-.332,1.409,1.409,0,0,0-1.406.969l.008,5.8H49.367V11.617a1.59,1.59,0,0,0-.289-1.062,1.259,1.259,0,0,0-.984-.328,1.463,1.463,0,0,0-1.391.8V17H44.446V8.547Zm15.625,8.609a4.15,4.15,0,0,1-3.027-1.141,4.054,4.054,0,0,1-1.168-3.039v-.219a5.106,5.106,0,0,1,.492-2.277,3.612,3.612,0,0,1,1.395-1.547,3.914,3.914,0,0,1,2.059-.543,3.508,3.508,0,0,1,2.73,1.094,4.444,4.444,0,0,1,1,3.1v.922H60.282a2.1,2.1,0,0,0,.66,1.328,2,2,0,0,0,1.395.5,2.437,2.437,0,0,0,2.039-.945l1.109,1.242a3.389,3.389,0,0,1-1.375,1.121A4.511,4.511,0,0,1,62.188,17.156Zm-.258-6.945a1.411,1.411,0,0,0-1.09.455,2.357,2.357,0,0,0-.535,1.3h3.141v-.181a1.681,1.681,0,0,0-.406-1.165A1.456,1.456,0,0,0,61.93,10.211Zm7.094-1.664.07.977a2.951,2.951,0,0,1,2.43-1.133,2.453,2.453,0,0,1,2,.789,3.682,3.682,0,0,1,.672,2.359V17H71.938V11.594a1.465,1.465,0,0,0-.312-1.043,1.4,1.4,0,0,0-1.039-.324,1.553,1.553,0,0,0-1.43.813V17H66.9V8.547ZM78.61,6.469V8.547h1.445V10.2H78.61v4.219a1.007,1.007,0,0,0,.18.672.9.9,0,0,0,.688.2,3.6,3.6,0,0,0,.664-.055v1.711a4.648,4.648,0,0,1-1.367.2,2.156,2.156,0,0,1-2.422-2.4V10.2H75.117V8.547h1.234V6.469ZM86.211,17a2.507,2.507,0,0,1-.227-.758,2.732,2.732,0,0,1-2.133.914,3,3,0,0,1-2.059-.719,2.312,2.312,0,0,1-.816-1.812,2.389,2.389,0,0,1,1-2.062,4.915,4.915,0,0,1,2.879-.727h1.039v-.484a1.393,1.393,0,0,0-.3-.937,1.183,1.183,0,0,0-.949-.352,1.345,1.345,0,0,0-.895.273.929.929,0,0,0-.324.75H81.164a2.268,2.268,0,0,1,.453-1.359,3,3,0,0,1,1.281-.98,4.669,4.669,0,0,1,1.859-.355,3.689,3.689,0,0,1,2.48.785,2.747,2.747,0,0,1,.918,2.207v3.664a4.041,4.041,0,0,0,.336,1.82V17Zm-1.867-1.57a1.945,1.945,0,0,0,.922-.223,1.462,1.462,0,0,0,.625-.6V13.156h-.844q-1.7,0-1.8,1.172l-.008.133a.9.9,0,0,0,.3.7A1.153,1.153,0,0,0,84.344,15.43Zm9.063-.094a1.481,1.481,0,0,0,1.016-.344,1.2,1.2,0,0,0,.406-.914h2.117a2.9,2.9,0,0,1-.469,1.574,3.093,3.093,0,0,1-1.262,1.109,3.949,3.949,0,0,1-1.77.395A3.67,3.67,0,0,1,90.586,16a4.56,4.56,0,0,1-1.047-3.184v-.148a4.508,4.508,0,0,1,1.039-3.117A3.627,3.627,0,0,1,93.43,8.391a3.555,3.555,0,0,1,2.543.9,3.2,3.2,0,0,1,.973,2.4H94.828a1.551,1.551,0,0,0-.406-1.072,1.51,1.51,0,0,0-2.223.163,3.333,3.333,0,0,0-.4,1.866v.235a3.375,3.375,0,0,0,.4,1.878A1.377,1.377,0,0,0,93.407,15.336ZM100.617,17H98.352V8.547h2.266Zm-2.4-10.641a1.112,1.112,0,0,1,.34-.836,1.465,1.465,0,0,1,1.848,0,1.105,1.105,0,0,1,.344.836,1.108,1.108,0,0,1-.348.844,1.448,1.448,0,0,1-1.836,0A1.108,1.108,0,0,1,98.219,6.359Zm3.906,6.336a5.013,5.013,0,0,1,.484-2.242A3.546,3.546,0,0,1,104,8.93a4.069,4.069,0,0,1,2.113-.539,3.849,3.849,0,0,1,2.793,1.047,4.2,4.2,0,0,1,1.207,2.844l.016.578a4.418,4.418,0,0,1-1.086,3.121,4.209,4.209,0,0,1-5.832,0,4.5,4.5,0,0,1-1.09-3.187Zm2.258.16a3.16,3.16,0,0,0,.453,1.843,1.628,1.628,0,0,0,2.578.008,3.457,3.457,0,0,0,.461-2.015,3.128,3.128,0,0,0-.461-1.831,1.5,1.5,0,0,0-1.3-.649,1.474,1.474,0,0,0-1.281.646A3.516,3.516,0,0,0,104.383,12.856ZM106.563,5h2.461L106.86,7.422h-1.836ZM113.6,8.547l.07.977a2.951,2.951,0,0,1,2.43-1.133,2.453,2.453,0,0,1,2,.789,3.682,3.682,0,0,1,.672,2.359V17h-2.258V11.594a1.465,1.465,0,0,0-.312-1.043,1.4,1.4,0,0,0-1.039-.324,1.553,1.553,0,0,0-1.43.813V17h-2.258V8.547Z" transform="translate(856.006 2000.264)" fill="#12263f"/>
    <g id="implementar" transform="translate(765.147 1988.13)">
      <path id="Trazado_210014" data-name="Trazado 210014" d="M3.548,121.7H35.483a.7.7,0,0,0,.71-.688V103.131H34.773v17.195H3.548a2.064,2.064,0,1,1,0-4.127H4.968a.7.7,0,0,0,.71-.688V94.878H17.032V93.5H5.677V88.688A.7.7,0,0,0,4.968,88H3.548A3.5,3.5,0,0,0,0,91.439v26.824A3.5,3.5,0,0,0,3.548,121.7ZM1.419,94.19V91.439a2.1,2.1,0,0,1,2.129-2.063h.71v25.448h-.71a3.609,3.609,0,0,0-2.129.688Zm0,0" transform="translate(0 -80.434)" fill="#451e8f"/>
      <path id="Trazado_210015" data-name="Trazado 210015" d="M89.225,192H80.71a.7.7,0,0,0-.71.688v5.5a.7.7,0,0,0,.71.688h8.516a.7.7,0,0,0,.71-.688v-2.063h2.839v-1.376H89.935v-2.063A.7.7,0,0,0,89.225,192Zm-.71,5.5h-7.1v-4.127h7.1Zm0,0" transform="translate(-72.903 -175.493)" fill="#451e8f"/>
      <path id="Trazado_210016" data-name="Trazado 210016" d="M96.322,299h8.516a.7.7,0,0,0,.71-.688v-5.5a.7.7,0,0,0-.71-.688H101.29V288H99.87v4.127H96.322a.7.7,0,0,0-.71.688v2.063H89.935v-2.063a.7.7,0,0,0-.71-.688H80.71a.7.7,0,0,0-.71.688v5.5a.7.7,0,0,0,.71.688h8.516a.7.7,0,0,0,.71-.688v-2.063h5.677v2.063A.7.7,0,0,0,96.322,299Zm.71-5.5h7.1v4.127h-7.1Zm-8.516,4.127h-7.1V293.5h7.1Zm0,0" transform="translate(-72.903 -263.239)" fill="#451e8f"/>
      <path id="Trazado_210017" data-name="Trazado 210017" d="M278.387,64a6.193,6.193,0,1,0,6.387,6.19A6.291,6.291,0,0,0,278.387,64Zm0,11a4.817,4.817,0,1,1,4.968-4.815A4.893,4.893,0,0,1,278.387,75Zm0,0" transform="translate(-247.872 -58.498)" fill="#451e8f"/>
      <path id="Trazado_210018" data-name="Trazado 210018" d="M231.418,14.444a.7.7,0,0,0,.71-.688V9.629a.7.7,0,0,0-.71-.688h-2.585a8.956,8.956,0,0,0-.561-1.314L230.1,5.859a.673.673,0,0,0,0-.974l-3.013-2.923a.725.725,0,0,0-1,0l-1.828,1.775a9.61,9.61,0,0,0-1.356-.544V.688a.7.7,0,0,0-.71-.688h-4.258a.7.7,0,0,0-.71.688V3.193a9.611,9.611,0,0,0-1.356.544l-1.825-1.775a.725.725,0,0,0-1,0l-3.017,2.921a.673.673,0,0,0,0,.974l1.831,1.768a8.936,8.936,0,0,0-.561,1.316h-2.585a.7.7,0,0,0-.71.688v4.127a.7.7,0,0,0,.71.688h2.585a8.954,8.954,0,0,0,.561,1.314l-1.831,1.768a.673.673,0,0,0,0,.975l3.013,2.916a.726.726,0,0,0,1,0l1.825-1.769a9.662,9.662,0,0,0,1.358.544V22.7a.7.7,0,0,0,.71.688h4.258a.7.7,0,0,0,.71-.688V20.191a9.618,9.618,0,0,0,1.356-.544l1.825,1.769a.726.726,0,0,0,1,0L230.1,18.5a.673.673,0,0,0,0-.975l-1.831-1.768a8.951,8.951,0,0,0,.561-1.313Zm-3.8-.863a7.735,7.735,0,0,1-.836,1.954.672.672,0,0,0,.112.834l1.7,1.645-2.01,1.944-1.7-1.647a.727.727,0,0,0-.859-.108,8.226,8.226,0,0,1-2.016.81.692.692,0,0,0-.531.665v2.332h-2.839V19.678a.692.692,0,0,0-.529-.665,8.227,8.227,0,0,1-2.016-.81.727.727,0,0,0-.859.108l-1.7,1.646-2.01-1.944,1.7-1.645a.672.672,0,0,0,.112-.834,7.734,7.734,0,0,1-.836-1.954.706.706,0,0,0-.686-.512h-2.406V10.317h2.406a.706.706,0,0,0,.685-.512,7.733,7.733,0,0,1,.836-1.954.672.672,0,0,0-.112-.834l-1.7-1.646,2.011-1.949,1.7,1.651a.726.726,0,0,0,.86.109,8.227,8.227,0,0,1,2.016-.81.692.692,0,0,0,.528-.664V1.376h2.839V3.707a.692.692,0,0,0,.529.665,8.227,8.227,0,0,1,2.016.81.727.727,0,0,0,.861-.109l1.7-1.651L228.6,5.372l-1.7,1.646a.671.671,0,0,0-.112.834,7.745,7.745,0,0,1,.836,1.954.706.706,0,0,0,.683.512h2.406v2.751H228.3a.706.706,0,0,0-.685.512Zm0,0" transform="translate(-189.549 0)" fill="#451e8f"/>
      <path id="Trazado_210019" data-name="Trazado 210019" d="M314.839,104a2.753,2.753,0,1,0,2.839,2.751A2.8,2.8,0,0,0,314.839,104Zm0,4.127a1.376,1.376,0,1,1,1.419-1.376A1.4,1.4,0,0,1,314.839,108.127Zm0,0" transform="translate(-284.324 -95.059)" fill="#451e8f"/>
    </g>
    <path id="Trazado_210027" data-name="Trazado 210027" d="M119.036,0V18.432c0,4.808-3.247,8.706-7.251,8.706H6.968C3.12,27.138,0,23.392,0,18.772V0" transform="translate(1104.675 1952.245) rotate(90)" fill="none" stroke="#002d52" stroke-miterlimit="10" stroke-width="2"/>
  </g>
</svg>
