<svg xmlns="http://www.w3.org/2000/svg" xmlns:xlink="http://www.w3.org/1999/xlink" width="1236" height="433" viewBox="0 0 1236 433">
  <defs>
    <clipPath id="clip-path">
      <rect id="Rectángulo_66851" data-name="Rectángulo 66851" width="86.693" height="86.693" fill="none"/>
    </clipPath>
  </defs>
  <g id="Grupo_873777" data-name="Grupo 873777" transform="translate(-184 -2514)">
    <path id="Trazado_200184" data-name="Trazado 200184" d="M-8107.284-9226.866h-49.744v217.395" transform="translate(8395.283 11935.001)" fill="none" stroke="#002d52" stroke-linecap="round" stroke-linejoin="round" stroke-width="2"/>
    <path id="Trazado_200247" data-name="Trazado 200247" d="M-8157.027-9226.866h49.744v217.395" transform="translate(9471.283 11935.001)" fill="none" stroke="#002d52" stroke-linecap="round" stroke-linejoin="round" stroke-width="2"/>
    <path id="Trazado_210028" data-name="Trazado 210028" d="M-8157.027-9226.866h64.166v916.041l-51.726.169" transform="translate(-7967.693 10931.549) rotate(90)" fill="none" stroke="#002d52" stroke-linecap="round" stroke-linejoin="round" stroke-width="2"/>
    <path id="Trazado_200110" data-name="Trazado 200110" d="M551.277,58a43.346,43.346,0,1,0-43.346,43.346A43.345,43.345,0,0,0,551.277,58" transform="translate(293.002 2660.689)" fill="#299ae6"/>
    <path id="Trazado_200111" data-name="Trazado 200111" d="M508.142,2.386a.838.838,0,0,0-.726.419l-8.509,14.739a55.835,55.835,0,0,0-46.589,55.062H454a53.866,53.866,0,0,1,45.57-53.47.836.836,0,0,0,.6-.409L508.142,4.9l7.981,13.823a.836.836,0,0,0,.6.409,54.15,54.15,0,0,1-8.576,107.616v1.678a55.828,55.828,0,0,0,9.235-110.886L508.869,2.805a.838.838,0,0,0-.726-.419" transform="translate(292.791 2646.081)" fill="#002d52"/>
    <path id="Trazado_200112" data-name="Trazado 200112" d="M456.343.118H450.05a57.752,57.752,0,0,0,17.026,41.106,57.754,57.754,0,0,0,41.1,17.025V51.957A51.9,51.9,0,0,1,456.343.118" transform="translate(292.751 2718.568)" fill="#299ae6"/>
    <path id="Trazado_200113" data-name="Trazado 200113" d="M851.224,58.457A43.346,43.346,0,1,0,807.878,101.8a43.346,43.346,0,0,0,43.346-43.346" transform="translate(298.168 2659.764)" fill="#207bb8"/>
    <path id="Trazado_200114" data-name="Trazado 200114" d="M808.089,2.845a.838.838,0,0,0-.726.419L798.854,18a55.835,55.835,0,0,0-46.589,55.062h1.678a53.866,53.866,0,0,1,45.57-53.47.836.836,0,0,0,.6-.409l7.981-13.823,7.981,13.823a.836.836,0,0,0,.6.409,54.15,54.15,0,0,1-8.576,107.616v1.678A55.828,55.828,0,0,0,817.325,18L808.815,3.264a.838.838,0,0,0-.726-.419" transform="translate(297.957 2645.155)" fill="#002d52"/>
    <path id="Trazado_200115" data-name="Trazado 200115" d="M756.29.577H750a57.752,57.752,0,0,0,17.026,41.106,57.754,57.754,0,0,0,41.1,17.025V52.416A51.9,51.9,0,0,1,756.29.577" transform="translate(297.917 2717.643)" fill="#207bb8"/>
    <path id="Trazado_200116" data-name="Trazado 200116" d="M701.663,57.989a43.346,43.346,0,1,0-43.346,43.346,43.346,43.346,0,0,0,43.346-43.346" transform="translate(295.592 2660.707)" fill="#207bb8"/>
    <path id="Trazado_200117" data-name="Trazado 200117" d="M658.527,2.375a.838.838,0,0,0-.726.419l-8.516,14.75A55.837,55.837,0,0,0,602.7,72.605h1.678a53.868,53.868,0,0,1,45.564-53.47.839.839,0,0,0,.594-.409l7.988-13.834,7.988,13.834a.839.839,0,0,0,.594.409,54.15,54.15,0,0,1-8.582,107.616v1.678A55.829,55.829,0,0,0,667.77,17.544l-8.516-14.75a.838.838,0,0,0-.726-.419" transform="translate(295.381 2646.092)" fill="#002d52"/>
    <path id="Trazado_200118" data-name="Trazado 200118" d="M606.728.108h-6.292a57.751,57.751,0,0,0,17.026,41.105A57.751,57.751,0,0,0,658.566,58.24V51.947A51.9,51.9,0,0,1,606.728.108" transform="translate(295.342 2718.588)" fill="#207bb8"/>
    <path id="Trazado_200119" data-name="Trazado 200119" d="M1001.759,57.989a43.346,43.346,0,1,0-43.346,43.346,43.346,43.346,0,0,0,43.346-43.346" transform="translate(300.761 2660.707)" fill="#207bb8"/>
    <path id="Trazado_200120" data-name="Trazado 200120" d="M958.623,2.375a.838.838,0,0,0-.726.419l-8.516,14.75A55.837,55.837,0,0,0,902.8,72.605h1.678a53.868,53.868,0,0,1,45.564-53.47.839.839,0,0,0,.594-.409l7.988-13.834,7.988,13.834a.839.839,0,0,0,.594.409,54.15,54.15,0,0,1-8.582,107.616v1.678a55.829,55.829,0,0,0,9.242-110.886L959.35,2.794a.838.838,0,0,0-.726-.419" transform="translate(300.549 2646.092)" fill="#002d52"/>
    <path id="Trazado_200121" data-name="Trazado 200121" d="M906.824.108h-6.292a57.751,57.751,0,0,0,17.026,41.105,57.751,57.751,0,0,0,41.1,17.026V51.947A51.9,51.9,0,0,1,906.824.108" transform="translate(300.51 2718.588)" fill="#207bb8"/>
    <path id="Trazado_200122" data-name="Trazado 200122" d="M101.228,57.881a43.346,43.346,0,1,0-43.346,43.346,43.346,43.346,0,0,0,43.346-43.346" transform="translate(285.25 2660.926)" fill="#299ae6"/>
    <path id="Trazado_200123" data-name="Trazado 200123" d="M6.293,0H0A57.754,57.754,0,0,0,17.025,41.105,57.751,57.751,0,0,0,58.131,58.132V51.839A51.9,51.9,0,0,1,6.293,0" transform="translate(285 2718.806)" fill="#299ae6"/>
    <path id="Trazado_200124" data-name="Trazado 200124" d="M58.092,2.268a.838.838,0,0,0-.726.419L48.78,17.557A55.834,55.834,0,0,0,2.268,72.607H3.946A53.878,53.878,0,0,1,49.441,19.15a.842.842,0,0,0,.594-.409L58.092,4.785,66.15,18.741a.842.842,0,0,0,.594.409,54.15,54.15,0,0,1-8.651,107.6v1.678A55.829,55.829,0,0,0,67.4,17.557L58.819,2.687a.838.838,0,0,0-.726-.419" transform="translate(285.039 2646.199)" fill="#002d52"/>
    <g id="Grupo_873262" data-name="Grupo 873262" transform="translate(605.314 2675.227)" opacity="0.35" style="mix-blend-mode: multiply;isolation: isolate">
      <g id="Grupo_873261" data-name="Grupo 873261" transform="translate(0 0)">
        <g id="Grupo_873260" data-name="Grupo 873260" clip-path="url(#clip-path)">
          <path id="Trazado_200125" data-name="Trazado 200125" d="M401.584,58.109a43.346,43.346,0,1,0-43.346,43.346,43.346,43.346,0,0,0,43.346-43.346" transform="translate(-314.891 -14.762)" fill="#333"/>
        </g>
      </g>
    </g>
    <path id="Trazado_200126" data-name="Trazado 200126" d="M401.584,57.989a43.346,43.346,0,1,0-43.346,43.346,43.346,43.346,0,0,0,43.346-43.346" transform="translate(290.424 2660.707)" fill="#299ae6"/>
    <path id="Trazado_200127" data-name="Trazado 200127" d="M358.449,2.375a.838.838,0,0,0-.726.419l-8.516,14.75a55.837,55.837,0,0,0-46.582,55.062H304.3a53.869,53.869,0,0,1,45.564-53.47.843.843,0,0,0,.6-.409l7.987-13.834,7.987,13.834a.843.843,0,0,0,.6.409,54.15,54.15,0,0,1-8.582,107.616v1.678a55.829,55.829,0,0,0,9.241-110.886l-8.515-14.75a.838.838,0,0,0-.726-.419" transform="translate(290.212 2646.092)" fill="#002d52"/>
    <path id="Trazado_200128" data-name="Trazado 200128" d="M306.65.108h-6.293a57.754,57.754,0,0,0,17.025,41.105A57.751,57.751,0,0,0,358.488,58.24V51.947A51.9,51.9,0,0,1,306.65.108" transform="translate(290.173 2718.588)" fill="#299ae6"/>
    <g id="Grupo_873265" data-name="Grupo 873265" transform="translate(452.41 2675.172)" opacity="0.35" style="mix-blend-mode: multiply;isolation: isolate">
      <g id="Grupo_873264" data-name="Grupo 873264" transform="translate(0 0)">
        <g id="Grupo_873263" data-name="Grupo 873263" clip-path="url(#clip-path)">
          <path id="Trazado_200129" data-name="Trazado 200129" d="M251.268,58.163a43.346,43.346,0,1,0-43.346,43.346,43.346,43.346,0,0,0,43.346-43.346" transform="translate(-164.575 -14.816)" fill="#333"/>
        </g>
      </g>
    </g>
    <path id="Trazado_200130" data-name="Trazado 200130" d="M251.268,57.935a43.346,43.346,0,1,0-43.346,43.346,43.346,43.346,0,0,0,43.346-43.346" transform="translate(287.834 2660.816)" fill="#299ae6"/>
    <path id="Trazado_200131" data-name="Trazado 200131" d="M208.132,2.322h0a.838.838,0,0,0-.726.419l-8.551,14.811a55.835,55.835,0,0,0-46.547,55.054h1.678a53.871,53.871,0,0,1,45.529-53.461.84.84,0,0,0,.594-.41l8.023-13.9,8.025,13.9a.84.84,0,0,0,.594.41,54.15,54.15,0,0,1-8.619,107.608v1.677a55.828,55.828,0,0,0,9.279-110.879L208.859,2.741a.838.838,0,0,0-.726-.419" transform="translate(287.623 2646.145)" fill="#002d52"/>
    <path id="Trazado_200132" data-name="Trazado 200132" d="M156.333.054H150.04a57.751,57.751,0,0,0,17.026,41.105,57.751,57.751,0,0,0,41.1,17.026V51.893A51.9,51.9,0,0,1,156.333.054" transform="translate(287.584 2718.697)" fill="#299ae6"/>
    <g id="Grupo_873642" data-name="Grupo 873642" transform="translate(0 -163)">
      <path id="Trazado_200133" data-name="Trazado 200133" d="M61.916,144.682a4.615,4.615,0,1,1-4.615-4.615,4.615,4.615,0,0,1,4.615,4.615" transform="translate(285.907 2658.412)" fill="#299ae6"/>
      <path id="Trazado_200134" data-name="Trazado 200134" d="M211.626,144.682a4.615,4.615,0,1,1-4.615-4.615,4.615,4.615,0,0,1,4.615,4.615" transform="translate(288.486 2658.412)" fill="#299ae6"/>
      <path id="Trazado_200135" data-name="Trazado 200135" d="M362.367,144.682a4.615,4.615,0,1,1-4.615-4.615,4.615,4.615,0,0,1,4.615,4.615" transform="translate(291.083 2658.412)" fill="#299ae6"/>
      <path id="Trazado_200136" data-name="Trazado 200136" d="M512.076,144.682a4.615,4.615,0,1,1-4.615-4.615,4.615,4.615,0,0,1,4.615,4.615" transform="translate(293.661 2658.412)" fill="#299ae6"/>
      <path id="Trazado_200137" data-name="Trazado 200137" d="M811.836,144.682a4.615,4.615,0,1,1-4.615-4.615,4.615,4.615,0,0,1,4.615,4.615" transform="translate(298.824 2658.412)" fill="#207bb8"/>
      <path id="Trazado_200138" data-name="Trazado 200138" d="M667.777,136.356a8.4,8.4,0,0,0-8.365,7.761H523.643a8.388,8.388,0,0,0-16.729,0H371.355a8.388,8.388,0,0,0-16.728,0H218.018a8.388,8.388,0,0,0-16.729,0H65.73a8.388,8.388,0,1,0-.042,1.677H201.331a8.388,8.388,0,0,0,16.646,0H354.668a8.388,8.388,0,0,0,16.645,0H506.956a8.388,8.388,0,0,0,16.646,0H659.454a8.389,8.389,0,1,0,8.323-9.439m-610.412,15.1a6.713,6.713,0,1,1,6.713-6.713,6.72,6.72,0,0,1-6.713,6.713m152.289,0a6.713,6.713,0,1,1,6.713-6.713,6.72,6.72,0,0,1-6.713,6.713m153.337,0a6.713,6.713,0,1,1,6.712-6.713,6.72,6.72,0,0,1-6.712,6.713m152.288,0a6.713,6.713,0,1,1,6.713-6.713,6.721,6.721,0,0,1-6.713,6.713m152.5,0a6.713,6.713,0,1,1,6.713-6.713,6.721,6.721,0,0,1-6.713,6.713" transform="translate(285.844 2658.349)" fill="#002d52"/>
      <path id="Trazado_200139" data-name="Trazado 200139" d="M971.427,144.117a8.388,8.388,0,0,0-16.729,0H818.089a8.388,8.388,0,0,0-16.729,0H665.8a8.389,8.389,0,1,0-.042,1.677H801.4a8.388,8.388,0,0,0,16.645,0H954.739a8.388,8.388,0,0,0,16.646,0m-313.948,5.664a6.713,6.713,0,1,1,6.713-6.713,6.72,6.72,0,0,1-6.713,6.713m152.288,0a6.713,6.713,0,1,1,6.713-6.713,6.72,6.72,0,0,1-6.713,6.713m153.337,0a6.713,6.713,0,1,1,6.713-6.713,6.72,6.72,0,0,1-6.713,6.713" transform="translate(296.179 2658.349)" fill="#002d52"/>
      <path id="Trazado_200140" data-name="Trazado 200140" d="M661.992,144.682a4.615,4.615,0,1,1-4.615-4.615,4.615,4.615,0,0,1,4.615,4.615" transform="translate(296.243 2658.412)" fill="#185c8a"/>
      <path id="Trazado_200141" data-name="Trazado 200141" d="M962.371,144.682a4.615,4.615,0,1,1-4.615-4.615,4.615,4.615,0,0,1,4.615,4.615" transform="translate(301.417 2658.412)" fill="#185c8a"/>
    </g>
    <path id="Trazado_210459" data-name="Trazado 210459" d="M6,0H108a6,6,0,0,1,6,6V50a6,6,0,0,1-6,6H6a6,6,0,0,1-6-6V6A6,6,0,0,1,6,0Z" transform="translate(285 2516)" fill="#299ae6"/>
    <path id="Trazado_210460" data-name="Trazado 210460" d="M6,0H108a6,6,0,0,1,6,6V50a6,6,0,0,1-6,6H6a6,6,0,0,1-6-6V6A6,6,0,0,1,6,0Z" transform="translate(441 2516)" fill="#299ae6"/>
    <path id="Trazado_210461" data-name="Trazado 210461" d="M6,0H108a6,6,0,0,1,6,6V50a6,6,0,0,1-6,6H6a6,6,0,0,1-6-6V6A6,6,0,0,1,6,0Z" transform="translate(741 2516)" fill="#299ae6"/>
    <path id="Trazado_210462" data-name="Trazado 210462" d="M6,0H108a6,6,0,0,1,6,6V50a6,6,0,0,1-6,6H6a6,6,0,0,1-6-6V6A6,6,0,0,1,6,0Z" transform="translate(591 2516)" fill="#299ae6"/>
    <path id="Trazado_210463" data-name="Trazado 210463" d="M6,0H108a6,6,0,0,1,6,6V50a6,6,0,0,1-6,6H6a6,6,0,0,1-6-6V6A6,6,0,0,1,6,0Z" transform="translate(895 2516)" fill="#207bb8"/>
    <path id="Trazado_210464" data-name="Trazado 210464" d="M6,0H108a6,6,0,0,1,6,6V50a6,6,0,0,1-6,6H6a6,6,0,0,1-6-6V6A6,6,0,0,1,6,0Z" transform="translate(1050 2516)" fill="#207bb8"/>
    <path id="Trazado_210465" data-name="Trazado 210465" d="M6,0H158a6,6,0,0,1,6,6V52a6,6,0,0,1-6,6H6a6,6,0,0,1-6-6V6A6,6,0,0,1,6,0Z" transform="translate(1188 2514)" fill="#207bb8"/>
    <path id="Trazado_210466" data-name="Trazado 210466" d="M17.023,12.992V17H14.68V5.625h4.438a5.134,5.134,0,0,1,2.254.469,3.454,3.454,0,0,1,1.5,1.332,3.714,3.714,0,0,1,.523,1.965,3.266,3.266,0,0,1-1.145,2.637,4.767,4.767,0,0,1-3.168.965Zm0-1.9h2.094a2.059,2.059,0,0,0,1.418-.437,1.591,1.591,0,0,0,.488-1.25,1.876,1.876,0,0,0-.492-1.352,1.839,1.839,0,0,0-1.359-.531H17.023Zm12.578-.43a6.134,6.134,0,0,0-.812-.062,1.654,1.654,0,0,0-1.68.867V17H24.852V8.547h2.133l.063,1.008A2.092,2.092,0,0,1,28.93,8.391a2.366,2.366,0,0,1,.7.1Zm4.977,6.492a4.15,4.15,0,0,1-3.027-1.141,4.054,4.054,0,0,1-1.168-3.039v-.219a5.106,5.106,0,0,1,.492-2.277A3.612,3.612,0,0,1,32.27,8.934a3.914,3.914,0,0,1,2.059-.543,3.508,3.508,0,0,1,2.73,1.094,4.444,4.444,0,0,1,1,3.1v.922H32.672a2.1,2.1,0,0,0,.66,1.328,2,2,0,0,0,1.395.5,2.437,2.437,0,0,0,2.039-.945l1.109,1.242A3.389,3.389,0,0,1,36.5,16.754,4.511,4.511,0,0,1,34.578,17.156Zm-.258-6.945a1.411,1.411,0,0,0-1.09.455,2.357,2.357,0,0,0-.535,1.3h3.141v-.181a1.681,1.681,0,0,0-.406-1.165A1.456,1.456,0,0,0,34.32,10.211Zm4.688,2.5a4.954,4.954,0,0,1,.926-3.133,3,3,0,0,1,2.5-1.187,2.631,2.631,0,0,1,2.164.953l.094-.8h2.047v8.172a3.613,3.613,0,0,1-.5,1.93,3.236,3.236,0,0,1-1.418,1.25,4.985,4.985,0,0,1-2.141.43,4.635,4.635,0,0,1-1.812-.371A3.217,3.217,0,0,1,39.523,19l1-1.375a2.645,2.645,0,0,0,2.047.945,1.936,1.936,0,0,0,1.4-.48,1.8,1.8,0,0,0,.5-1.363v-.453a2.612,2.612,0,0,1-2.055.883,2.992,2.992,0,0,1-2.465-1.191,4.953,4.953,0,0,1-.941-3.16Zm2.258.168a3.085,3.085,0,0,0,.461,1.8,1.466,1.466,0,0,0,1.266.653,1.568,1.568,0,0,0,1.477-.775V11a1.564,1.564,0,0,0-1.461-.775,1.476,1.476,0,0,0-1.277.665A3.477,3.477,0,0,0,41.266,12.879Zm12.266,3.262a2.831,2.831,0,0,1-2.312,1.016,2.67,2.67,0,0,1-2.074-.781,3.335,3.335,0,0,1-.73-2.289V8.547h2.258v5.467q0,1.322,1.2,1.322a1.63,1.63,0,0,0,1.578-.8V8.547h2.266V17H53.594ZM59.5,8.547l.07.977A2.951,2.951,0,0,1,62,8.391a2.453,2.453,0,0,1,2,.789,3.682,3.682,0,0,1,.672,2.359V17H62.414V11.594a1.465,1.465,0,0,0-.312-1.043,1.4,1.4,0,0,0-1.039-.324,1.553,1.553,0,0,0-1.43.813V17H57.375V8.547Zm9.586-2.078V8.547h1.445V10.2H69.086v4.219a1.007,1.007,0,0,0,.18.672.9.9,0,0,0,.688.2,3.6,3.6,0,0,0,.664-.055v1.711a4.648,4.648,0,0,1-1.367.2,2.156,2.156,0,0,1-2.422-2.4V10.2H65.594V8.547h1.234V6.469ZM76.688,17a2.507,2.507,0,0,1-.227-.758,2.732,2.732,0,0,1-2.133.914,3,3,0,0,1-2.059-.719,2.312,2.312,0,0,1-.816-1.812,2.389,2.389,0,0,1,1-2.062,4.915,4.915,0,0,1,2.879-.727h1.039v-.484a1.393,1.393,0,0,0-.3-.937,1.183,1.183,0,0,0-.949-.352,1.345,1.345,0,0,0-.895.273.929.929,0,0,0-.324.75H71.641a2.268,2.268,0,0,1,.453-1.359,3,3,0,0,1,1.281-.98,4.669,4.669,0,0,1,1.859-.355,3.689,3.689,0,0,1,2.48.785,2.747,2.747,0,0,1,.918,2.207v3.664a4.041,4.041,0,0,0,.336,1.82V17ZM74.82,15.43a1.945,1.945,0,0,0,.922-.223,1.462,1.462,0,0,0,.625-.6V13.156h-.844q-1.7,0-1.8,1.172l-.008.133a.9.9,0,0,0,.3.7A1.153,1.153,0,0,0,74.82,15.43Zm10.3-4.766A6.134,6.134,0,0,0,84.3,10.6a1.654,1.654,0,0,0-1.68.867V17H80.367V8.547H82.5l.063,1.008a2.092,2.092,0,0,1,1.883-1.164,2.366,2.366,0,0,1,.7.1Z" transform="translate(293 2533)" fill="#fff"/>
    <path id="Trazado_210467" data-name="Trazado 210467" d="M24.242,12.07h-4.5v3.047h5.281V17H17.4V5.625h7.609v1.9H19.742v2.711h4.5Zm6.586,2.594a.727.727,0,0,0-.41-.652,4.659,4.659,0,0,0-1.316-.426q-3.016-.633-3.016-2.562a2.323,2.323,0,0,1,.934-1.879,3.766,3.766,0,0,1,2.441-.754,4.053,4.053,0,0,1,2.574.758A2.388,2.388,0,0,1,33,11.117H30.742a1.092,1.092,0,0,0-.312-.8A1.322,1.322,0,0,0,29.453,10a1.351,1.351,0,0,0-.883.258.814.814,0,0,0-.312.656.7.7,0,0,0,.355.605,3.657,3.657,0,0,0,1.2.4,9.8,9.8,0,0,1,1.422.379,2.336,2.336,0,0,1,1.789,2.273,2.2,2.2,0,0,1-.992,1.871,4.28,4.28,0,0,1-2.562.715,4.47,4.47,0,0,1-1.887-.379,3.166,3.166,0,0,1-1.293-1.039,2.414,2.414,0,0,1-.469-1.426h2.141a1.179,1.179,0,0,0,.445.922,1.766,1.766,0,0,0,1.109.32,1.635,1.635,0,0,0,.98-.246A.766.766,0,0,0,30.828,14.664Zm7.164.672a1.481,1.481,0,0,0,1.016-.344,1.2,1.2,0,0,0,.406-.914h2.117a2.9,2.9,0,0,1-.469,1.574A3.093,3.093,0,0,1,39.8,16.762a3.949,3.949,0,0,1-1.77.395A3.67,3.67,0,0,1,35.172,16a4.56,4.56,0,0,1-1.047-3.184v-.148a4.508,4.508,0,0,1,1.039-3.117,3.627,3.627,0,0,1,2.852-1.164,3.555,3.555,0,0,1,2.543.9,3.2,3.2,0,0,1,.973,2.4H39.414a1.551,1.551,0,0,0-.406-1.072,1.51,1.51,0,0,0-2.223.163,3.333,3.333,0,0,0-.4,1.866v.235a3.375,3.375,0,0,0,.4,1.878A1.377,1.377,0,0,0,37.992,15.336Zm9.891.8a2.831,2.831,0,0,1-2.312,1.016,2.67,2.67,0,0,1-2.074-.781,3.335,3.335,0,0,1-.73-2.289V8.547h2.258v5.467q0,1.322,1.2,1.322a1.63,1.63,0,0,0,1.578-.8V8.547H50.07V17H47.945Zm7.406-.8a1.481,1.481,0,0,0,1.016-.344,1.2,1.2,0,0,0,.406-.914h2.117a2.9,2.9,0,0,1-.469,1.574A3.093,3.093,0,0,1,57.1,16.762a3.949,3.949,0,0,1-1.77.395A3.67,3.67,0,0,1,52.469,16a4.56,4.56,0,0,1-1.047-3.184v-.148a4.508,4.508,0,0,1,1.039-3.117,3.627,3.627,0,0,1,2.852-1.164,3.555,3.555,0,0,1,2.543.9,3.2,3.2,0,0,1,.973,2.4H56.711a1.551,1.551,0,0,0-.406-1.072,1.51,1.51,0,0,0-2.223.163,3.333,3.333,0,0,0-.4,1.866v.235a3.375,3.375,0,0,0,.4,1.878A1.377,1.377,0,0,0,55.289,15.336ZM62.32,9.469a2.818,2.818,0,0,1,2.258-1.078q2.75,0,2.789,3.2V17H65.109V11.648a1.57,1.57,0,0,0-.312-1.074,1.34,1.34,0,0,0-1.039-.348,1.537,1.537,0,0,0-1.437.766V17H60.063V5H62.32ZM73.969,17a2.507,2.507,0,0,1-.227-.758,2.732,2.732,0,0,1-2.133.914,3,3,0,0,1-2.059-.719,2.312,2.312,0,0,1-.816-1.812,2.389,2.389,0,0,1,1-2.062,4.915,4.915,0,0,1,2.879-.727h1.039v-.484a1.393,1.393,0,0,0-.3-.937,1.183,1.183,0,0,0-.949-.352,1.345,1.345,0,0,0-.895.273.929.929,0,0,0-.324.75H68.922a2.268,2.268,0,0,1,.453-1.359,3,3,0,0,1,1.281-.98,4.669,4.669,0,0,1,1.859-.355A3.689,3.689,0,0,1,75,9.176a2.747,2.747,0,0,1,.918,2.207v3.664a4.041,4.041,0,0,0,.336,1.82V17ZM72.1,15.43a1.945,1.945,0,0,0,.922-.223,1.462,1.462,0,0,0,.625-.6V13.156H72.8q-1.7,0-1.8,1.172l-.008.133a.9.9,0,0,0,.3.7A1.153,1.153,0,0,0,72.1,15.43Zm10.3-4.766a6.134,6.134,0,0,0-.812-.062,1.654,1.654,0,0,0-1.68.867V17H77.648V8.547h2.133l.063,1.008a2.092,2.092,0,0,1,1.883-1.164,2.366,2.366,0,0,1,.7.1Z" transform="translate(449 2533)" fill="#fff"/>
    <path id="Trazado_210468" data-name="Trazado 210468" d="M22.9,12.07H18.4v3.047h5.281V17H16.059V5.625h7.609v1.9H18.4v2.711h4.5Zm4.969,2.172,1.57-5.7H31.8L28.949,17H26.793L23.941,8.547H26.3ZM35.176,17H32.91V8.547h2.266Zm-2.4-10.641a1.112,1.112,0,0,1,.34-.836,1.465,1.465,0,0,1,1.848,0,1.105,1.105,0,0,1,.344.836,1.108,1.108,0,0,1-.348.844,1.448,1.448,0,0,1-1.836,0A1.108,1.108,0,0,1,32.777,6.359Zm3.906,6.352a5.094,5.094,0,0,1,.887-3.148A2.877,2.877,0,0,1,40,8.391a2.589,2.589,0,0,1,2.039.922V5H44.3V17H42.262l-.109-.9a2.657,2.657,0,0,1-2.172,1.055,2.869,2.869,0,0,1-2.395-1.176A5.258,5.258,0,0,1,36.684,12.711Zm2.258.168a3.337,3.337,0,0,0,.414,1.823,1.349,1.349,0,0,0,1.2.634,1.511,1.511,0,0,0,1.477-.884V11.111a1.489,1.489,0,0,0-1.461-.884Q38.941,10.227,38.941,12.879Zm11,4.277a4.15,4.15,0,0,1-3.027-1.141,4.054,4.054,0,0,1-1.168-3.039v-.219a5.106,5.106,0,0,1,.492-2.277,3.612,3.612,0,0,1,1.395-1.547,3.914,3.914,0,0,1,2.059-.543,3.508,3.508,0,0,1,2.73,1.094,4.444,4.444,0,0,1,1,3.1v.922H48.035a2.1,2.1,0,0,0,.66,1.328,2,2,0,0,0,1.395.5,2.437,2.437,0,0,0,2.039-.945l1.109,1.242a3.389,3.389,0,0,1-1.375,1.121A4.511,4.511,0,0,1,49.941,17.156Zm-.258-6.945a1.411,1.411,0,0,0-1.09.455,2.357,2.357,0,0,0-.535,1.3H51.2v-.181a1.681,1.681,0,0,0-.406-1.165A1.456,1.456,0,0,0,49.684,10.211Zm7.094-1.664.07.977a2.951,2.951,0,0,1,2.43-1.133,2.453,2.453,0,0,1,2,.789,3.682,3.682,0,0,1,.672,2.359V17H59.691V11.594a1.465,1.465,0,0,0-.312-1.043,1.4,1.4,0,0,0-1.039-.324,1.553,1.553,0,0,0-1.43.813V17H54.652V8.547Zm10.4,6.789a1.481,1.481,0,0,0,1.016-.344,1.2,1.2,0,0,0,.406-.914h2.117a2.9,2.9,0,0,1-.469,1.574,3.093,3.093,0,0,1-1.262,1.109,3.949,3.949,0,0,1-1.77.395A3.67,3.67,0,0,1,64.355,16a4.56,4.56,0,0,1-1.047-3.184v-.148a4.508,4.508,0,0,1,1.039-3.117A3.627,3.627,0,0,1,67.2,8.391a3.555,3.555,0,0,1,2.543.9,3.2,3.2,0,0,1,.973,2.4H68.6a1.551,1.551,0,0,0-.406-1.072,1.51,1.51,0,0,0-2.223.163,3.333,3.333,0,0,0-.4,1.866v.235a3.375,3.375,0,0,0,.4,1.878A1.377,1.377,0,0,0,67.176,15.336ZM74.387,17H72.121V8.547h2.266Zm-2.4-10.641a1.112,1.112,0,0,1,.34-.836,1.465,1.465,0,0,1,1.848,0,1.105,1.105,0,0,1,.344.836,1.108,1.108,0,0,1-.348.844,1.448,1.448,0,0,1-1.836,0A1.108,1.108,0,0,1,71.988,6.359ZM81.145,17a2.507,2.507,0,0,1-.227-.758,2.732,2.732,0,0,1-2.133.914,3,3,0,0,1-2.059-.719,2.312,2.312,0,0,1-.816-1.812,2.389,2.389,0,0,1,1-2.062,4.915,4.915,0,0,1,2.879-.727h1.039v-.484a1.393,1.393,0,0,0-.3-.937,1.183,1.183,0,0,0-.949-.352,1.345,1.345,0,0,0-.895.273.929.929,0,0,0-.324.75H76.1a2.268,2.268,0,0,1,.453-1.359,3,3,0,0,1,1.281-.98,4.669,4.669,0,0,1,1.859-.355,3.689,3.689,0,0,1,2.48.785,2.747,2.747,0,0,1,.918,2.207v3.664a4.041,4.041,0,0,0,.336,1.82V17Zm-1.867-1.57a1.945,1.945,0,0,0,.922-.223,1.462,1.462,0,0,0,.625-.6V13.156H79.98q-1.7,0-1.8,1.172l-.008.133a.9.9,0,0,0,.3.7A1.153,1.153,0,0,0,79.277,15.43Z" transform="translate(749 2533)" fill="#fff"/>
    <path id="Trazado_210469" data-name="Trazado 210469" d="M27.16,12.07h-4.5v3.047h5.281V17H20.316V5.625h7.609v1.9H22.66v2.711h4.5Zm6.586,2.594a.727.727,0,0,0-.41-.652,4.659,4.659,0,0,0-1.316-.426Q29,12.953,29,11.023a2.323,2.323,0,0,1,.934-1.879,3.766,3.766,0,0,1,2.441-.754,4.053,4.053,0,0,1,2.574.758,2.388,2.388,0,0,1,.965,1.969H33.66a1.092,1.092,0,0,0-.312-.8A1.322,1.322,0,0,0,32.371,10a1.351,1.351,0,0,0-.883.258.814.814,0,0,0-.312.656.7.7,0,0,0,.355.605,3.657,3.657,0,0,0,1.2.4,9.8,9.8,0,0,1,1.422.379,2.336,2.336,0,0,1,1.789,2.273,2.2,2.2,0,0,1-.992,1.871,4.28,4.28,0,0,1-2.562.715,4.47,4.47,0,0,1-1.887-.379,3.166,3.166,0,0,1-1.293-1.039,2.414,2.414,0,0,1-.469-1.426h2.141a1.179,1.179,0,0,0,.445.922,1.766,1.766,0,0,0,1.109.32,1.635,1.635,0,0,0,.98-.246A.766.766,0,0,0,33.746,14.664Zm7.164.672a1.481,1.481,0,0,0,1.016-.344,1.2,1.2,0,0,0,.406-.914h2.117a2.9,2.9,0,0,1-.469,1.574,3.093,3.093,0,0,1-1.262,1.109,3.949,3.949,0,0,1-1.77.395A3.67,3.67,0,0,1,38.09,16a4.56,4.56,0,0,1-1.047-3.184v-.148a4.508,4.508,0,0,1,1.039-3.117,3.627,3.627,0,0,1,2.852-1.164,3.555,3.555,0,0,1,2.543.9,3.2,3.2,0,0,1,.973,2.4H42.332a1.551,1.551,0,0,0-.406-1.072,1.51,1.51,0,0,0-2.223.163,3.333,3.333,0,0,0-.4,1.866v.235a3.375,3.375,0,0,0,.4,1.878A1.377,1.377,0,0,0,40.91,15.336Zm9.891.8a2.831,2.831,0,0,1-2.312,1.016,2.67,2.67,0,0,1-2.074-.781,3.335,3.335,0,0,1-.73-2.289V8.547h2.258v5.467q0,1.322,1.2,1.322a1.63,1.63,0,0,0,1.578-.8V8.547h2.266V17H50.863Zm7.406-.8a1.481,1.481,0,0,0,1.016-.344,1.2,1.2,0,0,0,.406-.914h2.117a2.9,2.9,0,0,1-.469,1.574,3.093,3.093,0,0,1-1.262,1.109,3.949,3.949,0,0,1-1.77.395A3.67,3.67,0,0,1,55.387,16,4.56,4.56,0,0,1,54.34,12.82v-.148a4.508,4.508,0,0,1,1.039-3.117A3.627,3.627,0,0,1,58.23,8.391a3.555,3.555,0,0,1,2.543.9,3.2,3.2,0,0,1,.973,2.4H59.629a1.551,1.551,0,0,0-.406-1.072A1.51,1.51,0,0,0,57,10.786a3.333,3.333,0,0,0-.4,1.866v.235a3.375,3.375,0,0,0,.4,1.878A1.377,1.377,0,0,0,58.207,15.336Zm7.031-5.867A2.818,2.818,0,0,1,67.5,8.391q2.75,0,2.789,3.2V17H68.027V11.648a1.57,1.57,0,0,0-.312-1.074,1.34,1.34,0,0,0-1.039-.348,1.537,1.537,0,0,0-1.437.766V17H62.98V5h2.258ZM76.887,17a2.507,2.507,0,0,1-.227-.758,2.732,2.732,0,0,1-2.133.914,3,3,0,0,1-2.059-.719,2.312,2.312,0,0,1-.816-1.812,2.389,2.389,0,0,1,1-2.062,4.915,4.915,0,0,1,2.879-.727h1.039v-.484a1.393,1.393,0,0,0-.3-.937,1.183,1.183,0,0,0-.949-.352,1.345,1.345,0,0,0-.895.273.929.929,0,0,0-.324.75H71.84a2.268,2.268,0,0,1,.453-1.359,3,3,0,0,1,1.281-.98,4.669,4.669,0,0,1,1.859-.355,3.689,3.689,0,0,1,2.48.785,2.747,2.747,0,0,1,.918,2.207v3.664a4.041,4.041,0,0,0,.336,1.82V17ZM75.02,15.43a1.945,1.945,0,0,0,.922-.223,1.462,1.462,0,0,0,.625-.6V13.156h-.844q-1.7,0-1.8,1.172l-.008.133a.9.9,0,0,0,.3.7A1.153,1.153,0,0,0,75.02,15.43ZM33.707,42a2.507,2.507,0,0,1-.227-.758,2.732,2.732,0,0,1-2.133.914,3,3,0,0,1-2.059-.719,2.312,2.312,0,0,1-.816-1.812,2.389,2.389,0,0,1,1-2.062,4.915,4.915,0,0,1,2.879-.727h1.039v-.484a1.393,1.393,0,0,0-.3-.937,1.183,1.183,0,0,0-.949-.352,1.345,1.345,0,0,0-.895.273.929.929,0,0,0-.324.75H28.66a2.268,2.268,0,0,1,.453-1.359,3,3,0,0,1,1.281-.98,4.669,4.669,0,0,1,1.859-.355,3.689,3.689,0,0,1,2.48.785,2.747,2.747,0,0,1,.918,2.207v3.664a4.041,4.041,0,0,0,.336,1.82V42ZM31.84,40.43a1.945,1.945,0,0,0,.922-.223,1.462,1.462,0,0,0,.625-.6V38.156h-.844q-1.7,0-1.8,1.172l-.008.133a.9.9,0,0,0,.3.7A1.153,1.153,0,0,0,31.84,40.43Zm9.063-.094a1.481,1.481,0,0,0,1.016-.344,1.2,1.2,0,0,0,.406-.914h2.117a2.9,2.9,0,0,1-.469,1.574,3.093,3.093,0,0,1-1.262,1.109,3.949,3.949,0,0,1-1.77.395A3.67,3.67,0,0,1,38.082,41a4.56,4.56,0,0,1-1.047-3.184v-.148a4.508,4.508,0,0,1,1.039-3.117,3.627,3.627,0,0,1,2.852-1.164,3.555,3.555,0,0,1,2.543.9,3.2,3.2,0,0,1,.973,2.4H42.324a1.551,1.551,0,0,0-.406-1.072,1.51,1.51,0,0,0-2.223.163,3.333,3.333,0,0,0-.4,1.866v.235a3.375,3.375,0,0,0,.4,1.878A1.377,1.377,0,0,0,40.9,40.336Zm7.531-8.867v2.078h1.445V35.2H48.434v4.219a1.007,1.007,0,0,0,.18.672.9.9,0,0,0,.688.2,3.6,3.6,0,0,0,.664-.055v1.711a4.648,4.648,0,0,1-1.367.2,2.156,2.156,0,0,1-2.422-2.4V35.2H44.941V33.547h1.234V31.469ZM53.52,42H51.254V33.547H53.52Zm-2.4-10.641a1.112,1.112,0,0,1,.34-.836,1.465,1.465,0,0,1,1.848,0,1.193,1.193,0,0,1,0,1.68,1.448,1.448,0,0,1-1.836,0A1.108,1.108,0,0,1,51.121,31.359Zm7.422,7.883,1.57-5.7h2.359L59.621,42H57.465l-2.852-8.453h2.359ZM68.246,42a2.507,2.507,0,0,1-.227-.758,2.732,2.732,0,0,1-2.133.914,3,3,0,0,1-2.059-.719,2.312,2.312,0,0,1-.816-1.812,2.389,2.389,0,0,1,1-2.062,4.915,4.915,0,0,1,2.879-.727h1.039v-.484a1.393,1.393,0,0,0-.3-.937,1.183,1.183,0,0,0-.949-.352,1.345,1.345,0,0,0-.895.273.929.929,0,0,0-.324.75H63.2a2.268,2.268,0,0,1,.453-1.359,3,3,0,0,1,1.281-.98,4.669,4.669,0,0,1,1.859-.355,3.689,3.689,0,0,1,2.48.785,2.747,2.747,0,0,1,.918,2.207v3.664a4.041,4.041,0,0,0,.336,1.82V42Zm-1.867-1.57a1.945,1.945,0,0,0,.922-.223,1.462,1.462,0,0,0,.625-.6V38.156h-.844q-1.7,0-1.8,1.172l-.008.133a.9.9,0,0,0,.3.7A1.153,1.153,0,0,0,66.379,40.43Z" transform="translate(599 2522)" fill="#fff"/>
    <path id="Trazado_210470" data-name="Trazado 210470" d="M12.684,13.211A4.025,4.025,0,0,1,11.328,16.1a4.76,4.76,0,0,1-3.223,1.055,4.28,4.28,0,0,1-3.441-1.473A6.038,6.038,0,0,1,3.41,11.641v-.7a6.819,6.819,0,0,1,.578-2.891A4.332,4.332,0,0,1,5.641,6.137a4.629,4.629,0,0,1,2.5-.668,4.637,4.637,0,0,1,3.172,1.055A4.326,4.326,0,0,1,12.7,9.484H10.355a2.376,2.376,0,0,0-.613-1.6,2.271,2.271,0,0,0-1.605-.5,1.991,1.991,0,0,0-1.754.84,4.707,4.707,0,0,0-.6,2.605V11.7a5.038,5.038,0,0,0,.559,2.7,1.954,1.954,0,0,0,1.762.852,2.314,2.314,0,0,0,1.621-.5,2.241,2.241,0,0,0,.613-1.535Zm1.039-.516a5.013,5.013,0,0,1,.484-2.242A3.546,3.546,0,0,1,15.6,8.93a4.069,4.069,0,0,1,2.113-.539,3.849,3.849,0,0,1,2.793,1.047,4.2,4.2,0,0,1,1.207,2.844l.016.578a4.418,4.418,0,0,1-1.086,3.121,3.775,3.775,0,0,1-2.914,1.176,3.793,3.793,0,0,1-2.918-1.172,4.5,4.5,0,0,1-1.09-3.187Zm2.258.16a3.16,3.16,0,0,0,.453,1.843,1.628,1.628,0,0,0,2.578.008,3.457,3.457,0,0,0,.461-2.015,3.128,3.128,0,0,0-.461-1.831,1.5,1.5,0,0,0-1.3-.649,1.474,1.474,0,0,0-1.281.646A3.516,3.516,0,0,0,15.98,12.856ZM25.2,8.547l.07.977A2.951,2.951,0,0,1,27.7,8.391a2.453,2.453,0,0,1,2,.789,3.682,3.682,0,0,1,.672,2.359V17H28.113V11.594a1.465,1.465,0,0,0-.312-1.043,1.4,1.4,0,0,0-1.039-.324,1.553,1.553,0,0,0-1.43.813V17H23.074V8.547Zm10.4,6.789a1.481,1.481,0,0,0,1.016-.344,1.2,1.2,0,0,0,.406-.914h2.117a2.9,2.9,0,0,1-.469,1.574,3.093,3.093,0,0,1-1.262,1.109,3.949,3.949,0,0,1-1.77.395A3.67,3.67,0,0,1,32.777,16,4.56,4.56,0,0,1,31.73,12.82v-.148A4.508,4.508,0,0,1,32.77,9.555a3.627,3.627,0,0,1,2.852-1.164,3.555,3.555,0,0,1,2.543.9,3.2,3.2,0,0,1,.973,2.4H37.02a1.551,1.551,0,0,0-.406-1.072,1.51,1.51,0,0,0-2.223.163,3.333,3.333,0,0,0-.4,1.866v.235a3.375,3.375,0,0,0,.4,1.878A1.377,1.377,0,0,0,35.6,15.336ZM42.809,17H40.543V5h2.266Zm6.922-.859a2.831,2.831,0,0,1-2.312,1.016,2.67,2.67,0,0,1-2.074-.781,3.335,3.335,0,0,1-.73-2.289V8.547h2.258v5.467q0,1.322,1.2,1.322a1.63,1.63,0,0,0,1.578-.8V8.547h2.266V17H49.793ZM58.2,14.664a.727.727,0,0,0-.41-.652,4.659,4.659,0,0,0-1.316-.426q-3.016-.633-3.016-2.562a2.323,2.323,0,0,1,.934-1.879,3.766,3.766,0,0,1,2.441-.754,4.053,4.053,0,0,1,2.574.758,2.388,2.388,0,0,1,.965,1.969H58.113a1.092,1.092,0,0,0-.312-.8A1.322,1.322,0,0,0,56.824,10a1.351,1.351,0,0,0-.883.258.814.814,0,0,0-.312.656.7.7,0,0,0,.355.605,3.657,3.657,0,0,0,1.2.4,9.8,9.8,0,0,1,1.422.379,2.336,2.336,0,0,1,1.789,2.273,2.2,2.2,0,0,1-.992,1.871,4.28,4.28,0,0,1-2.562.715,4.47,4.47,0,0,1-1.887-.379,3.166,3.166,0,0,1-1.293-1.039,2.414,2.414,0,0,1-.469-1.426h2.141a1.179,1.179,0,0,0,.445.922,1.766,1.766,0,0,0,1.109.32,1.635,1.635,0,0,0,.98-.246A.766.766,0,0,0,58.2,14.664ZM64.23,17H61.965V8.547H64.23Zm-2.4-10.641a1.112,1.112,0,0,1,.34-.836,1.465,1.465,0,0,1,1.848,0,1.105,1.105,0,0,1,.344.836,1.108,1.108,0,0,1-.348.844,1.448,1.448,0,0,1-1.836,0A1.108,1.108,0,0,1,61.832,6.359ZM65.738,12.7a5.013,5.013,0,0,1,.484-2.242A3.546,3.546,0,0,1,67.617,8.93a4.069,4.069,0,0,1,2.113-.539,3.849,3.849,0,0,1,2.793,1.047,4.2,4.2,0,0,1,1.207,2.844l.016.578A4.418,4.418,0,0,1,72.66,15.98a4.209,4.209,0,0,1-5.832,0,4.5,4.5,0,0,1-1.09-3.187Zm2.258.16a3.16,3.16,0,0,0,.453,1.843,1.628,1.628,0,0,0,2.578.008,3.457,3.457,0,0,0,.461-2.015,3.128,3.128,0,0,0-.461-1.831,1.5,1.5,0,0,0-1.3-.649,1.474,1.474,0,0,0-1.281.646A3.516,3.516,0,0,0,68,12.856ZM70.176,5h2.461L70.473,7.422H68.637Zm7.039,3.547.07.977a2.951,2.951,0,0,1,2.43-1.133,2.453,2.453,0,0,1,2,.789,3.682,3.682,0,0,1,.672,2.359V17H80.129V11.594a1.465,1.465,0,0,0-.312-1.043,1.4,1.4,0,0,0-1.039-.324,1.553,1.553,0,0,0-1.43.813V17H75.09V8.547ZM87.73,12.7a5.013,5.013,0,0,1,.484-2.242A3.546,3.546,0,0,1,89.609,8.93a4.069,4.069,0,0,1,2.113-.539,3.849,3.849,0,0,1,2.793,1.047,4.2,4.2,0,0,1,1.207,2.844l.016.578a4.418,4.418,0,0,1-1.086,3.121,4.209,4.209,0,0,1-5.832,0A4.5,4.5,0,0,1,87.73,12.8Zm2.258.16a3.16,3.16,0,0,0,.453,1.843,1.628,1.628,0,0,0,2.578.008,3.457,3.457,0,0,0,.461-2.015,3.128,3.128,0,0,0-.461-1.831,1.5,1.5,0,0,0-1.3-.649,1.474,1.474,0,0,0-1.281.646A3.516,3.516,0,0,0,89.988,12.856ZM22.113,34.469a2.818,2.818,0,0,1,2.258-1.078q2.75,0,2.789,3.2V42H24.9V36.648a1.57,1.57,0,0,0-.312-1.074,1.34,1.34,0,0,0-1.039-.348,1.537,1.537,0,0,0-1.437.766V42H19.855V30h2.258ZM33.762,42a2.507,2.507,0,0,1-.227-.758,2.732,2.732,0,0,1-2.133.914,3,3,0,0,1-2.059-.719,2.312,2.312,0,0,1-.816-1.812,2.389,2.389,0,0,1,1-2.062,4.915,4.915,0,0,1,2.879-.727h1.039v-.484a1.393,1.393,0,0,0-.3-.937,1.183,1.183,0,0,0-.949-.352,1.345,1.345,0,0,0-.895.273.929.929,0,0,0-.324.75H28.715a2.268,2.268,0,0,1,.453-1.359,3,3,0,0,1,1.281-.98,4.669,4.669,0,0,1,1.859-.355,3.689,3.689,0,0,1,2.48.785,2.747,2.747,0,0,1,.918,2.207v3.664a4.041,4.041,0,0,0,.336,1.82V42Zm-1.867-1.57a1.945,1.945,0,0,0,.922-.223,1.462,1.462,0,0,0,.625-.6V38.156H32.6q-1.7,0-1.8,1.172l-.008.133a.9.9,0,0,0,.3.7A1.153,1.153,0,0,0,31.895,40.43ZM39.824,42H37.559V30h2.266Zm4.242,0H41.8V30h2.266Zm6.758,0a2.507,2.507,0,0,1-.227-.758,2.732,2.732,0,0,1-2.133.914,3,3,0,0,1-2.059-.719,2.312,2.312,0,0,1-.816-1.812,2.389,2.389,0,0,1,1-2.062,4.915,4.915,0,0,1,2.879-.727H50.5v-.484a1.393,1.393,0,0,0-.3-.937,1.183,1.183,0,0,0-.949-.352,1.345,1.345,0,0,0-.895.273.929.929,0,0,0-.324.75H45.777a2.268,2.268,0,0,1,.453-1.359,3,3,0,0,1,1.281-.98,4.669,4.669,0,0,1,1.859-.355,3.689,3.689,0,0,1,2.48.785,2.747,2.747,0,0,1,.918,2.207v3.664a4.041,4.041,0,0,0,.336,1.82V42Zm-1.867-1.57a1.945,1.945,0,0,0,.922-.223,1.462,1.462,0,0,0,.625-.6V38.156H49.66q-1.7,0-1.8,1.172l-.008.133a.9.9,0,0,0,.3.7A1.153,1.153,0,0,0,48.957,40.43Zm8.141-.25H61.23V42H54.215V40.625l3.977-5.258H54.332v-1.82h6.773v1.33Zm5.219-2.469a4.954,4.954,0,0,1,.926-3.133,3,3,0,0,1,2.5-1.187,2.631,2.631,0,0,1,2.164.953l.094-.8h2.047v8.172a3.613,3.613,0,0,1-.5,1.93,3.236,3.236,0,0,1-1.418,1.25,4.985,4.985,0,0,1-2.141.43,4.635,4.635,0,0,1-1.812-.371A3.217,3.217,0,0,1,62.832,44l1-1.375a2.645,2.645,0,0,0,2.047.945,1.936,1.936,0,0,0,1.4-.48,1.8,1.8,0,0,0,.5-1.363v-.453a2.612,2.612,0,0,1-2.055.883,2.992,2.992,0,0,1-2.465-1.191,4.953,4.953,0,0,1-.941-3.16Zm2.258.168a3.085,3.085,0,0,0,.461,1.8,1.466,1.466,0,0,0,1.266.653,1.568,1.568,0,0,0,1.477-.775V36a1.564,1.564,0,0,0-1.461-.775,1.476,1.476,0,0,0-1.277.665A3.477,3.477,0,0,0,64.574,37.879Zm6.852-.184a5.013,5.013,0,0,1,.484-2.242A3.546,3.546,0,0,1,73.3,33.93a4.069,4.069,0,0,1,2.113-.539,3.849,3.849,0,0,1,2.793,1.047,4.2,4.2,0,0,1,1.207,2.844l.016.578a4.418,4.418,0,0,1-1.086,3.121,4.209,4.209,0,0,1-5.832,0,4.5,4.5,0,0,1-1.09-3.187Zm2.258.16a3.16,3.16,0,0,0,.453,1.843,1.628,1.628,0,0,0,2.578.008,3.457,3.457,0,0,0,.461-2.015,3.128,3.128,0,0,0-.461-1.831,1.5,1.5,0,0,0-1.3-.649,1.474,1.474,0,0,0-1.281.646A3.516,3.516,0,0,0,73.684,37.856Z" transform="translate(903 2522)" fill="#fff"/>
    <path id="Trazado_210471" data-name="Trazado 210471" d="M16.266,14.656H12.156L11.375,17H8.883L13.117,5.625h2.172L19.547,17H17.055Zm-3.477-1.9h2.844L14.2,8.5Zm11.188,2.578a1.481,1.481,0,0,0,1.016-.344,1.2,1.2,0,0,0,.406-.914h2.117a2.9,2.9,0,0,1-.469,1.574,3.093,3.093,0,0,1-1.262,1.109,3.949,3.949,0,0,1-1.77.395A3.67,3.67,0,0,1,21.156,16a4.56,4.56,0,0,1-1.047-3.184v-.148a4.508,4.508,0,0,1,1.039-3.117A3.627,3.627,0,0,1,24,8.391a3.555,3.555,0,0,1,2.543.9,3.2,3.2,0,0,1,.973,2.4H25.4a1.551,1.551,0,0,0-.406-1.072,1.51,1.51,0,0,0-2.223.163,3.333,3.333,0,0,0-.4,1.866v.235a3.375,3.375,0,0,0,.4,1.878A1.377,1.377,0,0,0,23.977,15.336Zm8.719,1.82a4.15,4.15,0,0,1-3.027-1.141A4.054,4.054,0,0,1,28.5,12.977v-.219a5.106,5.106,0,0,1,.492-2.277,3.612,3.612,0,0,1,1.395-1.547,3.914,3.914,0,0,1,2.059-.543,3.508,3.508,0,0,1,2.73,1.094,4.444,4.444,0,0,1,1,3.1v.922H30.789a2.1,2.1,0,0,0,.66,1.328,2,2,0,0,0,1.395.5,2.437,2.437,0,0,0,2.039-.945l1.109,1.242a3.389,3.389,0,0,1-1.375,1.121A4.511,4.511,0,0,1,32.7,17.156Zm-.258-6.945a1.411,1.411,0,0,0-1.09.455,2.357,2.357,0,0,0-.535,1.3h3.141v-.181a1.681,1.681,0,0,0-.406-1.165A1.456,1.456,0,0,0,32.438,10.211Zm12.625,2.641a5.07,5.07,0,0,1-.887,3.129,2.843,2.843,0,0,1-2.395,1.176,2.633,2.633,0,0,1-2.07-.891V20.25H37.453V8.547h2.094l.078.828a2.654,2.654,0,0,1,2.141-.984A2.862,2.862,0,0,1,44.2,9.547a5.207,5.207,0,0,1,.867,3.188ZM42.8,12.688a3.327,3.327,0,0,0-.418-1.82,1.361,1.361,0,0,0-1.215-.641,1.479,1.479,0,0,0-1.461.813V14.5a1.5,1.5,0,0,0,1.477.836Q42.8,15.336,42.8,12.688Zm6.359-6.219V8.547h1.445V10.2H49.164v4.219a1.007,1.007,0,0,0,.18.672.9.9,0,0,0,.688.2,3.6,3.6,0,0,0,.664-.055v1.711a4.648,4.648,0,0,1-1.367.2,2.156,2.156,0,0,1-2.422-2.4V10.2H45.672V8.547h1.234V6.469ZM56.766,17a2.507,2.507,0,0,1-.227-.758,2.732,2.732,0,0,1-2.133.914,3,3,0,0,1-2.059-.719,2.312,2.312,0,0,1-.816-1.812,2.389,2.389,0,0,1,1-2.062,4.915,4.915,0,0,1,2.879-.727h1.039v-.484a1.393,1.393,0,0,0-.3-.937,1.183,1.183,0,0,0-.949-.352,1.345,1.345,0,0,0-.895.273.929.929,0,0,0-.324.75H51.719a2.268,2.268,0,0,1,.453-1.359,3,3,0,0,1,1.281-.98,4.669,4.669,0,0,1,1.859-.355,3.689,3.689,0,0,1,2.48.785,2.747,2.747,0,0,1,.918,2.207v3.664a4.041,4.041,0,0,0,.336,1.82V17ZM54.9,15.43a1.945,1.945,0,0,0,.922-.223,1.462,1.462,0,0,0,.625-.6V13.156H55.6q-1.7,0-1.8,1.172l-.008.133a.9.9,0,0,0,.3.7A1.153,1.153,0,0,0,54.9,15.43Zm9.063-.094a1.481,1.481,0,0,0,1.016-.344,1.2,1.2,0,0,0,.406-.914H67.5a2.9,2.9,0,0,1-.469,1.574,3.093,3.093,0,0,1-1.262,1.109,3.949,3.949,0,0,1-1.77.395A3.67,3.67,0,0,1,61.141,16a4.56,4.56,0,0,1-1.047-3.184v-.148a4.508,4.508,0,0,1,1.039-3.117,3.627,3.627,0,0,1,2.852-1.164,3.555,3.555,0,0,1,2.543.9,3.2,3.2,0,0,1,.973,2.4H65.383a1.551,1.551,0,0,0-.406-1.072,1.51,1.51,0,0,0-2.223.163,3.333,3.333,0,0,0-.4,1.866v.235a3.375,3.375,0,0,0,.4,1.878A1.377,1.377,0,0,0,63.961,15.336ZM71.172,17H68.906V8.547h2.266Zm-2.4-10.641a1.112,1.112,0,0,1,.34-.836,1.465,1.465,0,0,1,1.848,0,1.105,1.105,0,0,1,.344.836,1.108,1.108,0,0,1-.348.844,1.448,1.448,0,0,1-1.836,0A1.108,1.108,0,0,1,68.773,6.359ZM72.68,12.7a5.013,5.013,0,0,1,.484-2.242A3.546,3.546,0,0,1,74.559,8.93a4.069,4.069,0,0,1,2.113-.539,3.849,3.849,0,0,1,2.793,1.047,4.2,4.2,0,0,1,1.207,2.844l.016.578A4.418,4.418,0,0,1,79.6,15.98a4.209,4.209,0,0,1-5.832,0A4.5,4.5,0,0,1,72.68,12.8Zm2.258.16a3.16,3.16,0,0,0,.453,1.843,1.628,1.628,0,0,0,2.578.008,3.457,3.457,0,0,0,.461-2.015,3.128,3.128,0,0,0-.461-1.831,1.5,1.5,0,0,0-1.3-.649,1.474,1.474,0,0,0-1.281.646A3.516,3.516,0,0,0,74.938,12.856ZM77.117,5h2.461L77.414,7.422H75.578Zm7.039,3.547.07.977a2.951,2.951,0,0,1,2.43-1.133,2.453,2.453,0,0,1,2,.789,3.682,3.682,0,0,1,.672,2.359V17H87.07V11.594a1.465,1.465,0,0,0-.312-1.043,1.4,1.4,0,0,0-1.039-.324,1.553,1.553,0,0,0-1.43.813V17H82.031V8.547ZM5.652,37.711a5.094,5.094,0,0,1,.887-3.148,2.877,2.877,0,0,1,2.426-1.172A2.589,2.589,0,0,1,11,34.313V30H13.27V42H11.23l-.109-.9a2.657,2.657,0,0,1-2.172,1.055A2.869,2.869,0,0,1,6.555,40.98,5.258,5.258,0,0,1,5.652,37.711Zm2.258.168A3.337,3.337,0,0,0,8.324,39.7a1.349,1.349,0,0,0,1.2.634A1.511,1.511,0,0,0,11,39.452V36.111a1.489,1.489,0,0,0-1.461-.884Q7.91,35.227,7.91,37.879Zm11,4.277a4.15,4.15,0,0,1-3.027-1.141,4.054,4.054,0,0,1-1.168-3.039v-.219a5.106,5.106,0,0,1,.492-2.277A3.612,3.612,0,0,1,16.6,33.934a3.914,3.914,0,0,1,2.059-.543,3.508,3.508,0,0,1,2.73,1.094,4.444,4.444,0,0,1,1,3.1v.922H17a2.1,2.1,0,0,0,.66,1.328,2,2,0,0,0,1.395.5,2.437,2.437,0,0,0,2.039-.945l1.109,1.242a3.389,3.389,0,0,1-1.375,1.121A4.511,4.511,0,0,1,18.91,42.156Zm-.258-6.945a1.411,1.411,0,0,0-1.09.455,2.357,2.357,0,0,0-.535,1.3h3.141v-.181a1.681,1.681,0,0,0-.406-1.165A1.456,1.456,0,0,0,18.652,35.211ZM26.051,42H23.785V30h2.266Zm10.742,0a2.507,2.507,0,0,1-.227-.758,2.732,2.732,0,0,1-2.133.914,3,3,0,0,1-2.059-.719,2.312,2.312,0,0,1-.816-1.812,2.389,2.389,0,0,1,1-2.062,4.915,4.915,0,0,1,2.879-.727h1.039v-.484a1.393,1.393,0,0,0-.3-.937,1.183,1.183,0,0,0-.949-.352,1.345,1.345,0,0,0-.895.273.929.929,0,0,0-.324.75H31.746a2.268,2.268,0,0,1,.453-1.359,3,3,0,0,1,1.281-.98,4.669,4.669,0,0,1,1.859-.355,3.689,3.689,0,0,1,2.48.785,2.747,2.747,0,0,1,.918,2.207v3.664a4.041,4.041,0,0,0,.336,1.82V42Zm-1.867-1.57a1.945,1.945,0,0,0,.922-.223,1.462,1.462,0,0,0,.625-.6V38.156h-.844q-1.7,0-1.8,1.172l-.008.133a.9.9,0,0,0,.3.7A1.153,1.153,0,0,0,34.926,40.43Zm10.609.711a2.831,2.831,0,0,1-2.312,1.016,2.67,2.67,0,0,1-2.074-.781,3.335,3.335,0,0,1-.73-2.289V33.547h2.258v5.467q0,1.322,1.2,1.322a1.63,1.63,0,0,0,1.578-.8V33.547h2.266V42H45.6Zm3.539-3.43a5.094,5.094,0,0,1,.887-3.148,2.877,2.877,0,0,1,2.426-1.172,2.589,2.589,0,0,1,2.039.922V30h2.266V42H54.652l-.109-.9a2.657,2.657,0,0,1-2.172,1.055,2.869,2.869,0,0,1-2.395-1.176A5.258,5.258,0,0,1,49.074,37.711Zm2.258.168a3.337,3.337,0,0,0,.414,1.823,1.349,1.349,0,0,0,1.2.634,1.511,1.511,0,0,0,1.477-.884V36.111a1.489,1.489,0,0,0-1.461-.884Q51.332,35.227,51.332,37.879ZM60.824,42H58.559V33.547h2.266Zm-2.4-10.641a1.112,1.112,0,0,1,.34-.836,1.465,1.465,0,0,1,1.848,0,1.193,1.193,0,0,1,0,1.68,1.448,1.448,0,0,1-1.836,0A1.108,1.108,0,0,1,58.426,31.359Zm6.961.109v2.078h1.445V35.2H65.387v4.219a1.007,1.007,0,0,0,.18.672.9.9,0,0,0,.688.2,3.6,3.6,0,0,0,.664-.055v1.711a4.648,4.648,0,0,1-1.367.2,2.156,2.156,0,0,1-2.422-2.4V35.2H61.895V33.547h1.234V31.469ZM72.988,42a2.507,2.507,0,0,1-.227-.758,2.732,2.732,0,0,1-2.133.914,3,3,0,0,1-2.059-.719,2.312,2.312,0,0,1-.816-1.812,2.389,2.389,0,0,1,1-2.062,4.915,4.915,0,0,1,2.879-.727h1.039v-.484a1.393,1.393,0,0,0-.3-.937,1.183,1.183,0,0,0-.949-.352,1.345,1.345,0,0,0-.895.273.929.929,0,0,0-.324.75H67.941a2.268,2.268,0,0,1,.453-1.359,3,3,0,0,1,1.281-.98,4.669,4.669,0,0,1,1.859-.355,3.689,3.689,0,0,1,2.48.785,2.747,2.747,0,0,1,.918,2.207v3.664a4.041,4.041,0,0,0,.336,1.82V42Zm-1.867-1.57a1.945,1.945,0,0,0,.922-.223,1.462,1.462,0,0,0,.625-.6V38.156h-.844q-1.7,0-1.8,1.172l-.008.133a.9.9,0,0,0,.3.7A1.153,1.153,0,0,0,71.121,40.43Zm5.2-2.719a5.094,5.094,0,0,1,.887-3.148,2.877,2.877,0,0,1,2.426-1.172,2.589,2.589,0,0,1,2.039.922V30h2.266V42H81.895l-.109-.9a2.657,2.657,0,0,1-2.172,1.055,2.869,2.869,0,0,1-2.395-1.176A5.258,5.258,0,0,1,76.316,37.711Zm2.258.168a3.337,3.337,0,0,0,.414,1.823,1.349,1.349,0,0,0,1.2.634,1.511,1.511,0,0,0,1.477-.884V36.111a1.489,1.489,0,0,0-1.461-.884Q78.574,35.227,78.574,37.879Zm6.758-.184a5.013,5.013,0,0,1,.484-2.242,3.546,3.546,0,0,1,1.395-1.523,4.069,4.069,0,0,1,2.113-.539,3.849,3.849,0,0,1,2.793,1.047,4.2,4.2,0,0,1,1.207,2.844l.016.578a4.418,4.418,0,0,1-1.086,3.121,4.209,4.209,0,0,1-5.832,0,4.5,4.5,0,0,1-1.09-3.187Zm2.258.16a3.16,3.16,0,0,0,.453,1.843,1.628,1.628,0,0,0,2.578.008,3.457,3.457,0,0,0,.461-2.015,3.128,3.128,0,0,0-.461-1.831,1.5,1.5,0,0,0-1.3-.649,1.474,1.474,0,0,0-1.281.646A3.516,3.516,0,0,0,87.59,37.856Z" transform="translate(1058 2522)" fill="#fff"/>
    <path id="Trazado_210472" data-name="Trazado 210472" d="M6.367,17V5.625h3.5a5.315,5.315,0,0,1,2.684.676A4.712,4.712,0,0,1,14.4,8.223a5.928,5.928,0,0,1,.664,2.832v.523a5.945,5.945,0,0,1-.652,2.82,4.672,4.672,0,0,1-1.84,1.914A5.355,5.355,0,0,1,9.891,17ZM8.711,7.523v7.594H9.844a2.545,2.545,0,0,0,2.1-.9,4.06,4.06,0,0,0,.742-2.57v-.6a4.124,4.124,0,0,0-.719-2.629,2.537,2.537,0,0,0-2.1-.895ZM16.266,12.7a5.013,5.013,0,0,1,.484-2.242A3.546,3.546,0,0,1,18.145,8.93a4.069,4.069,0,0,1,2.113-.539,3.849,3.849,0,0,1,2.793,1.047,4.2,4.2,0,0,1,1.207,2.844l.016.578a4.418,4.418,0,0,1-1.086,3.121,3.775,3.775,0,0,1-2.914,1.176,3.793,3.793,0,0,1-2.918-1.172,4.5,4.5,0,0,1-1.09-3.187Zm2.258.16a3.16,3.16,0,0,0,.453,1.843,1.628,1.628,0,0,0,2.578.008,3.457,3.457,0,0,0,.461-2.015,3.128,3.128,0,0,0-.461-1.831,1.5,1.5,0,0,0-1.3-.649,1.474,1.474,0,0,0-1.281.646A3.516,3.516,0,0,0,18.523,12.856Zm10.656,2.48a1.481,1.481,0,0,0,1.016-.344,1.2,1.2,0,0,0,.406-.914h2.117a2.9,2.9,0,0,1-.469,1.574,3.093,3.093,0,0,1-1.262,1.109,3.949,3.949,0,0,1-1.77.395A3.67,3.67,0,0,1,26.359,16a4.56,4.56,0,0,1-1.047-3.184v-.148a4.508,4.508,0,0,1,1.039-3.117A3.627,3.627,0,0,1,29.2,8.391a3.555,3.555,0,0,1,2.543.9,3.2,3.2,0,0,1,.973,2.4H30.6a1.551,1.551,0,0,0-.406-1.072,1.51,1.51,0,0,0-2.223.163,3.333,3.333,0,0,0-.4,1.866v.235a3.375,3.375,0,0,0,.4,1.878A1.377,1.377,0,0,0,29.18,15.336Zm9.891.8a2.831,2.831,0,0,1-2.312,1.016,2.67,2.67,0,0,1-2.074-.781,3.335,3.335,0,0,1-.73-2.289V8.547h2.258v5.467q0,1.322,1.2,1.322a1.63,1.63,0,0,0,1.578-.8V8.547h2.266V17H39.133Zm6.008-7.594.07.945a2.971,2.971,0,0,1,2.43-1.1A2.255,2.255,0,0,1,49.82,9.68a2.9,2.9,0,0,1,2.539-1.289,2.521,2.521,0,0,1,2.047.8,3.681,3.681,0,0,1,.672,2.41V17H52.813V11.609a1.61,1.61,0,0,0-.281-1.051,1.246,1.246,0,0,0-.992-.332,1.409,1.409,0,0,0-1.406.969l.008,5.8H47.883V11.617a1.59,1.59,0,0,0-.289-1.062,1.259,1.259,0,0,0-.984-.328,1.463,1.463,0,0,0-1.391.8V17H42.961V8.547ZM60.7,17.156a4.15,4.15,0,0,1-3.027-1.141,4.054,4.054,0,0,1-1.168-3.039v-.219A5.106,5.106,0,0,1,57,10.48a3.612,3.612,0,0,1,1.395-1.547,3.914,3.914,0,0,1,2.059-.543,3.508,3.508,0,0,1,2.73,1.094,4.444,4.444,0,0,1,1,3.1v.922H58.8a2.1,2.1,0,0,0,.66,1.328,2,2,0,0,0,1.395.5,2.437,2.437,0,0,0,2.039-.945L64,15.633a3.389,3.389,0,0,1-1.375,1.121A4.511,4.511,0,0,1,60.7,17.156Zm-.258-6.945a1.411,1.411,0,0,0-1.09.455,2.357,2.357,0,0,0-.535,1.3h3.141v-.181a1.681,1.681,0,0,0-.406-1.165A1.456,1.456,0,0,0,60.445,10.211Zm7.094-1.664.07.977a2.951,2.951,0,0,1,2.43-1.133,2.453,2.453,0,0,1,2,.789,3.682,3.682,0,0,1,.672,2.359V17H70.453V11.594a1.465,1.465,0,0,0-.312-1.043,1.4,1.4,0,0,0-1.039-.324,1.553,1.553,0,0,0-1.43.813V17H65.414V8.547Zm9.586-2.078V8.547H78.57V10.2H77.125v4.219a1.007,1.007,0,0,0,.18.672.9.9,0,0,0,.688.2,3.6,3.6,0,0,0,.664-.055v1.711a4.648,4.648,0,0,1-1.367.2,2.156,2.156,0,0,1-2.422-2.4V10.2H73.633V8.547h1.234V6.469ZM84.727,17a2.507,2.507,0,0,1-.227-.758,2.732,2.732,0,0,1-2.133.914,3,3,0,0,1-2.059-.719,2.312,2.312,0,0,1-.816-1.812,2.389,2.389,0,0,1,1-2.062,4.915,4.915,0,0,1,2.879-.727h1.039v-.484a1.393,1.393,0,0,0-.3-.937,1.183,1.183,0,0,0-.949-.352,1.345,1.345,0,0,0-.895.273.929.929,0,0,0-.324.75H79.68a2.268,2.268,0,0,1,.453-1.359,3,3,0,0,1,1.281-.98,4.669,4.669,0,0,1,1.859-.355,3.689,3.689,0,0,1,2.48.785,2.747,2.747,0,0,1,.918,2.207v3.664a4.041,4.041,0,0,0,.336,1.82V17Zm-1.867-1.57a1.945,1.945,0,0,0,.922-.223,1.462,1.462,0,0,0,.625-.6V13.156h-.844q-1.7,0-1.8,1.172l-.008.133a.9.9,0,0,0,.3.7A1.153,1.153,0,0,0,82.859,15.43Zm10.3-4.766a6.134,6.134,0,0,0-.812-.062,1.654,1.654,0,0,0-1.68.867V17H88.406V8.547h2.133L90.6,9.555a2.092,2.092,0,0,1,1.883-1.164,2.366,2.366,0,0,1,.7.1Zm8.961,6.492a4.15,4.15,0,0,1-3.027-1.141,4.054,4.054,0,0,1-1.168-3.039v-.219a5.106,5.106,0,0,1,.492-2.277,3.612,3.612,0,0,1,1.395-1.547,3.914,3.914,0,0,1,2.059-.543,3.508,3.508,0,0,1,2.73,1.094,4.444,4.444,0,0,1,1,3.1v.922h-5.383a2.1,2.1,0,0,0,.66,1.328,2,2,0,0,0,1.395.5,2.437,2.437,0,0,0,2.039-.945l1.109,1.242a3.389,3.389,0,0,1-1.375,1.121A4.511,4.511,0,0,1,102.117,17.156Zm-.258-6.945a1.411,1.411,0,0,0-1.09.455,2.357,2.357,0,0,0-.535,1.3h3.141v-.181a1.681,1.681,0,0,0-.406-1.165A1.456,1.456,0,0,0,101.859,10.211Zm7.094-1.664.07.977a2.951,2.951,0,0,1,2.43-1.133,2.453,2.453,0,0,1,2,.789,3.682,3.682,0,0,1,.672,2.359V17h-2.258V11.594a1.465,1.465,0,0,0-.312-1.043,1.4,1.4,0,0,0-1.039-.324,1.553,1.553,0,0,0-1.43.813V17h-2.258V8.547ZM122.2,17h-2.266V5H122.2Zm4.242,0H124.18V8.547h2.266Zm-2.4-10.641a1.112,1.112,0,0,1,.34-.836,1.465,1.465,0,0,1,1.848,0,1.105,1.105,0,0,1,.344.836,1.108,1.108,0,0,1-.348.844,1.448,1.448,0,0,1-1.836,0A1.108,1.108,0,0,1,124.047,6.359Zm8.836,8.3a.727.727,0,0,0-.41-.652,4.659,4.659,0,0,0-1.316-.426q-3.016-.633-3.016-2.562a2.323,2.323,0,0,1,.934-1.879,3.766,3.766,0,0,1,2.441-.754,4.053,4.053,0,0,1,2.574.758,2.388,2.388,0,0,1,.965,1.969H132.8a1.092,1.092,0,0,0-.312-.8,1.322,1.322,0,0,0-.977-.316,1.351,1.351,0,0,0-.883.258.814.814,0,0,0-.312.656.7.7,0,0,0,.355.605,3.657,3.657,0,0,0,1.2.4,9.8,9.8,0,0,1,1.422.379,2.336,2.336,0,0,1,1.789,2.273,2.205,2.205,0,0,1-.992,1.871,4.28,4.28,0,0,1-2.562.715,4.47,4.47,0,0,1-1.887-.379,3.166,3.166,0,0,1-1.293-1.039,2.414,2.414,0,0,1-.469-1.426h2.141a1.179,1.179,0,0,0,.445.922,1.766,1.766,0,0,0,1.109.32,1.635,1.635,0,0,0,.98-.246A.766.766,0,0,0,132.883,14.664Zm6.352-8.2V8.547h1.445V10.2h-1.445v4.219a1.007,1.007,0,0,0,.18.672.9.9,0,0,0,.688.2,3.6,3.6,0,0,0,.664-.055v1.711a4.648,4.648,0,0,1-1.367.2,2.156,2.156,0,0,1-2.422-2.4V10.2h-1.234V8.547h1.234V6.469ZM146.836,17a2.507,2.507,0,0,1-.227-.758,2.732,2.732,0,0,1-2.133.914,3,3,0,0,1-2.059-.719,2.312,2.312,0,0,1-.816-1.812,2.389,2.389,0,0,1,1-2.062,4.915,4.915,0,0,1,2.879-.727h1.039v-.484a1.393,1.393,0,0,0-.3-.937,1.183,1.183,0,0,0-.949-.352,1.345,1.345,0,0,0-.895.273.929.929,0,0,0-.324.75h-2.258a2.268,2.268,0,0,1,.453-1.359,3,3,0,0,1,1.281-.98,4.669,4.669,0,0,1,1.859-.355,3.689,3.689,0,0,1,2.48.785,2.747,2.747,0,0,1,.918,2.207v3.664a4.041,4.041,0,0,0,.336,1.82V17Zm-1.867-1.57a1.945,1.945,0,0,0,.922-.223,1.462,1.462,0,0,0,.625-.6V13.156h-.844q-1.7,0-1.8,1.172l-.008.133a.9.9,0,0,0,.3.7A1.153,1.153,0,0,0,144.969,15.43ZM7.082,37.711a5.094,5.094,0,0,1,.887-3.148,2.877,2.877,0,0,1,2.426-1.172,2.589,2.589,0,0,1,2.039.922V30H14.7V42H12.66l-.109-.9a2.657,2.657,0,0,1-2.172,1.055A2.869,2.869,0,0,1,7.984,40.98,5.258,5.258,0,0,1,7.082,37.711Zm2.258.168A3.337,3.337,0,0,0,9.754,39.7a1.349,1.349,0,0,0,1.2.634,1.511,1.511,0,0,0,1.477-.884V36.111a1.489,1.489,0,0,0-1.461-.884Q9.34,35.227,9.34,37.879Zm11,4.277a4.15,4.15,0,0,1-3.027-1.141,4.054,4.054,0,0,1-1.168-3.039v-.219a5.106,5.106,0,0,1,.492-2.277,3.612,3.612,0,0,1,1.395-1.547,3.914,3.914,0,0,1,2.059-.543,3.508,3.508,0,0,1,2.73,1.094,4.444,4.444,0,0,1,1,3.1v.922H18.434a2.1,2.1,0,0,0,.66,1.328,2,2,0,0,0,1.395.5,2.437,2.437,0,0,0,2.039-.945l1.109,1.242a3.389,3.389,0,0,1-1.375,1.121A4.511,4.511,0,0,1,20.34,42.156Zm-.258-6.945a1.411,1.411,0,0,0-1.09.455,2.357,2.357,0,0,0-.535,1.3H21.6v-.181a1.681,1.681,0,0,0-.406-1.165A1.456,1.456,0,0,0,20.082,35.211Zm12.164,4.031,1.57-5.7h2.359L33.324,42H31.168l-2.852-8.453h2.359Zm8.813,2.914a4.15,4.15,0,0,1-3.027-1.141,4.054,4.054,0,0,1-1.168-3.039v-.219a5.106,5.106,0,0,1,.492-2.277,3.612,3.612,0,0,1,1.395-1.547,3.914,3.914,0,0,1,2.059-.543,3.508,3.508,0,0,1,2.73,1.094,4.444,4.444,0,0,1,1,3.1v.922H39.152a2.1,2.1,0,0,0,.66,1.328,2,2,0,0,0,1.395.5,2.437,2.437,0,0,0,2.039-.945l1.109,1.242a3.389,3.389,0,0,1-1.375,1.121A4.511,4.511,0,0,1,41.059,42.156ZM40.8,35.211a1.411,1.411,0,0,0-1.09.455,2.357,2.357,0,0,0-.535,1.3h3.141v-.181a1.681,1.681,0,0,0-.406-1.165A1.456,1.456,0,0,0,40.8,35.211Zm9.766.453a6.134,6.134,0,0,0-.812-.062,1.654,1.654,0,0,0-1.68.867V42H45.816V33.547h2.133l.063,1.008a2.092,2.092,0,0,1,1.883-1.164,2.366,2.366,0,0,1,.7.1ZM54.035,42H51.77V33.547h2.266Zm-2.4-10.641a1.112,1.112,0,0,1,.34-.836,1.465,1.465,0,0,1,1.848,0,1.193,1.193,0,0,1,0,1.68,1.448,1.448,0,0,1-1.836,0A1.108,1.108,0,0,1,51.637,31.359ZM56.441,42V35.2H55.184V33.547h1.258v-.391a3.17,3.17,0,0,1,.98-2.457,3.945,3.945,0,0,1,2.723-.863,9.031,9.031,0,0,1,2.563.461l-.328,1.867a10,10,0,0,0-1.187-.293,5.834,5.834,0,0,0-.906-.066q-1.578,0-1.578,1.4v.344h1.664V35.2H58.707V42Zm7.32,0H61.5V33.547h2.266Zm5.383-1.664a1.481,1.481,0,0,0,1.016-.344,1.2,1.2,0,0,0,.406-.914h2.117a2.9,2.9,0,0,1-.469,1.574,3.093,3.093,0,0,1-1.262,1.109,3.949,3.949,0,0,1-1.77.395A3.67,3.67,0,0,1,66.324,41a4.56,4.56,0,0,1-1.047-3.184v-.148a4.508,4.508,0,0,1,1.039-3.117,3.627,3.627,0,0,1,2.852-1.164,3.555,3.555,0,0,1,2.543.9,3.2,3.2,0,0,1,.973,2.4H70.566a1.551,1.551,0,0,0-.406-1.072,1.51,1.51,0,0,0-2.223.163,3.333,3.333,0,0,0-.4,1.866v.235a3.375,3.375,0,0,0,.4,1.878A1.377,1.377,0,0,0,69.145,40.336ZM78.871,42a2.507,2.507,0,0,1-.227-.758,2.732,2.732,0,0,1-2.133.914,3,3,0,0,1-2.059-.719,2.312,2.312,0,0,1-.816-1.812,2.389,2.389,0,0,1,1-2.062,4.915,4.915,0,0,1,2.879-.727h1.039v-.484a1.393,1.393,0,0,0-.3-.937,1.183,1.183,0,0,0-.949-.352,1.345,1.345,0,0,0-.895.273.929.929,0,0,0-.324.75H73.824a2.268,2.268,0,0,1,.453-1.359,3,3,0,0,1,1.281-.98,4.669,4.669,0,0,1,1.859-.355,3.689,3.689,0,0,1,2.48.785,2.747,2.747,0,0,1,.918,2.207v3.664a4.041,4.041,0,0,0,.336,1.82V42ZM77,40.43a1.945,1.945,0,0,0,.922-.223,1.462,1.462,0,0,0,.625-.6V38.156h-.844q-1.7,0-1.8,1.172l-.008.133a.9.9,0,0,0,.3.7A1.153,1.153,0,0,0,77,40.43Zm9.063-.094a1.481,1.481,0,0,0,1.016-.344,1.2,1.2,0,0,0,.406-.914h2.117a2.9,2.9,0,0,1-.469,1.574,3.093,3.093,0,0,1-1.262,1.109,3.949,3.949,0,0,1-1.77.395A3.67,3.67,0,0,1,83.246,41,4.56,4.56,0,0,1,82.2,37.82v-.148a4.508,4.508,0,0,1,1.039-3.117,3.627,3.627,0,0,1,2.852-1.164,3.555,3.555,0,0,1,2.543.9,3.2,3.2,0,0,1,.973,2.4H87.488a1.551,1.551,0,0,0-.406-1.072,1.51,1.51,0,0,0-2.223.163,3.333,3.333,0,0,0-.4,1.866v.235a3.375,3.375,0,0,0,.4,1.878A1.377,1.377,0,0,0,86.066,40.336ZM93.277,42H91.012V33.547h2.266Zm-2.4-10.641a1.112,1.112,0,0,1,.34-.836,1.465,1.465,0,0,1,1.848,0,1.193,1.193,0,0,1,0,1.68,1.448,1.448,0,0,1-1.836,0A1.108,1.108,0,0,1,90.879,31.359ZM94.785,37.7a5.013,5.013,0,0,1,.484-2.242,3.546,3.546,0,0,1,1.395-1.523,4.069,4.069,0,0,1,2.113-.539,3.849,3.849,0,0,1,2.793,1.047,4.2,4.2,0,0,1,1.207,2.844l.016.578a4.418,4.418,0,0,1-1.086,3.121,4.209,4.209,0,0,1-5.832,0,4.5,4.5,0,0,1-1.09-3.187Zm2.258.16A3.16,3.16,0,0,0,97.5,39.7a1.628,1.628,0,0,0,2.578.008,3.457,3.457,0,0,0,.461-2.015,3.128,3.128,0,0,0-.461-1.831,1.5,1.5,0,0,0-1.3-.649,1.474,1.474,0,0,0-1.281.646A3.516,3.516,0,0,0,97.043,37.856ZM99.223,30h2.461L99.52,32.422H97.684Zm7.039,3.547.07.977a2.951,2.951,0,0,1,2.43-1.133,2.453,2.453,0,0,1,2,.789,3.682,3.682,0,0,1,.672,2.359V42h-2.258V36.594a1.465,1.465,0,0,0-.312-1.043,1.4,1.4,0,0,0-1.039-.324,1.553,1.553,0,0,0-1.43.813V42h-2.258V33.547Zm10.969,3.828a11.99,11.99,0,0,1,.477-3.406,8.989,8.989,0,0,1,1.406-2.863,5.251,5.251,0,0,1,2.016-1.73l.438,1.219a5.438,5.438,0,0,0-1.781,2.609,12.082,12.082,0,0,0-.641,4.125v.242a12.313,12.313,0,0,0,.633,4.141,5.544,5.544,0,0,0,1.789,2.648l-.437,1.2a5.253,5.253,0,0,1-1.98-1.684,8.838,8.838,0,0,1-1.4-2.785,11.918,11.918,0,0,1-.516-3.3Zm10.07-1.742h2.82v2.039H127.3v3.188h-2.148V37.672h-2.828V35.633h2.828V32.578H127.3Zm4.891,7.344h-1.68L134.7,30.625h1.68Zm9.656-4.937h-4.4v-1.82h4.4Zm5.7-.484a11.377,11.377,0,0,1-.508,3.4,9.225,9.225,0,0,1-1.461,2.883,5.264,5.264,0,0,1-2.039,1.719l-.437-1.2a5.494,5.494,0,0,0,1.75-2.578,11.939,11.939,0,0,0,.664-4.008v-.414a12.208,12.208,0,0,0-.637-4.117,5.727,5.727,0,0,0-1.777-2.672l.438-1.2a5.265,5.265,0,0,1,2,1.672,9.106,9.106,0,0,1,1.461,2.82,11.3,11.3,0,0,1,.543,3.336Z" transform="translate(1193 2520)" fill="#fff"/>
    <g id="pregunta" transform="translate(320.5 2697.66)">
      <g id="Grupo_873271" data-name="Grupo 873271" transform="translate(0 0)">
        <g id="Grupo_873270" data-name="Grupo 873270">
          <path id="Trazado_200142" data-name="Trazado 200142" d="M45.324,41.2,42.2,32.113A22.229,22.229,0,1,0,22.252,44.5h.035a22.318,22.318,0,0,0,9.828-2.3l9.09,3.124a3.265,3.265,0,0,0,1.062.179,3.244,3.244,0,0,0,3.055-4.3Zm-2.681,1.437a.521.521,0,0,1-.56.129L32.45,39.46a1.349,1.349,0,0,0-1.069.083,19.545,19.545,0,1,1,8.165-8.165,1.349,1.349,0,0,0-.083,1.069l3.31,9.633A.521.521,0,0,1,42.643,42.641Z" transform="translate(-0.003 0)" fill="#fff"/>
        </g>
      </g>
      <g id="Grupo_873273" data-name="Grupo 873273" transform="translate(20.681 32.237)">
        <g id="Grupo_873272" data-name="Grupo 873272" transform="translate(0 0)">
          <path id="Trazado_200143" data-name="Trazado 200143" d="M234.069,362.748a1.349,1.349,0,1,0,1.349,1.349A1.364,1.364,0,0,0,234.069,362.748Z" transform="translate(-232.719 -362.748)" fill="#fff"/>
        </g>
      </g>
      <g id="Grupo_873275" data-name="Grupo 873275" transform="translate(15.32 11.346)">
        <g id="Grupo_873274" data-name="Grupo 873274">
          <path id="Trazado_200144" data-name="Trazado 200144" d="M179.106,127.674a6.718,6.718,0,0,0-6.711,6.711,1.349,1.349,0,1,0,2.7,0,4.013,4.013,0,1,1,4.013,4.013,1.349,1.349,0,0,0-1.349,1.349v5.5a1.349,1.349,0,1,0,2.7,0v-4.289a6.711,6.711,0,0,0-1.349-13.285Z" transform="translate(-172.395 -127.674)" fill="#fff"/>
        </g>
      </g>
    </g>
    <g id="oido_1_" data-name="oido(1)" transform="translate(474 2697.263)">
      <g id="Grupo_873277" data-name="Grupo 873277" transform="translate(0 0)">
        <g id="Grupo_873276" data-name="Grupo 873276">
          <path id="Trazado_200145" data-name="Trazado 200145" d="M29.582,14.791A14.791,14.791,0,1,0,0,14.791,60.454,60.454,0,0,0,1.368,25.84,58.445,58.445,0,0,1,2.689,36.4a9.413,9.413,0,1,0,18.825,0,10.363,10.363,0,0,0-.191-1.985c-.656-3.206,1.705-6.938,3.927-9.16A14.694,14.694,0,0,0,29.582,14.791ZM18.688,34.949a7.682,7.682,0,0,1,.137,1.446,6.724,6.724,0,1,1-13.446,0A60.454,60.454,0,0,0,4.011,25.346,58.445,58.445,0,0,1,2.689,14.791a12.1,12.1,0,1,1,20.659,8.557C20.526,26.171,17.819,30.7,18.688,34.949Z" transform="translate(0 0)" fill="#fff"/>
        </g>
      </g>
      <g id="Grupo_873279" data-name="Grupo 873279" transform="translate(5.379 5.379)">
        <g id="Grupo_873278" data-name="Grupo 873278">
          <path id="Trazado_200146" data-name="Trazado 200146" d="M71.171,60.163A9.426,9.426,0,0,0,60,69.414a54.941,54.941,0,0,0,1.276,10.016c.211,1.121.429,2.279.625,3.434a4.765,4.765,0,0,0,9.381.2A9.777,9.777,0,0,0,69.54,74.2a9.375,9.375,0,0,0-6.812-3.434q-.038-.684-.038-1.356A6.725,6.725,0,1,1,74.167,74.17l1.9,1.9A9.418,9.418,0,0,0,71.171,60.163ZM67.46,75.909a7.231,7.231,0,0,1,1.184,6.625,2.085,2.085,0,0,1-2.039,1.671,2.107,2.107,0,0,1-2.054-1.791c-.2-1.178-.42-2.349-.635-3.489-.352-1.87-.693-3.683-.926-5.438A6.7,6.7,0,0,1,67.46,75.909Z" transform="translate(-60 -60.002)" fill="#fff"/>
        </g>
      </g>
      <g id="Grupo_873281" data-name="Grupo 873281" transform="translate(32.359 20.964)">
        <g id="Grupo_873280" data-name="Grupo 873280" transform="translate(0 0)">
          <rect id="Rectángulo_66862" data-name="Rectángulo 66862" width="13.675" height="3.419" fill="#fff"/>
        </g>
      </g>
      <g id="Grupo_873283" data-name="Grupo 873283" transform="translate(33.103 32.412)">
        <g id="Grupo_873282" data-name="Grupo 873282" transform="translate(0 0)">
          <rect id="Rectángulo_66863" data-name="Rectángulo 66863" width="2.689" height="12.026" transform="matrix(0.447, -0.894, 0.894, 0.447, 0, 2.405)" fill="#fff"/>
        </g>
      </g>
      <g id="Grupo_873285" data-name="Grupo 873285" transform="translate(33.105 5.521)">
        <g id="Grupo_873284" data-name="Grupo 873284" transform="translate(0 0)">
          <rect id="Rectángulo_66864" data-name="Rectángulo 66864" width="12.026" height="2.689" transform="matrix(0.894, -0.447, 0.447, 0.894, 0, 5.378)" fill="#fff"/>
        </g>
      </g>
    </g>
    <g id="comunicacion" transform="translate(626 2697.345)">
      <path id="Trazado_200147" data-name="Trazado 200147" d="M50.011,34.758l-4.471-.745V32.387a5.83,5.83,0,0,0,2.717-3.575h.191a2.9,2.9,0,0,0,.763-5.7A4.357,4.357,0,0,0,46.994,15a2.893,2.893,0,0,0-2.089.893A5.6,5.6,0,0,0,41.876,15h-.984A5.61,5.61,0,0,0,36.3,17.381l-.59.393a4.04,4.04,0,0,0-1.679,4.342l.5,2.012a2.892,2.892,0,0,0,2.284,4.686h.191a5.832,5.832,0,0,0,2.717,3.575v1.626l-4.471.744A5.073,5.073,0,0,0,31,39.778V49.9H54.263V39.778A5.073,5.073,0,0,0,50.011,34.758Zm-9.876.661,1.578,2.1-1.442,1.8-.387-3.865ZM42.5,42.625h.262l1.163,5.816H41.338Zm.366-1.454H42.4l-.581-1.452.816-1.02.816,1.019Zm.685-3.649,1.578-2.1.252.042-.387,3.865ZM49.9,25.9a1.455,1.455,0,0,1-1.454,1.454V24.451A1.455,1.455,0,0,1,49.9,25.9ZM36.513,18.983l.827-.551.081-.121a4.161,4.161,0,0,1,3.47-1.857h.984a4.16,4.16,0,0,1,2.314.7l.007,0a2.871,2.871,0,0,0,2.8,3.658h1.454V19.362H46.994a1.454,1.454,0,0,1,0-2.908,2.908,2.908,0,0,1,0,5.816H39a.727.727,0,0,1,0-1.454h.727V19.362H39a2.184,2.184,0,0,0-2.181,2.181V23a2.884,2.884,0,0,0-1.02.194l-.357-1.428a2.621,2.621,0,0,1-.077-.628,2.581,2.581,0,0,1,1.152-2.152ZM35.362,25.9a1.455,1.455,0,0,1,1.454-1.454v2.908A1.455,1.455,0,0,1,35.362,25.9Zm2.908,1.454V23.59a2.156,2.156,0,0,0,.727.134h8v3.635a4.362,4.362,0,1,1-8.724,0Zm4.362,5.816a5.781,5.781,0,0,0,1.454-.191v1.4l-1.454,1.938-1.454-1.938v-1.4A5.781,5.781,0,0,0,42.632,33.175Zm-10.178,6.6a3.625,3.625,0,0,1,3.037-3.586l2.954-.492.732,7.318,1.594-1.993.377.944-1.295,6.473H36.816v-8H35.362v8H32.454Zm20.355,8.663H49.9v-8H48.448v8H45.409l-1.295-6.474.377-.944,1.594,1.993.732-7.318,2.954.492a3.626,3.626,0,0,1,3.037,3.587Z" transform="translate(-9.191 -4.822)" fill="#fff"/>
      <path id="Trazado_200148" data-name="Trazado 200148" d="M48.362,33H46.908a.727.727,0,1,1-1.454,0H44a2.181,2.181,0,1,0,4.362,0Z" transform="translate(-12.74 -9.737)" fill="#fff"/>
      <path id="Trazado_200149" data-name="Trazado 200149" d="M11.9,17H10.451a6.55,6.55,0,0,0-6.543,6.543v2.565A13.107,13.107,0,0,1,2.53,31.942,14.586,14.586,0,0,0,1,38.426v.384a4.35,4.35,0,0,0,1.454,3.242v8.389H18.448V48.613A15.5,15.5,0,0,0,14.086,37.8V35.9h1a2.645,2.645,0,0,0,1.176-.278,2.617,2.617,0,0,0,1.454-2.353V31.337L19.9,30.61v-.524a29.184,29.184,0,0,0-1.461-6.68A6.547,6.547,0,0,0,11.9,17ZM2.454,38.426a13.1,13.1,0,0,1,1.378-5.833,14.592,14.592,0,0,0,1.53-6.485V23.543a5.1,5.1,0,0,1,5.089-5.089H11.9a5.092,5.092,0,0,1,5.031,4.362H12.009a2.538,2.538,0,0,0-2.5,2.167l-.419,2.934a2.524,2.524,0,0,0-.88,4.77l.058.029V38.81a2.908,2.908,0,1,1-5.816,0Zm1.454,9.108H8.27v1.454H3.908Zm13.086,1.454H9.724V43.171H8.27v2.908H3.908V42.917A4.35,4.35,0,0,0,9.724,38.81h3.33a14.07,14.07,0,0,1,3.94,9.8Zm-.727-18.7v2.983a1.177,1.177,0,0,1-1.176,1.176H11.178V35.9h1.454v1.454H9.724V31.817l-.863-.431a1.07,1.07,0,0,1,.479-2.028h1.015l.6-4.17a1.074,1.074,0,0,1,1.059-.919h5.18a30.523,30.523,0,0,1,1.233,5.3Z" transform="translate(-1 -5.368)" fill="#fff"/>
      <ellipse id="Elipse_4714" data-name="Elipse 4714" cx="0.5" cy="1" rx="0.5" ry="1" transform="translate(14 20.073)" fill="#fff"/>
      <path id="Trazado_200150" data-name="Trazado 200150" d="M21,5H31.178V6.454H21Z" transform="translate(-6.46 -2.092)" fill="#fff"/>
      <path id="Trazado_200151" data-name="Trazado 200151" d="M21,9h7.27v1.454H21Z" transform="translate(-6.46 -3.184)" fill="#fff"/>
      <path id="Trazado_200152" data-name="Trazado 200152" d="M33,9h1.454v1.454H33Z" transform="translate(-9.737 -3.184)" fill="#fff"/>
      <path id="Trazado_200153" data-name="Trazado 200153" d="M30.086,12.331V11.178h.121a2.79,2.79,0,0,0,2.787-2.787V3.908A2.911,2.911,0,0,0,30.086,1H19.908A2.911,2.911,0,0,0,17,3.908V8.391a2.79,2.79,0,0,0,2.787,2.787H24.7l2.393,2.393a1.755,1.755,0,0,0,3-1.24Zm-1.968.213L25.3,9.724H19.787a1.335,1.335,0,0,1-1.333-1.333V3.908a1.455,1.455,0,0,1,1.454-1.454H30.086A1.455,1.455,0,0,1,31.54,3.908V8.391a1.335,1.335,0,0,1-1.333,1.333H28.632v2.607A.313.313,0,0,1,28.118,12.544Z" transform="translate(-5.368 -1)" fill="#fff"/>
    </g>
    <g id="investigacion" transform="translate(780.464 2697.344)">
      <path id="Trazado_200154" data-name="Trazado 200154" d="M296.263,128a8.263,8.263,0,1,0,8.263,8.263A8.263,8.263,0,0,0,296.263,128Zm0,15.024a6.761,6.761,0,1,1,6.761-6.761,6.761,6.761,0,0,1-6.761,6.761Z" transform="translate(-262.459 -117.483)" fill="#fff"/>
      <path id="Trazado_200155" data-name="Trazado 200155" d="M278.521,107.271a11.268,11.268,0,1,0-14.635,10.754A2.252,2.252,0,0,0,265,121.415v9.895a2.254,2.254,0,1,0,4.507,0v-9.895a2.252,2.252,0,0,0,1.113-3.39A11.288,11.288,0,0,0,278.521,107.271ZM268,121.544v7.512h-1.5v-7.512Zm-.751,10.517a.752.752,0,0,1-.751-.751v-.751H268v.751A.752.752,0,0,1,267.253,132.061Zm1.5-13.522a.751.751,0,0,1,0,1.5h-3a.751.751,0,1,1,0-1.5Zm-1.5-1.5a9.766,9.766,0,1,1,9.766-9.766A9.766,9.766,0,0,1,267.253,117.037Z" transform="translate(-233.448 -88.491)" fill="#fff"/>
      <path id="Trazado_200156" data-name="Trazado 200156" d="M17.5,17.5h4.2l2.785,2.785a.751.751,0,0,0,.531.22H44.546v2.254h1.5v-6.01A.751.751,0,0,0,45.3,16H16.751a.751.751,0,0,0-.751.751V57.317a.751.751,0,0,0,.751.751h8.263v-1.5H17.5Zm6.321,0h3.885l1.5,1.5H25.326Zm6.01,0h3.134l1.5,1.5H31.335ZM44.546,19H36.594l-1.5-1.5h9.454Z" transform="translate(-16 -16)" fill="#fff"/>
      <path id="Trazado_200157" data-name="Trazado 200157" d="M67.543,132.8l-6.737-28.512,21.2-5.01-.346-1.462L59.729,103a.751.751,0,0,0-.558.9l7.083,29.974a.751.751,0,0,0,.9.558L85.32,130.14l-.346-1.462Z" transform="translate(-55.099 -90.13)" fill="#fff"/>
      <path id="Trazado_200158" data-name="Trazado 200158" d="M0,0H1.5V1.5H0Z" transform="translate(12.124 24.983) rotate(-13.3)" fill="#fff"/>
      <path id="Trazado_200159" data-name="Trazado 200159" d="M0,0H6.741V1.5H0Z" transform="translate(15.048 24.292) rotate(-13.3)" fill="#fff"/>
      <path id="Trazado_200160" data-name="Trazado 200160" d="M0,0H12.081V1.5H0Z" transform="translate(11.353 28.253) rotate(-13.3)" fill="#fff"/>
      <path id="Trazado_200161" data-name="Trazado 200161" d="M0,0H13.686V1.5H0Z" transform="translate(12.044 31.176) rotate(-13.3)" fill="#fff"/>
      <path id="Trazado_200162" data-name="Trazado 200162" d="M0,0H16.523V1.5H0Z" transform="translate(12.736 34.099) rotate(-13.3)" fill="#fff"/>
      <path id="Trazado_200163" data-name="Trazado 200163" d="M0,0H13.519V1.5H0Z" transform="translate(13.427 37.023) rotate(-13.3)" fill="#fff"/>
      <path id="Trazado_200164" data-name="Trazado 200164" d="M119.986,152.215l-12.128,2.866a.751.751,0,0,0-.558.9l1.382,5.849a.75.75,0,0,0,.9.558l10.329-2.441-.346-1.462-9.6,2.268-1.037-4.386,11.4-2.693Z" transform="translate(-98.708 -139.424)" fill="#fff"/>
    </g>
    <g id="portapapeles_1_" data-name="portapapeles(1)" transform="translate(935.608 2697.345)">
      <g id="Grupo_873287" data-name="Grupo 873287" transform="translate(0 0)">
        <g id="Grupo_873286" data-name="Grupo 873286" transform="translate(0)">
          <path id="Trazado_200165" data-name="Trazado 200165" d="M77.765,5.872H73.711V4.058c0-.587-.64-.854-1.227-.854H69.336A4.772,4.772,0,0,0,64.588,0,4.855,4.855,0,0,0,59.84,3.2H56.746c-.587,0-1.174.267-1.174.854V5.872H51.518a4.535,4.535,0,0,0-4.481,4.321V40.761a4.292,4.292,0,0,0,4.481,4.054H77.765a4.292,4.292,0,0,0,4.481-4.054V10.193A4.535,4.535,0,0,0,77.765,5.872ZM57.706,5.338h2.934a1.174,1.174,0,0,0,1.014-.96,3.094,3.094,0,0,1,2.934-2.4,3.041,3.041,0,0,1,2.881,2.4,1.174,1.174,0,0,0,1.067.96h3.041V9.606H57.706ZM80.112,40.761a2.164,2.164,0,0,1-2.347,1.92H51.518a2.164,2.164,0,0,1-2.347-1.92V10.193a2.4,2.4,0,0,1,2.347-2.187h4.054v2.721a1.12,1.12,0,0,0,1.174,1.014H72.484a1.174,1.174,0,0,0,1.227-1.014V8.006h4.054a2.4,2.4,0,0,1,2.347,2.187V40.761Z" transform="translate(-47.037 0)" fill="#fff"/>
          <path id="Trazado_200166" data-name="Trazado 200166" d="M107.533,230.644a1.067,1.067,0,0,0-1.494-.053l-3.414,3.254-1.44-1.494a1.067,1.067,0,0,0-1.494-.053,1.12,1.12,0,0,0,0,1.547l2.187,2.241a.96.96,0,0,0,.747.32,1.067,1.067,0,0,0,.747-.32l4.161-3.948a1.013,1.013,0,0,0,.062-1.432C107.575,230.684,107.554,230.664,107.533,230.644Z" transform="translate(-94.036 -206.794)" fill="#fff"/>
          <path id="Trazado_200167" data-name="Trazado 200167" d="M211.885,256.034h-12.27a1.067,1.067,0,0,0,0,2.134h12.27a1.067,1.067,0,0,0,0-2.134Z" transform="translate(-183.077 -229.89)" fill="#fff"/>
          <path id="Trazado_200168" data-name="Trazado 200168" d="M107.533,147.052a1.067,1.067,0,0,0-1.494-.053l-3.414,3.254-1.44-1.494a1.067,1.067,0,0,0-1.494-.053,1.12,1.12,0,0,0,0,1.547l2.187,2.241a.96.96,0,0,0,.747.32,1.067,1.067,0,0,0,.747-.32l4.161-3.948a1.013,1.013,0,0,0,.062-1.432C107.575,147.092,107.554,147.072,107.533,147.052Z" transform="translate(-94.036 -131.738)" fill="#fff"/>
          <path id="Trazado_200169" data-name="Trazado 200169" d="M211.885,172.442h-12.27a1.067,1.067,0,0,0,0,2.134h12.27a1.067,1.067,0,0,0,0-2.134Z" transform="translate(-183.077 -154.834)" fill="#fff"/>
          <path id="Trazado_200170" data-name="Trazado 200170" d="M107.533,314.235a1.067,1.067,0,0,0-1.494-.053l-3.414,3.254-1.44-1.494a1.067,1.067,0,0,0-1.494-.053,1.12,1.12,0,0,0,0,1.547l2.187,2.241a.96.96,0,0,0,.747.32,1.067,1.067,0,0,0,.747-.32l4.161-3.948a1.013,1.013,0,0,0,.062-1.432C107.575,314.276,107.554,314.255,107.533,314.235Z" transform="translate(-94.036 -281.85)" fill="#fff"/>
          <path id="Trazado_200171" data-name="Trazado 200171" d="M211.885,339.626h-12.27a1.067,1.067,0,0,0,0,2.134h12.27a1.067,1.067,0,0,0,0-2.134Z" transform="translate(-183.077 -304.947)" fill="#fff"/>
        </g>
      </g>
    </g>
    <g id="auditor" transform="translate(1085.213 2697.194)">
      <path id="Trazado_200172" data-name="Trazado 200172" d="M1.5,44.982H32.984a1.493,1.493,0,0,0,.63-.143,2.957,2.957,0,0,0,3.867-2.855V31.489a1.494,1.494,0,0,0-.75-1.291V28.242a10.491,10.491,0,1,0-7.365-19.4A12.744,12.744,0,0,0,4.5,12.748V24.742c0,2.9-1.522,4.536-2.819,5.05a1.444,1.444,0,0,0-.912,1.133,1.526,1.526,0,0,0,.548,1.418A14.412,14.412,0,0,0,3.2,33.612,8.975,8.975,0,0,0,0,40.485v3A1.5,1.5,0,0,0,1.5,44.982Zm13.263-1.5L12.6,37.711a1.506,1.506,0,0,0-1.4-.975H8.633l1.692-3.951,1.981-.99,3.9,11.687ZM6.728,13.567a1.7,1.7,0,0,1,.744,1.219,1.124,1.124,0,0,0,1.27.9c1.561-.241,6.806-1.334,8.766-5.3a.778.778,0,0,1,.888-.375c1.589.391,5.294,1.5,6.612,3.5a10.367,10.367,0,0,0-.043,8.882,8.294,8.294,0,0,1-2.57,3.712l-2.955,2.361a3.613,3.613,0,0,1-4.4,0l-2.953-2.361a8.57,8.57,0,0,1-3.073-6.039,1.5,1.5,0,0,0-1.161-1.379,1.864,1.864,0,0,1-1.219-.815C6,16.832,6,16.242,6,14.045a.493.493,0,0,1,.731-.478Zm20.5,22.58-1.343-3.134a7.5,7.5,0,0,1,5.6,3v5.973a2.968,2.968,0,0,0,.417,1.5H21.321l1.965-5.247h2.564a1.5,1.5,0,0,0,1.378-2.089ZM32.234,30.2a1.494,1.494,0,0,0-.75,1.291v2.3a9.058,9.058,0,0,0-1.5-1.077V27.467a10.39,10.39,0,0,0,2.249.778Zm-3.748,1.816a8.961,8.961,0,0,0-3-.525h-.573l-2.426-1.213V27.952l.843-.675a9.626,9.626,0,0,0,2.58-3.246A10.565,10.565,0,0,0,28.486,26.6ZM14.1,29.637a5.018,5.018,0,0,0,6.274,0l.612-.488v1.469L17.241,41.863,13.493,30.619V29.149Zm4.178,13.846L22.18,31.8l1.981.99,1.689,3.951H23.286a1.505,1.505,0,0,0-1.4.975L19.72,43.483Zm17.7-1.5a1.5,1.5,0,1,1-3,0V31.489h3Zm-.75-11.994h-1.5V28.452c.249.018.5.038.75.038s.5-.02.75-.038ZM43.478,18a9,9,0,1,1-9-9A9,9,0,0,1,43.478,18ZM17.241,1.5A11.191,11.191,0,0,1,28.06,9.714,10.558,10.558,0,0,0,25.811,12.1c-1.748-1.975-5.058-3.049-7.058-3.542a2.265,2.265,0,0,0-2.586,1.169c-1.521,3.073-5.615,4.116-7.3,4.423A3.036,3.036,0,0,0,7.5,12.282a1.881,1.881,0,0,0-1.467-.225A11.249,11.249,0,0,1,17.241,1.5ZM2.225,31.189C3.965,30.5,6,28.4,6,24.742V19.383a3.633,3.633,0,0,0,1.523.786,10.1,10.1,0,0,0,3.631,7.109l.843.675v2.324L9.568,31.489H9a8.927,8.927,0,0,0-4.4,1.156,14.793,14.793,0,0,1-2.374-1.456Zm-.726,9.3a7.5,7.5,0,0,1,7.1-7.476L7.256,36.146a1.5,1.5,0,0,0,1.378,2.09H11.2l1.965,5.247H1.5Z" transform="translate(0 -0.018)" fill="#fff"/>
      <path id="Trazado_200173" data-name="Trazado 200173" d="M43.5,28.993A7.5,7.5,0,0,0,43.5,14a.75.75,0,0,0,0,1.5,6,6,0,1,1-3.331,1.013.75.75,0,0,0-.835-1.246A7.5,7.5,0,0,0,43.5,28.993Z" transform="translate(-9.015 -3.518)" fill="#fff"/>
      <path id="Trazado_200174" data-name="Trazado 200174" d="M42.75,21.249a.75.75,0,0,0,.53-.22l.75-.75a.75.75,0,1,0-1.06-1.06l-.75.75a.75.75,0,0,0,.53,1.28Z" transform="translate(-10.516 -4.77)" fill="#fff"/>
      <path id="Trazado_200175" data-name="Trazado 200175" d="M43.22,25.777a.75.75,0,0,0,1.06,0l4.5-4.5a.75.75,0,1,0-1.06-1.06l-4.5,4.5A.75.75,0,0,0,43.22,25.777Z" transform="translate(-10.766 -5.021)" fill="#fff"/>
    </g>
    <g id="lista-de-verificacion" transform="translate(1239.204 2697.194)">
      <path id="Trazado_200176" data-name="Trazado 200176" d="M192.878,452a.878.878,0,1,0,.621.257A.885.885,0,0,0,192.878,452Zm0,0" transform="translate(-175.138 -412.304)" fill="#fff"/>
      <path id="Trazado_200177" data-name="Trazado 200177" d="M44.027,11.971a3.2,3.2,0,0,0-4.527,0l-4.021,4.021V2.985A2.989,2.989,0,0,0,32.494,0H2.986A2.989,2.989,0,0,0,0,2.985V41.978a2.989,2.989,0,0,0,2.986,2.986H32.494a2.989,2.989,0,0,0,2.986-2.986V25.045L44.027,16.5a3.2,3.2,0,0,0,0-4.527Zm-10.3-8.986V17.748L31.967,19.5V4.39a.878.878,0,0,0-.878-.878H25.219V1.756h7.274A1.231,1.231,0,0,1,33.723,2.985Zm-4.8,24.085,1.186-2.663,1.478,1.478ZM23.463,1.756V5.335a.989.989,0,0,1-.988.988H13a.989.989,0,0,1-.988-.988V1.756Zm9.031,41.452H2.986a1.231,1.231,0,0,1-1.229-1.23V2.985a1.231,1.231,0,0,1,1.229-1.23H10.26V3.512H4.391a.878.878,0,0,0-.878.878V40.573a.878.878,0,0,0,.878.878h9.836a.878.878,0,0,0,0-1.756H5.269V5.269H10.26v.066A2.748,2.748,0,0,0,13,8.079h9.47a2.748,2.748,0,0,0,2.744-2.744V5.269H30.21V21.261l-1,1a.889.889,0,0,0-.181.264l-2.636,5.921a.878.878,0,0,0,1.16,1.16l2.658-1.184V39.695H21.252a.878.878,0,0,0,0,1.756h9.836a.878.878,0,0,0,.878-.878V27.64l1.506-.671a.876.876,0,0,0,.25-.169V41.978a1.231,1.231,0,0,1-1.229,1.23Zm7.018-24.679-6.4,6.4-2.043-2.043,7.919-7.919,2.043,2.043Zm3.273-3.273-.508.508-2.043-2.043.508-.508a1.444,1.444,0,0,1,2.043,2.043Zm0,0" transform="translate(0 0.001)" fill="#fff"/>
      <path id="Trazado_200178" data-name="Trazado 200178" d="M94.5,120H88.878a.878.878,0,0,0-.878.878V126.5a.878.878,0,0,0,.878.878H94.5a.878.878,0,0,0,.878-.878v-5.621A.878.878,0,0,0,94.5,120Zm-.878,5.621H89.756v-3.864h3.864Zm0,0" transform="translate(-80.272 -109.461)" fill="#fff"/>
      <path id="Trazado_200179" data-name="Trazado 200179" d="M94.5,230H88.878a.878.878,0,0,0-.878.878V236.5a.878.878,0,0,0,.878.878H94.5a.878.878,0,0,0,.878-.878v-5.621A.878.878,0,0,0,94.5,230Zm-.878,5.621H89.756v-3.864h3.864Zm0,0" transform="translate(-80.272 -209.801)" fill="#fff"/>
      <path id="Trazado_200180" data-name="Trazado 200180" d="M94.5,340H88.878a.878.878,0,0,0-.878.878V346.5a.878.878,0,0,0,.878.878H94.5a.878.878,0,0,0,.878-.878v-5.621A.878.878,0,0,0,94.5,340Zm-.878,5.621H89.756v-3.864h3.864Zm0,0" transform="translate(-80.272 -310.14)" fill="#fff"/>
      <path id="Trazado_200181" data-name="Trazado 200181" d="M210.612,134.891a.878.878,0,0,0,1.242,0l3.965-3.965a.878.878,0,0,0-1.242-1.242l-3.344,3.344-1.333-1.333a.878.878,0,1,0-1.242,1.242Zm0,0" transform="translate(-190.099 -118.06)" fill="#fff"/>
      <path id="Trazado_200182" data-name="Trazado 200182" d="M210.612,244.893a.878.878,0,0,0,1.242,0l3.965-3.965a.878.878,0,1,0-1.242-1.242l-3.344,3.344L209.9,241.7a.878.878,0,1,0-1.242,1.242Zm0,0" transform="translate(-190.099 -218.402)" fill="#fff"/>
      <path id="Trazado_200183" data-name="Trazado 200183" d="M222.387,353.529l1.362,1.361a.878.878,0,1,0,1.242-1.242l-1.361-1.362,1.361-1.362a.878.878,0,0,0-1.242-1.242l-1.362,1.361-1.361-1.361a.878.878,0,1,0-1.242,1.242l1.362,1.362-1.362,1.362a.878.878,0,0,0,1.242,1.242Zm0,0" transform="translate(-200.248 -318.739)" fill="#fff"/>
    </g>
    <g id="buscar" transform="translate(1311.333 2783.991)">
      <path id="Trazado_200185" data-name="Trazado 200185" d="M83.778,45.413V2H2V108.667H83.778V45.413Z" fill="#ddd"/>
      <path id="Trazado_200186" data-name="Trazado 200186" d="M2,2V92.667H73.111a3.556,3.556,0,0,0,3.556-3.556V2Z" fill="#f2f2f2"/>
      <circle id="Elipse_4715" data-name="Elipse 4715" cx="28.5" cy="28.5" r="28.5" transform="translate(28.834 26.834)" fill="#50bae3"/>
      <path id="Trazado_200187" data-name="Trazado 200187" d="M17,44.445a28.309,28.309,0,0,0,6.933,18.578,28.407,28.407,0,0,0,28.8-46.045A28.35,28.35,0,0,0,17,44.445Z" transform="translate(11.667 10.889)" fill="#6ec5e7"/>
      <path id="Trazado_200188" data-name="Trazado 200188" d="M33,48.015h.681v-.034C33.452,47.986,33.229,48.015,33,48.015Z" transform="translate(24.111 35.763)" fill="#e1a042"/>
      <path id="Trazado_200189" data-name="Trazado 200189" d="M26.865,38H7V55.778H53.222A28.445,28.445,0,0,1,26.865,38Z" transform="translate(3.889 28)" fill="#e1a042"/>
      <path id="Trazado_200190" data-name="Trazado 200190" d="M34.451,20H7V41.335H24.778A28.354,28.354,0,0,1,34.454,20Z" transform="translate(3.889 13.999)" fill="#e1a042"/>
      <ellipse id="Elipse_4716" data-name="Elipse 4716" cx="21.5" cy="21" rx="21.5" ry="21" transform="translate(35.834 34.834)" fill="#f2f2f2"/>
      <path id="Trazado_200191" data-name="Trazado 200191" d="M21,41.333a21.312,21.312,0,0,0,11.911,19.12,28.363,28.363,0,0,0,22.5-35.95A21.309,21.309,0,0,0,21,41.333Z" transform="translate(14.778 14)" fill="#f7fafd"/>
      <path id="Trazado_200192" data-name="Trazado 200192" d="M75.222,65.165a10.057,10.057,0,0,0-2.946-7.111L59.222,45,45,59.222,58.054,72.277a10.057,10.057,0,0,0,17.168-7.111Z" transform="translate(33.445 33.445)" fill="#4197cd"/>
      <path id="Trazado_200193" data-name="Trazado 200193" d="M58.056,45,46.5,56.556,56.888,66.943A10.05,10.05,0,0,0,73.67,62.566a10.016,10.016,0,0,0-2.56-4.512Z" transform="translate(34.611 33.445)" fill="#50bae3"/>
      <path id="Trazado_200194" data-name="Trazado 200194" d="M2,58H83.778v7.111H2Z" transform="translate(0 43.556)" fill="#3b5892"/>
      <g id="Grupo_873288" data-name="Grupo 873288" transform="translate(2 10.889)">
        <path id="Trazado_200195" data-name="Trazado 200195" d="M80.222,58H2v3.556H76.667A3.556,3.556,0,0,0,80.222,58Z" transform="translate(-2 32.667)" fill="#4c6cb5"/>
        <path id="Trazado_200196" data-name="Trazado 200196" d="M35.433,49.578a1.778,1.778,0,0,1-1.244-.514L25.3,40.269l2.489-2.528,7.44,7.36L50.011,25.4l2.844,2.133-16,21.333a1.778,1.778,0,0,1-1.291.711Z" transform="translate(16.122 7.311)" fill="#4c6cb5"/>
        <path id="Trazado_200197" data-name="Trazado 200197" d="M15,7H39.889v3.556H15Z" transform="translate(8.111 -7)" fill="#4c6cb5"/>
        <path id="Trazado_200198" data-name="Trazado 200198" d="M7,11H49.667v3.556H7Z" transform="translate(1.889 -3.889)" fill="#4c6cb5"/>
        <path id="Trazado_200199" data-name="Trazado 200199" d="M33,11H50.778v3.556H33Z" transform="translate(22.111 -3.889)" fill="#4c6cb5"/>
        <path id="Trazado_200200" data-name="Trazado 200200" d="M7,15H24.778v3.556H7Z" transform="translate(1.889 -0.778)" fill="#4c6cb5"/>
        <path id="Trazado_200201" data-name="Trazado 200201" d="M19,15h3.556v3.556H19Z" transform="translate(11.222 -0.778)" fill="#4c6cb5"/>
        <path id="Trazado_200202" data-name="Trazado 200202" d="M31,7h3.556v3.556H31Z" transform="translate(20.556 -7)" fill="#4c6cb5"/>
        <path id="Trazado_200203" data-name="Trazado 200203" d="M7,53H17.667v3.556H7Z" transform="translate(1.889 28.778)" fill="#4c6cb5"/>
        <path id="Trazado_200204" data-name="Trazado 200204" d="M15,53h3.556v3.556H15Z" transform="translate(8.111 28.778)" fill="#4c6cb5"/>
      </g>
      <path id="Trazado_200205" data-name="Trazado 200205" d="M50.2,41.13a28.572,28.572,0,0,1-9.3,8.48l9.956,9.956,8.889-8.889Z" transform="translate(30.256 30.435)" fill="#969696"/>
      <path id="Trazado_200206" data-name="Trazado 200206" d="M43.539,46.241l7.712,7.712a10.013,10.013,0,0,0,1.778,1.387l4.663-4.663L48.145,41.13a28.544,28.544,0,0,1-4.606,5.111Z" transform="translate(32.308 30.435)" fill="#b5b5b5"/>
      <path id="Trazado_200207" data-name="Trazado 200207" d="M23,46.889V38H7V50.444H19.444A3.556,3.556,0,0,0,23,46.889Z" transform="translate(3.889 28)" fill="#f6ba5b"/>
      <path id="Trazado_200208" data-name="Trazado 200208" d="M23,28.889V20H7V32.444H19.444A3.556,3.556,0,0,0,23,28.889Z" transform="translate(3.889 14)" fill="#f6ba5b"/>
    </g>
    <g id="auditoria" transform="translate(192 2784.657)">
      <path id="Trazado_200209" data-name="Trazado 200209" d="M178.654,400.678l-5-16.678H155.119l-5,16.678H144v3.706h40.769v-3.706Zm0,0" transform="translate(-110.644 -295.05)" fill="#e0e0de"/>
      <path id="Trazado_200210" data-name="Trazado 200210" d="M206.667,389.559,205,384H186.468l-1.668,5.559Zm0,0" transform="translate(-141.993 -295.05)" fill="#d6d6d4"/>
      <path id="Trazado_200211" data-name="Trazado 200211" d="M92.656,64h9.266a5.56,5.56,0,0,1,5.559,5.559v57.447H0V69.559A5.56,5.56,0,0,1,5.559,64h5.559" transform="translate(0 -49.175)" fill="#348fd9"/>
      <path id="Trazado_200212" data-name="Trazado 200212" d="M0,336v5.559a5.56,5.56,0,0,0,5.559,5.559h96.362a5.56,5.56,0,0,0,5.559-5.559V336Zm0,0" transform="translate(0 -258.169)" fill="#e0e0de"/>
      <path id="Trazado_200213" data-name="Trazado 200213" d="M114.712,0H53.559A5.56,5.56,0,0,0,48,5.559V77.831h85.243v-59.3Zm0,0" transform="translate(-36.881)" fill="#60d1e0"/>
      <path id="Trazado_200214" data-name="Trazado 200214" d="M104,117.786h72.272v-59.3L169.786,52Zm0,0" transform="translate(-79.909 -39.955)" fill="#5ac6d4"/>
      <path id="Trazado_200215" data-name="Trazado 200215" d="M72,24h3.706v3.706H72Zm0,0" transform="translate(-55.322 -18.441)" fill="#419bc2"/>
      <path id="Trazado_200216" data-name="Trazado 200216" d="M104,24h3.706v3.706H104Zm0,0" transform="translate(-79.909 -18.441)" fill="#419bc2"/>
      <path id="Trazado_200217" data-name="Trazado 200217" d="M136,24h3.706v3.706H136Zm0,0" transform="translate(-104.497 -18.441)" fill="#419bc2"/>
      <path id="Trazado_200220" data-name="Trazado 200220" d="M307.706,79.412a3.706,3.706,0,1,1,3.706-3.706A3.706,3.706,0,0,1,307.706,79.412Zm0-3.706" transform="translate(-233.581 -55.322)" fill="#60d1e0"/>
      <g id="Grupo_873289" data-name="Grupo 873289" transform="translate(16.678 16.678)">
        <path id="Trazado_200224" data-name="Trazado 200224" d="M72,72H90.531v3.706H72Zm0,0" transform="translate(-72 -72)" fill="#419bc2"/>
        <path id="Trazado_200225" data-name="Trazado 200225" d="M72,104H90.531v3.706H72Zm0,0" transform="translate(-72 -96.588)" fill="#419bc2"/>
        <path id="Trazado_200226" data-name="Trazado 200226" d="M72,136H83.119v3.706H72Zm0,0" transform="translate(-72 -121.175)" fill="#419bc2"/>
        <path id="Trazado_200227" data-name="Trazado 200227" d="M376,232h3.706v3.706H376Zm0,0" transform="translate(-305.582 -194.938)" fill="#419bc2"/>
        <path id="Trazado_200228" data-name="Trazado 200228" d="M312,264h18.531v3.706H312Zm0,0" transform="translate(-256.406 -219.525)" fill="#419bc2"/>
        <path id="Trazado_200229" data-name="Trazado 200229" d="M312,296h18.531v3.706H312Zm0,0" transform="translate(-256.406 -244.113)" fill="#419bc2"/>
        <path id="Trazado_200230" data-name="Trazado 200230" d="M312,232h11.119v3.706H312Zm0,0" transform="translate(-256.406 -194.938)" fill="#419bc2"/>
        <path id="Trazado_200231" data-name="Trazado 200231" d="M72,264H84.972v3.706H72Zm0,0" transform="translate(-72 -219.525)" fill="#419bc2"/>
        <path id="Trazado_200232" data-name="Trazado 200232" d="M72,296H90.531v3.706H72Zm0,0" transform="translate(-72 -244.113)" fill="#419bc2"/>
      </g>
      <path id="Trazado_200233" data-name="Trazado 200233" d="M354.531,18.531H343.412A7.413,7.413,0,0,1,336,11.119V0Zm0,0" transform="translate(-258.169)" fill="#9fe4ed"/>
      <path id="Trazado_200234" data-name="Trazado 200234" d="M48,320h85.243v3.706H48Zm0,0" transform="translate(-36.881 -245.875)" fill="#5ac6d4"/>
      <path id="Trazado_200235" data-name="Trazado 200235" d="M0,320H11.119v3.706H0Zm0,0" transform="translate(0 -245.875)" fill="#3086cd"/>
      <path id="Trazado_200236" data-name="Trazado 200236" d="M416,64h3.706v63.006H416Zm0,0" transform="translate(-319.638 -49.175)" fill="#3086cd"/>
      <path id="Trazado_200237" data-name="Trazado 200237" d="M416,320h11.119v3.706H416Zm0,0" transform="translate(-319.638 -245.875)" fill="#3086cd"/>
      <path id="Trazado_200238" data-name="Trazado 200238" d="M382.939,377.38,365.559,360,360,365.559l17.38,17.38a3.931,3.931,0,0,0,5.559-5.559Zm0,0" transform="translate(-276.609 -276.609)" fill="#5c28be"/>
      <path id="Trazado_200239" data-name="Trazado 200239" d="M371.1,365.536,365.559,360,360,365.559l5.537,5.537A27.9,27.9,0,0,0,371.1,365.536Zm0,0" transform="translate(-276.609 -276.609)" fill="#451e8f"/>
      <path id="Trazado_200240" data-name="Trazado 200240" d="M231.594,211.8A27.8,27.8,0,1,1,203.8,184,27.8,27.8,0,0,1,231.594,211.8Zm0,0" transform="translate(-135.231 -141.378)" fill="#7433ee"/>
      <path id="Trazado_200241" data-name="Trazado 200241" d="M248.769,236.384A20.384,20.384,0,1,1,228.384,216,20.384,20.384,0,0,1,248.769,236.384Zm0,0" transform="translate(-159.819 -165.966)" fill="#48add9"/>
      <path id="Trazado_200242" data-name="Trazado 200242" d="M257.356,248.678A16.678,16.678,0,1,1,240.678,232,16.678,16.678,0,0,1,257.356,248.678Zm0,0" transform="translate(-172.113 -178.26)" fill="#4db7e5"/>
      <path id="Trazado_200243" data-name="Trazado 200243" d="M208,273.264c9.858-12.355,30.91-12.355,40.769,0C238.91,285.619,217.858,285.619,208,273.264Zm0,0" transform="translate(-159.819 -202.846)" fill="#d6d6d4"/>
      <path id="Trazado_200244" data-name="Trazado 200244" d="M274.531,273.266A9.266,9.266,0,1,1,265.266,264,9.266,9.266,0,0,1,274.531,273.266Zm0,0" transform="translate(-196.7 -202.847)" fill="#348fd9"/>
      <path id="Trazado_200245" data-name="Trazado 200245" d="M278.819,272.5a28.1,28.1,0,0,1-12.53,13.45,9.234,9.234,0,1,0,12.53-13.45Zm0,0" transform="translate(-204.606 -209.375)" fill="#3086cd"/>
      <path id="Trazado_200246" data-name="Trazado 200246" d="M283.706,295.412a3.706,3.706,0,1,1,3.706-3.706A3.706,3.706,0,0,1,283.706,295.412Zm0-3.706" transform="translate(-215.141 -221.288)" fill="#2a71ad"/>
    </g>
    <path id="Trazado_210473" data-name="Trazado 210473" d="M0,0H1030" transform="translate(285 2930)" fill="none" stroke="#002d52" stroke-width="2"/>
    <path id="Trazado_210474" data-name="Trazado 210474" d="M6,0H113a6,6,0,0,1,6,6V28a6,6,0,0,1-6,6H6a6,6,0,0,1-6-6V6A6,6,0,0,1,6,0Z" transform="translate(184 2913)" fill="#185c8a"/>
    <path id="Trazado_210475" data-name="Trazado 210475" d="M25.344,14.656H21.234L20.453,17H17.961L22.2,5.625h2.172L28.625,17H26.133Zm-3.477-1.9h2.844L23.281,8.5Zm15.281.094a5.07,5.07,0,0,1-.887,3.129,2.843,2.843,0,0,1-2.395,1.176,2.633,2.633,0,0,1-2.07-.891V20.25H29.539V8.547h2.094l.078.828a2.654,2.654,0,0,1,2.141-.984,2.862,2.862,0,0,1,2.43,1.156,5.207,5.207,0,0,1,.867,3.188Zm-2.258-.164a3.327,3.327,0,0,0-.418-1.82,1.361,1.361,0,0,0-1.215-.641,1.479,1.479,0,0,0-1.461.813V14.5a1.5,1.5,0,0,0,1.477.836Q34.891,15.336,34.891,12.688Zm7.547,4.469a4.15,4.15,0,0,1-3.027-1.141,4.054,4.054,0,0,1-1.168-3.039v-.219a5.106,5.106,0,0,1,.492-2.277,3.612,3.612,0,0,1,1.395-1.547,3.914,3.914,0,0,1,2.059-.543,3.508,3.508,0,0,1,2.73,1.094,4.444,4.444,0,0,1,1,3.1v.922H40.531a2.1,2.1,0,0,0,.66,1.328,2,2,0,0,0,1.395.5,2.437,2.437,0,0,0,2.039-.945l1.109,1.242a3.389,3.389,0,0,1-1.375,1.121A4.511,4.511,0,0,1,42.438,17.156Zm-.258-6.945a1.411,1.411,0,0,0-1.09.455,2.357,2.357,0,0,0-.535,1.3H43.7v-.181a1.681,1.681,0,0,0-.406-1.165A1.456,1.456,0,0,0,42.18,10.211Zm9.766.453a6.134,6.134,0,0,0-.812-.062,1.654,1.654,0,0,0-1.68.867V17H47.2V8.547h2.133l.063,1.008a2.092,2.092,0,0,1,1.883-1.164,2.366,2.366,0,0,1,.7.1Zm4.18-4.2V8.547H57.57V10.2H56.125v4.219a1.007,1.007,0,0,0,.18.672.9.9,0,0,0,.688.2,3.6,3.6,0,0,0,.664-.055v1.711a4.648,4.648,0,0,1-1.367.2,2.156,2.156,0,0,1-2.422-2.4V10.2H52.633V8.547h1.234V6.469Zm7.766,9.672a2.831,2.831,0,0,1-2.312,1.016,2.67,2.67,0,0,1-2.074-.781,3.335,3.335,0,0,1-.73-2.289V8.547h2.258v5.467q0,1.322,1.2,1.322a1.63,1.63,0,0,0,1.578-.8V8.547h2.266V17H63.953Zm8.641-5.477a6.134,6.134,0,0,0-.812-.062,1.654,1.654,0,0,0-1.68.867V17H67.781V8.547h2.133l.063,1.008a2.092,2.092,0,0,1,1.883-1.164,2.366,2.366,0,0,1,.7.1ZM78.281,17a2.507,2.507,0,0,1-.227-.758,2.732,2.732,0,0,1-2.133.914,3,3,0,0,1-2.059-.719,2.312,2.312,0,0,1-.816-1.812,2.389,2.389,0,0,1,1-2.062,4.915,4.915,0,0,1,2.879-.727h1.039v-.484a1.393,1.393,0,0,0-.3-.937,1.183,1.183,0,0,0-.949-.352,1.345,1.345,0,0,0-.895.273.929.929,0,0,0-.324.75H73.234a2.268,2.268,0,0,1,.453-1.359,3,3,0,0,1,1.281-.98,4.669,4.669,0,0,1,1.859-.355,3.689,3.689,0,0,1,2.48.785,2.747,2.747,0,0,1,.918,2.207v3.664a4.041,4.041,0,0,0,.336,1.82V17Zm-1.867-1.57a1.945,1.945,0,0,0,.922-.223,1.462,1.462,0,0,0,.625-.6V13.156h-.844q-1.7,0-1.8,1.172l-.008.133a.9.9,0,0,0,.3.7A1.153,1.153,0,0,0,76.414,15.43Z" transform="translate(192 2919)" fill="#fff"/>
    <path id="Trazado_210476" data-name="Trazado 210476" d="M6,0H113a6,6,0,0,1,6,6V28a6,6,0,0,1-6,6H6a6,6,0,0,1-6-6V6A6,6,0,0,1,6,0Z" transform="translate(1301 2913)" fill="#185c8a"/>
    <path id="Trazado_210477" data-name="Trazado 210477" d="M34.137,13.211A4.025,4.025,0,0,1,32.781,16.1a4.76,4.76,0,0,1-3.223,1.055,4.28,4.28,0,0,1-3.441-1.473,6.038,6.038,0,0,1-1.254-4.043v-.7a6.819,6.819,0,0,1,.578-2.891,4.332,4.332,0,0,1,1.652-1.918,4.629,4.629,0,0,1,2.5-.668,4.637,4.637,0,0,1,3.172,1.055,4.326,4.326,0,0,1,1.391,2.961H31.809a2.376,2.376,0,0,0-.613-1.6,2.271,2.271,0,0,0-1.605-.5,1.991,1.991,0,0,0-1.754.84,4.707,4.707,0,0,0-.6,2.605V11.7a5.038,5.038,0,0,0,.559,2.7,1.954,1.954,0,0,0,1.762.852,2.314,2.314,0,0,0,1.621-.5,2.241,2.241,0,0,0,.613-1.535ZM37.91,17H35.645V5H37.91Zm4.242,0H39.887V8.547h2.266Zm-2.4-10.641a1.112,1.112,0,0,1,.34-.836,1.465,1.465,0,0,1,1.848,0,1.105,1.105,0,0,1,.344.836,1.108,1.108,0,0,1-.348.844,1.448,1.448,0,0,1-1.836,0A1.108,1.108,0,0,1,39.754,6.359Zm8.148,10.8a4.15,4.15,0,0,1-3.027-1.141,4.054,4.054,0,0,1-1.168-3.039v-.219A5.106,5.106,0,0,1,44.2,10.48a3.612,3.612,0,0,1,1.395-1.547,3.914,3.914,0,0,1,2.059-.543,3.508,3.508,0,0,1,2.73,1.094,4.444,4.444,0,0,1,1,3.1v.922H46a2.1,2.1,0,0,0,.66,1.328,2,2,0,0,0,1.395.5,2.437,2.437,0,0,0,2.039-.945L51.2,15.633a3.389,3.389,0,0,1-1.375,1.121A4.511,4.511,0,0,1,47.9,17.156Zm-.258-6.945a1.411,1.411,0,0,0-1.09.455,2.357,2.357,0,0,0-.535,1.3H49.16v-.181a1.681,1.681,0,0,0-.406-1.165A1.456,1.456,0,0,0,47.645,10.211Zm7.094-1.664.07.977a2.951,2.951,0,0,1,2.43-1.133,2.453,2.453,0,0,1,2,.789,3.682,3.682,0,0,1,.672,2.359V17H57.652V11.594a1.465,1.465,0,0,0-.312-1.043,1.4,1.4,0,0,0-1.039-.324,1.553,1.553,0,0,0-1.43.813V17H52.613V8.547Zm9.586-2.078V8.547H65.77V10.2H64.324v4.219a1.007,1.007,0,0,0,.18.672.9.9,0,0,0,.688.2,3.6,3.6,0,0,0,.664-.055v1.711a4.648,4.648,0,0,1-1.367.2,2.156,2.156,0,0,1-2.422-2.4V10.2H60.832V8.547h1.234V6.469Zm6.594,10.688a4.15,4.15,0,0,1-3.027-1.141,4.054,4.054,0,0,1-1.168-3.039v-.219a5.106,5.106,0,0,1,.492-2.277,3.612,3.612,0,0,1,1.395-1.547,3.914,3.914,0,0,1,2.059-.543A3.508,3.508,0,0,1,73.4,9.484a4.444,4.444,0,0,1,1,3.1v.922H69.012a2.1,2.1,0,0,0,.66,1.328,2,2,0,0,0,1.395.5,2.437,2.437,0,0,0,2.039-.945l1.109,1.242a3.389,3.389,0,0,1-1.375,1.121A4.511,4.511,0,0,1,70.918,17.156Zm-.258-6.945a1.411,1.411,0,0,0-1.09.455,2.357,2.357,0,0,0-.535,1.3h3.141v-.181a1.681,1.681,0,0,0-.406-1.165A1.456,1.456,0,0,0,70.66,10.211Z" transform="translate(1309 2919)" fill="#fff"/>
    <path id="Trazado_210478" data-name="Trazado 210478" d="M0,59V0" transform="translate(343.5 2572.5)" fill="none" stroke="#002d52" stroke-width="2" stroke-dasharray="2"/>
    <path id="Trazado_210479" data-name="Trazado 210479" d="M0,59V0" transform="translate(495 2572.5)" fill="none" stroke="#002d52" stroke-width="2" stroke-dasharray="2"/>
    <path id="Trazado_210480" data-name="Trazado 210480" d="M0,59V0" transform="translate(648.662 2572.5)" fill="none" stroke="#002d52" stroke-width="2" stroke-dasharray="2"/>
    <path id="Trazado_210481" data-name="Trazado 210481" d="M0,59V0" transform="translate(800.933 2572.5)" fill="none" stroke="#002d52" stroke-width="2" stroke-dasharray="2"/>
    <path id="Trazado_210482" data-name="Trazado 210482" d="M0,59V0" transform="translate(953.909 2572.5)" fill="none" stroke="#002d52" stroke-width="2" stroke-dasharray="2"/>
    <path id="Trazado_210483" data-name="Trazado 210483" d="M0,59V0" transform="translate(1106 2572.5)" fill="none" stroke="#002d52" stroke-width="2" stroke-dasharray="2"/>
    <path id="Trazado_210484" data-name="Trazado 210484" d="M0,59V0" transform="translate(1259.173 2572.5)" fill="none" stroke="#002d52" stroke-width="2" stroke-dasharray="2"/>
    <path id="Trazado_210029" data-name="Trazado 210029" d="M142.445,427.973l-10.258-17.217-10.259,17.217Z" transform="translate(210.944 2367.875)" fill="#002d52"/>
  </g>
</svg>
