<svg id="Grupo_873146" data-name="Grupo 873146" xmlns="http://www.w3.org/2000/svg" xmlns:xlink="http://www.w3.org/1999/xlink" width="139.667" height="103.819" viewBox="0 0 139.667 103.819">
  <defs>
    <clipPath id="clip-path">
      <rect id="Rectángulo_66787" data-name="Rectángulo 66787" width="139.667" height="103.819" fill="none"/>
    </clipPath>
    <clipPath id="clip-path-3">
      <path id="Trazado_199730" data-name="Trazado 199730" d="M290.4,67a.9.9,0,0,1,.858.66l1.682-.571a.784.784,0,0,0-.782-.625A9.176,9.176,0,0,0,290.4,67" transform="translate(-290.401 -66.461)" fill="none"/>
    </clipPath>
    <clipPath id="clip-path-4">
      <path id="Trazado_199732" data-name="Trazado 199732" d="M291.736,66.374l-1.681.573a.551.551,0,0,1,.112-.026l1.682-.573a.55.55,0,0,0-.112.025" transform="translate(-290.054 -66.349)" fill="none"/>
    </clipPath>
    <clipPath id="clip-path-6">
      <path id="Trazado_199735" data-name="Trazado 199735" d="M280.315,35.768a.793.793,0,0,0-.4.821L281.586,36a.794.794,0,0,1,.4-.822l-1.675.593" transform="translate(-279.91 -35.175)" fill="none"/>
    </clipPath>
    <clipPath id="clip-path-7">
      <path id="Trazado_199737" data-name="Trazado 199737" d="M289.141,67a.753.753,0,0,0-.433.771l1.682-.572a.755.755,0,0,1,.433-.773Z" transform="translate(-288.707 -66.428)" fill="none"/>
    </clipPath>
    <clipPath id="clip-path-9">
      <path id="Trazado_199743" data-name="Trazado 199743" d="M281.446,132.125a.82.82,0,0,1-.44.853l1.688-.533a.821.821,0,0,0,.44-.855Z" transform="translate(-281.006 -131.591)" fill="none"/>
    </clipPath>
    <clipPath id="clip-path-10">
      <path id="Trazado_199746" data-name="Trazado 199746" d="M288.233,156.707a.784.784,0,0,1-.472.8l1.693-.517a.785.785,0,0,0,.472-.8Z" transform="translate(-287.761 -156.189)" fill="none"/>
    </clipPath>
    <clipPath id="clip-path-11">
      <path id="Trazado_199748" data-name="Trazado 199748" d="M287.894,158.248a.53.53,0,0,0,.134-.024c-.044.006-.089.014-.134.024m-2.237.275c.633.56,1.505-.116,2.237-.275a.743.743,0,0,1-.544-.242Z" transform="translate(-285.657 -158.006)" fill="none"/>
    </clipPath>
    <clipPath id="clip-path-13">
      <path id="Trazado_199752" data-name="Trazado 199752" d="M264.866,120.649a.6.6,0,0,0-.346.343l1.682-.543a.6.6,0,0,1,.346-.344Z" transform="translate(-264.52 -120.105)" fill="none"/>
    </clipPath>
    <clipPath id="clip-path-14">
      <path id="Trazado_199754" data-name="Trazado 199754" d="M272.026,146.342a.923.923,0,0,0,.113-.023.524.524,0,0,0-.113.023m.113-.023a.74.74,0,0,1,.575.24l1.688-.526a.562.562,0,0,0-.5-.217,8.038,8.038,0,0,0-1.763.5" transform="translate(-272.026 -145.817)" fill="none"/>
    </clipPath>
    <clipPath id="clip-path-15">
      <path id="Trazado_199757" data-name="Trazado 199757" d="M271.261,146.339a.625.625,0,0,0-.363.325l1.687-.526a.626.626,0,0,1,.364-.326Z" transform="translate(-270.898 -145.812)" fill="none"/>
    </clipPath>
    <clipPath id="clip-path-17">
      <path id="Trazado_199761" data-name="Trazado 199761" d="M258.842,132.876a.6.6,0,0,1-.349.348l1.682-.536a.6.6,0,0,0,.35-.348Z" transform="translate(-258.493 -132.339)" fill="none"/>
    </clipPath>
    <clipPath id="clip-path-19">
      <path id="Trazado_199765" data-name="Trazado 199765" d="M264.744,157.846a.63.63,0,0,1-.367.328l1.687-.52a.627.627,0,0,0,.367-.328Z" transform="translate(-264.377 -157.326)" fill="none"/>
    </clipPath>
    <clipPath id="clip-path-20">
      <path id="Trazado_199767" data-name="Trazado 199767" d="M264.052,157.238a.646.646,0,0,0,.086-.019c-.027,0-.056.011-.086.019m-2.517-.032c.347,1.051,1.8.208,2.517.032a.87.87,0,0,1-.83-.554Z" transform="translate(-261.535 -156.684)" fill="none"/>
    </clipPath>
    <clipPath id="clip-path-22">
      <path id="Trazado_199771" data-name="Trazado 199771" d="M225.542,72.459a.839.839,0,0,0-.425.9l1.667-.577a.841.841,0,0,1,.425-.9Z" transform="translate(-225.114 -71.88)" fill="none"/>
    </clipPath>
    <clipPath id="clip-path-23">
      <path id="Trazado_199773" data-name="Trazado 199773" d="M232.348,102.2c.029-.006.06-.014.092-.023a.584.584,0,0,0-.092.023m.092-.023a.865.865,0,0,1,.852.56l1.673-.558a.708.708,0,0,0-.74-.53,7.445,7.445,0,0,0-1.785.527" transform="translate(-232.348 -101.653)" fill="none"/>
    </clipPath>
    <clipPath id="clip-path-24">
      <path id="Trazado_199775" data-name="Trazado 199775" d="M231.381,102.183a.794.794,0,0,0-.458.843l1.672-.558a.794.794,0,0,1,.458-.844l-1.672.559" transform="translate(-230.922 -101.624)" fill="none"/>
    </clipPath>
    <clipPath id="clip-path-26">
      <path id="Trazado_199781" data-name="Trazado 199781" d="M228.245,143.971a.856.856,0,0,1-.451.922l1.677-.532a.857.857,0,0,0,.451-.924Z" transform="translate(-227.794 -143.437)" fill="none"/>
    </clipPath>
    <clipPath id="clip-path-27">
      <path id="Trazado_199784" data-name="Trazado 199784" d="M232.651,168.764a.813.813,0,0,1-.485.867l1.681-.516a.815.815,0,0,0,.486-.869Z" transform="translate(-232.166 -168.246)" fill="none"/>
    </clipPath>
    <clipPath id="clip-path-28">
      <path id="Trazado_199786" data-name="Trazado 199786" d="M231.938,170.127a.6.6,0,0,0,.131-.024c-.043.006-.087.014-.131.024m-2.394.093c.564.867,1.6.088,2.394-.093a.833.833,0,0,1-.714-.424Z" transform="translate(-229.544 -169.703)" fill="none"/>
    </clipPath>
    <clipPath id="clip-path-30">
      <path id="Trazado_199789" data-name="Trazado 199789" d="M199.328,107.231a.771.771,0,0,0-.441.713l1.664-.559a.772.772,0,0,1,.441-.714Z" transform="translate(-198.887 -106.67)" fill="none"/>
    </clipPath>
    <clipPath id="clip-path-32">
      <path id="Trazado_199793" data-name="Trazado 199793" d="M204.334,135.089c.034-.006.071-.014.11-.024a.644.644,0,0,0-.11.024m.11-.024a.833.833,0,0,1,.758.423l1.67-.541a.667.667,0,0,0-.667-.4,7.566,7.566,0,0,0-1.761.514" transform="translate(-204.334 -134.55)" fill="none"/>
    </clipPath>
    <clipPath id="clip-path-33">
      <path id="Trazado_199795" data-name="Trazado 199795" d="M203.346,135.081a.756.756,0,0,0-.47.672l1.669-.542a.756.756,0,0,1,.47-.673l-1.669.543" transform="translate(-202.876 -134.538)" fill="none"/>
    </clipPath>
    <clipPath id="clip-path-35">
      <path id="Trazado_199800" data-name="Trazado 199800" d="M193.973,157.321a.786.786,0,0,1-.46.73l1.669-.529a.786.786,0,0,0,.46-.731Z" transform="translate(-193.513 -156.791)" fill="none"/>
    </clipPath>
    <clipPath id="clip-path-37">
      <path id="Trazado_199804" data-name="Trazado 199804" d="M196.692,181.864a.772.772,0,0,1-.491.689l1.673-.513a.773.773,0,0,0,.491-.69Z" transform="translate(-196.201 -181.35)" fill="none"/>
    </clipPath>
    <clipPath id="clip-path-38">
      <path id="Trazado_199806" data-name="Trazado 199806" d="M196.293,183.082a.561.561,0,0,0,.118-.024,1.014,1.014,0,0,0-.118.024m-2.251.284c.394.541,1.667-.136,2.251-.284a.753.753,0,0,1-.578-.23Z" transform="translate(-194.042 -182.852)" fill="none"/>
    </clipPath>
    <clipPath id="clip-path-40">
      <path id="Trazado_199809" data-name="Trazado 199809" d="M182.639,151.863a.625.625,0,0,0-.364.354l1.665-.534a.625.625,0,0,1,.364-.355Z" transform="translate(-182.275 -151.328)" fill="none"/>
    </clipPath>
    <clipPath id="clip-path-42">
      <path id="Trazado_199812" data-name="Trazado 199812" d="M185.821,177a1.055,1.055,0,0,0,.116-.024.575.575,0,0,0-.116.024m.116-.024a.763.763,0,0,1,.587.229l1.67-.518a.581.581,0,0,0-.5-.208,7.961,7.961,0,0,0-1.758.5" transform="translate(-185.821 -176.482)" fill="none"/>
    </clipPath>
    <clipPath id="clip-path-43">
      <path id="Trazado_199815" data-name="Trazado 199815" d="M185.015,177.005a.662.662,0,0,0-.383.336l1.669-.518a.663.663,0,0,1,.383-.337Z" transform="translate(-184.632 -176.486)" fill="none"/>
    </clipPath>
    <clipPath id="clip-path-45">
      <path id="Trazado_199820" data-name="Trazado 199820" d="M177.964,160.727a.627.627,0,0,1-.367.358l1.665-.529a.627.627,0,0,0,.367-.358Z" transform="translate(-177.597 -160.197)" fill="none"/>
    </clipPath>
    <clipPath id="clip-path-47">
      <path id="Trazado_199824" data-name="Trazado 199824" d="M179.964,185.353a.668.668,0,0,1-.388.341l1.669-.514a.666.666,0,0,0,.388-.341Z" transform="translate(-179.576 -184.839)" fill="none"/>
    </clipPath>
    <clipPath id="clip-path-48">
      <path id="Trazado_199826" data-name="Trazado 199826" d="M179.43,185.249a.6.6,0,0,0,.114-.023,1.068,1.068,0,0,0-.114.023m-2.363.172c.407.729,1.724-.011,2.363-.172a.817.817,0,0,1-.695-.342Z" transform="translate(-177.067 -184.907)" fill="none"/>
    </clipPath>
    <clipPath id="clip-path-50">
      <path id="Trazado_199829" data-name="Trazado 199829" d="M154.359,135.623a.848.848,0,0,0-.463.865l1.656-.547a.849.849,0,0,1,.463-.867Z" transform="translate(-153.896 -135.074)" fill="none"/>
    </clipPath>
    <clipPath id="clip-path-52">
      <path id="Trazado_199832" data-name="Trazado 199832" d="M156.924,162.406c.036-.006.075-.014.117-.025a.565.565,0,0,0-.117.025m.117-.025a.817.817,0,0,1,.707.346l1.66-.53a.646.646,0,0,0-.616-.322,7.578,7.578,0,0,0-1.75.506" transform="translate(-156.924 -161.874)" fill="none"/>
    </clipPath>
    <clipPath id="clip-path-53">
      <path id="Trazado_199834" data-name="Trazado 199834" d="M155.875,162.407a.816.816,0,0,0-.5.813l1.659-.53a.818.818,0,0,1,.5-.815Z" transform="translate(-155.377 -161.875)" fill="none"/>
    </clipPath>
  </defs>
  <g id="Grupo_873039" data-name="Grupo 873039">
    <g id="Grupo_873038" data-name="Grupo 873038" clip-path="url(#clip-path)">
      <path id="Trazado_199723" data-name="Trazado 199723" d="M5.986,31.773c-.371-1.838.1-4.085,1.848-5.058-4.156,2.659-9.4,3.236-7.392,9.52L6.287,33c-.076-.3-.248-.93-.3-1.231" transform="translate(0 -18.108)" fill="#207bb8"/>
      <path id="Trazado_199724" data-name="Trazado 199724" d="M130.787,5.109c-.682-2.626-3.012-5.246-5.863-5.1L21.614,8.189c-3.237.264-3.95,4.1-2.964,6.708L130.988,5.875Z" transform="translate(-12.362 0)" fill="#299ae6"/>
      <path id="Trazado_199725" data-name="Trazado 199725" d="M138.441,122.068c-.79.31-6.079,3.3-6.711,3.3-2.494-.1-102.84,10.569-105.257,9.745a6.884,6.884,0,0,1-4-3.924c-.557-1.2-20.695-80.478-21.1-81.723L7.217,46.23c.168.56,20.776,80.862,20.974,81.363a7.454,7.454,0,0,0,2.716,3.674,4.941,4.941,0,0,0,2.769.951c1.381-.243,103.535-9.54,104.764-10.149" transform="translate(-0.929 -31.335)" fill="#d1d3d4"/>
      <path id="Trazado_199726" data-name="Trazado 199726" d="M131.852,18.234,152.66,97.453a5.72,5.72,0,0,1-.277,4.009,3.341,3.341,0,0,1-2.71,1.909L46.361,113.226c-2.934.2-5.351-2.461-6.042-5.167l-20.806-80.8Z" transform="translate(-13.226 -12.359)" fill="#fff"/>
    </g>
  </g>
  <path id="Trazado_199727" data-name="Trazado 199727" d="M308.876,104.4l-1.707.5-14.1-35.928,1.682-.571Z" transform="translate(-198.641 -46.363)" fill="#207bb8"/>
  <g id="Grupo_873041" data-name="Grupo 873041">
    <g id="Grupo_873040" data-name="Grupo 873040" clip-path="url(#clip-path)">
      <path id="Trazado_199728" data-name="Trazado 199728" d="M291.259,67.657A.9.9,0,0,0,290.4,67c.837-.193,2.109-1.155,2.54.088l-1.682.571" transform="translate(-196.836 -45.048)" fill="#207bb8"/>
    </g>
  </g>
  <g id="Grupo_873043" data-name="Grupo 873043" transform="translate(93.565 21.413)">
    <g id="Grupo_873042" data-name="Grupo 873042" clip-path="url(#clip-path-3)">
      <path id="Trazado_199729" data-name="Trazado 199729" d="M292.705,67.1l-1.682.571c-.146-.4-.533-.773-.97-.634.746-.171,2.3-1.2,2.652.063" transform="translate(-290.165 -66.472)" fill="#207bb8"/>
    </g>
  </g>
  <g id="Grupo_873045" data-name="Grupo 873045" transform="translate(93.453 21.377)">
    <g id="Grupo_873044" data-name="Grupo 873044" clip-path="url(#clip-path-4)">
      <path id="Trazado_199731" data-name="Trazado 199731" d="M292.705,67.1l-1.682.571c-.146-.4-.533-.773-.97-.634.746-.171,2.3-1.2,2.652.063" transform="translate(-290.053 -66.436)" fill="#856d20"/>
    </g>
  </g>
  <g id="Grupo_873047" data-name="Grupo 873047">
    <g id="Grupo_873046" data-name="Grupo 873046" clip-path="url(#clip-path)">
      <path id="Trazado_199733" data-name="Trazado 199733" d="M280.315,35.769l1.675-.593a.794.794,0,0,0-.4.822l-1.675.592a.793.793,0,0,1,.4-.821" transform="translate(-189.725 -23.843)" fill="#207bb8"/>
    </g>
  </g>
  <g id="Grupo_873049" data-name="Grupo 873049" transform="translate(90.185 11.333)">
    <g id="Grupo_873048" data-name="Grupo 873048" clip-path="url(#clip-path-6)">
      <path id="Trazado_199734" data-name="Trazado 199734" d="M281.545,36l-1.675.592c-.228-.973,1.538-1.125,2.08-1.413a.793.793,0,0,0-.4.822" transform="translate(-279.869 -35.176)" fill="#207bb8"/>
    </g>
  </g>
  <g id="Grupo_873051" data-name="Grupo 873051" transform="translate(93.019 21.403)">
    <g id="Grupo_873050" data-name="Grupo 873050" clip-path="url(#clip-path-7)">
      <path id="Trazado_199736" data-name="Trazado 199736" d="M290.362,67.2l-1.681.572c-.182-.931,1.593-1.065,2.115-1.344a.754.754,0,0,0-.433.772" transform="translate(-288.68 -66.429)" fill="#1e4b16"/>
    </g>
  </g>
  <g id="Grupo_873053" data-name="Grupo 873053">
    <g id="Grupo_873052" data-name="Grupo 873052" clip-path="url(#clip-path)">
      <path id="Trazado_199738" data-name="Trazado 199738" d="M282.392,67.969,280.7,68.5l-.793-30.185,1.675-.592Z" transform="translate(-189.726 -25.571)" fill="#207bb8"/>
      <path id="Trazado_199739" data-name="Trazado 199739" d="M290.568,96.973l-1.693.518L288.708,69.4l1.681-.572Z" transform="translate(-195.689 -46.651)" fill="#2d7322"/>
      <path id="Trazado_199740" data-name="Trazado 199740" d="M282.694,132.445l-1.688.533a.821.821,0,0,0,.44-.854l1.688-.534a.822.822,0,0,1-.44.855" transform="translate(-190.468 -89.193)" fill="#207bb8"/>
    </g>
  </g>
  <g id="Grupo_873055" data-name="Grupo 873055" transform="translate(90.538 42.397)">
    <g id="Grupo_873054" data-name="Grupo 873054" clip-path="url(#clip-path-9)">
      <path id="Trazado_199741" data-name="Trazado 199741" d="M282.694,134.243l-1.688.533,1.691-.534h0" transform="translate(-281.006 -133.388)" fill="#207bb8"/>
      <path id="Trazado_199742" data-name="Trazado 199742" d="M282.7,132.445l-1.688.533a.822.822,0,0,0,.438-.853l1.688-.534a.823.823,0,0,1-.438.854" transform="translate(-281.011 -131.591)" fill="#207bb8"/>
    </g>
  </g>
  <g id="Grupo_873057" data-name="Grupo 873057" transform="translate(92.714 50.323)">
    <g id="Grupo_873056" data-name="Grupo 873056" clip-path="url(#clip-path-10)">
      <path id="Trazado_199744" data-name="Trazado 199744" d="M289.453,158.677l-1.693.517,1.7-.52-.011,0" transform="translate(-287.76 -157.873)" fill="#1d4815"/>
      <path id="Trazado_199745" data-name="Trazado 199745" d="M289.487,156.99l-1.693.517a.789.789,0,0,0,.462-.8l1.693-.518a.79.79,0,0,1-.462.8" transform="translate(-287.783 -156.189)" fill="#1e4b16"/>
    </g>
  </g>
  <g id="Grupo_873059" data-name="Grupo 873059" transform="translate(92.036 50.908)">
    <g id="Grupo_873058" data-name="Grupo 873058" clip-path="url(#clip-path-11)">
      <path id="Trazado_199747" data-name="Trazado 199747" d="M288.028,158.224c-.5.058-1.965.9-2.371.3l1.692-.517a.688.688,0,0,0,.678.218" transform="translate(-285.657 -158.006)" fill="#856d20"/>
    </g>
  </g>
  <g id="Grupo_873061" data-name="Grupo 873061">
    <g id="Grupo_873060" data-name="Grupo 873060" clip-path="url(#clip-path)">
      <path id="Trazado_199749" data-name="Trazado 199749" d="M279.56,150.2l-1.692.517-3.7-3.7,1.688-.526Z" transform="translate(-185.831 -99.292)" fill="#cca831"/>
      <path id="Trazado_199750" data-name="Trazado 199750" d="M264.866,120.649l1.683-.544a.6.6,0,0,0-.347.344l-1.682.543a.6.6,0,0,1,.346-.343" transform="translate(-179.294 -81.408)" fill="#207bb8"/>
    </g>
  </g>
  <g id="Grupo_873063" data-name="Grupo 873063" transform="translate(85.226 38.697)">
    <g id="Grupo_873062" data-name="Grupo 873062" clip-path="url(#clip-path-13)">
      <path id="Trazado_199751" data-name="Trazado 199751" d="M266.2,120.45l-1.682.543c.081-.451,1.713-.718,2.029-.887a.6.6,0,0,0-.346.344" transform="translate(-264.52 -120.106)" fill="#207bb8"/>
    </g>
  </g>
  <g id="Grupo_873065" data-name="Grupo 873065" transform="translate(87.644 46.981)">
    <g id="Grupo_873064" data-name="Grupo 873064" clip-path="url(#clip-path-14)">
      <path id="Trazado_199753" data-name="Trazado 199753" d="M274.4,146.033l-1.688.526a.7.7,0,0,0-.689-.218c.5-.064,1.963-.915,2.377-.308" transform="translate(-272.026 -145.816)" fill="#856d20"/>
    </g>
  </g>
  <g id="Grupo_873067" data-name="Grupo 873067" transform="translate(87.281 46.979)">
    <g id="Grupo_873066" data-name="Grupo 873066" clip-path="url(#clip-path-15)">
      <path id="Trazado_199755" data-name="Trazado 199755" d="M272.585,146.141l-1.687.526c.108-.424,1.729-.69,2.046-.851a.626.626,0,0,0-.358.324" transform="translate(-270.898 -145.815)" fill="#1e4b16"/>
      <path id="Trazado_199756" data-name="Trazado 199756" d="M273.7,145.814l-1.688.527,1.693-.528-.005,0" transform="translate(-271.652 -145.812)" fill="#1d4815"/>
    </g>
  </g>
  <g id="Grupo_873069" data-name="Grupo 873069">
    <g id="Grupo_873068" data-name="Grupo 873068" clip-path="url(#clip-path)">
      <path id="Trazado_199758" data-name="Trazado 199758" d="M261.259,124.771l-1.683.537,1.593-3.591,1.682-.543Z" transform="translate(-175.943 -82.132)" fill="#207bb8"/>
      <path id="Trazado_199759" data-name="Trazado 199759" d="M260.175,132.687l-1.682.536a.6.6,0,0,0,.349-.347l1.683-.537a.6.6,0,0,1-.349.348" transform="translate(-175.209 -89.701)" fill="#207bb8"/>
    </g>
  </g>
  <g id="Grupo_873071" data-name="Grupo 873071" transform="translate(83.284 42.638)">
    <g id="Grupo_873070" data-name="Grupo 873070" clip-path="url(#clip-path-17)">
      <path id="Trazado_199760" data-name="Trazado 199760" d="M260.175,132.687l-1.682.536a.6.6,0,0,0,.349-.347l1.683-.537a.6.6,0,0,1-.349.348" transform="translate(-258.493 -132.339)" fill="#207bb8"/>
    </g>
  </g>
  <g id="Grupo_873073" data-name="Grupo 873073">
    <g id="Grupo_873072" data-name="Grupo 873072" clip-path="url(#clip-path)">
      <path id="Trazado_199762" data-name="Trazado 199762" d="M267.2,150.207l-1.688.521,1.734-3.378,1.687-.526Z" transform="translate(-179.969 -99.518)" fill="#2e7422"/>
    </g>
  </g>
  <g id="Grupo_873075" data-name="Grupo 873075" transform="translate(85.18 50.689)">
    <g id="Grupo_873074" data-name="Grupo 873074" clip-path="url(#clip-path-19)">
      <path id="Trazado_199763" data-name="Trazado 199763" d="M266.064,158.34l-1.687.52,1.7-.523-.008,0" transform="translate(-264.377 -158.011)" fill="#1d4815"/>
      <path id="Trazado_199764" data-name="Trazado 199764" d="M266.089,157.652l-1.687.52a.63.63,0,0,0,.359-.325l1.688-.52a.631.631,0,0,1-.359.326" transform="translate(-264.394 -157.326)" fill="#1e4b16"/>
    </g>
  </g>
  <g id="Grupo_873077" data-name="Grupo 873077" transform="translate(84.264 50.482)">
    <g id="Grupo_873076" data-name="Grupo 873076" clip-path="url(#clip-path-20)">
      <path id="Trazado_199766" data-name="Trazado 199766" d="M264.138,157.219c-.676.12-2.241,1.082-2.6-.014l1.686-.521a.833.833,0,0,0,.917.535" transform="translate(-261.535 -156.684)" fill="#856d20"/>
    </g>
  </g>
  <g id="Grupo_873079" data-name="Grupo 873079">
    <g id="Grupo_873078" data-name="Grupo 873078" clip-path="url(#clip-path)">
      <path id="Trazado_199768" data-name="Trazado 199768" d="M245.425,120.5l-1.686.521-8.459-17.164,1.673-.558Z" transform="translate(-159.474 -70.016)" fill="#cfaa32"/>
      <path id="Trazado_199769" data-name="Trazado 199769" d="M225.542,72.459l1.667-.578a.84.84,0,0,0-.425.9l-1.667.577a.839.839,0,0,1,.425-.9" transform="translate(-152.584 -48.722)" fill="#207bb8"/>
    </g>
  </g>
  <g id="Grupo_873081" data-name="Grupo 873081" transform="translate(72.53 23.159)">
    <g id="Grupo_873080" data-name="Grupo 873080" clip-path="url(#clip-path-22)">
      <path id="Trazado_199770" data-name="Trazado 199770" d="M226.735,72.78l-1.667.577c-.264-1.04,1.5-1.182,2.092-1.477a.84.84,0,0,0-.425.9" transform="translate(-225.064 -71.88)" fill="#207bb8"/>
    </g>
  </g>
  <g id="Grupo_873083" data-name="Grupo 873083" transform="translate(74.86 32.752)">
    <g id="Grupo_873082" data-name="Grupo 873082" clip-path="url(#clip-path-23)">
      <path id="Trazado_199772" data-name="Trazado 199772" d="M234.965,102.183l-1.673.558a.829.829,0,0,0-.944-.537c.686-.141,2.245-1.151,2.617-.02" transform="translate(-232.348 -101.653)" fill="#856d20"/>
    </g>
  </g>
  <g id="Grupo_873085" data-name="Grupo 873085" transform="translate(74.401 32.742)">
    <g id="Grupo_873084" data-name="Grupo 873084" clip-path="url(#clip-path-24)">
      <path id="Trazado_199774" data-name="Trazado 199774" d="M232.563,102.468l-1.672.558c-.217-1,1.567-1.117,2.129-1.4a.8.8,0,0,0-.458.844" transform="translate(-230.888 -101.624)" fill="#1e4b16"/>
    </g>
  </g>
  <g id="Grupo_873087" data-name="Grupo 873087">
    <g id="Grupo_873086" data-name="Grupo 873086" clip-path="url(#clip-path)">
      <path id="Trazado_199776" data-name="Trazado 199776" d="M233.493,124.866l-1.681.518-.884-20.581,1.672-.558Z" transform="translate(-156.525 -70.658)" fill="#2d7222"/>
      <path id="Trazado_199777" data-name="Trazado 199777" d="M228.112,96.827l-1.677.534-1.312-22.112,1.667-.577Z" transform="translate(-152.591 -50.613)" fill="#207bb8"/>
      <path id="Trazado_199778" data-name="Trazado 199778" d="M229.471,144.361l-1.677.533a.856.856,0,0,0,.451-.923l1.677-.534a.857.857,0,0,1-.451.924" transform="translate(-154.401 -97.223)" fill="#207bb8"/>
    </g>
  </g>
  <g id="Grupo_873089" data-name="Grupo 873089" transform="translate(73.393 46.214)">
    <g id="Grupo_873088" data-name="Grupo 873088" clip-path="url(#clip-path-26)">
      <path id="Trazado_199779" data-name="Trazado 199779" d="M229.471,146.3l-1.677.532,1.678-.533h0" transform="translate(-227.794 -145.381)" fill="#207bb8"/>
      <path id="Trazado_199780" data-name="Trazado 199780" d="M229.474,144.361l-1.677.532a.857.857,0,0,0,.45-.922l1.677-.534a.858.858,0,0,1-.45.924" transform="translate(-227.796 -143.437)" fill="#207bb8"/>
    </g>
  </g>
  <g id="Grupo_873091" data-name="Grupo 873091" transform="translate(74.802 54.207)">
    <g id="Grupo_873090" data-name="Grupo 873090" clip-path="url(#clip-path-27)">
      <path id="Trazado_199782" data-name="Trazado 199782" d="M233.846,170.936l-1.681.516,1.691-.519-.01,0" transform="translate(-232.165 -170.067)" fill="#1d4815"/>
      <path id="Trazado_199783" data-name="Trazado 199783" d="M233.876,169.112l-1.681.516a.816.816,0,0,0,.476-.864l1.681-.518a.818.818,0,0,1-.476.866" transform="translate(-232.186 -168.246)" fill="#1e4b16"/>
    </g>
  </g>
  <g id="Grupo_873093" data-name="Grupo 873093" transform="translate(73.957 54.677)">
    <g id="Grupo_873092" data-name="Grupo 873092" clip-path="url(#clip-path-28)">
      <path id="Trazado_199785" data-name="Trazado 199785" d="M232.069,170.1c-.614.091-2.12,1.022-2.525.118l1.68-.517a.778.778,0,0,0,.845.4" transform="translate(-229.544 -169.703)" fill="#856d20"/>
    </g>
  </g>
  <g id="Grupo_873095" data-name="Grupo 873095">
    <g id="Grupo_873094" data-name="Grupo 873094" clip-path="url(#clip-path)">
      <path id="Trazado_199787" data-name="Trazado 199787" d="M199.328,107.231l1.664-.561a.772.772,0,0,0-.441.714l-1.664.559a.771.771,0,0,1,.441-.713" transform="translate(-134.807 -72.302)" fill="#207bb8"/>
    </g>
  </g>
  <g id="Grupo_873097" data-name="Grupo 873097" transform="translate(64.08 34.368)">
    <g id="Grupo_873096" data-name="Grupo 873096" clip-path="url(#clip-path-30)">
      <path id="Trazado_199788" data-name="Trazado 199788" d="M200.541,107.384l-1.664.559c-.106-.87,1.6-1.008,2.1-1.273a.772.772,0,0,0-.441.714" transform="translate(-198.877 -106.67)" fill="#207bb8"/>
    </g>
  </g>
  <g id="Grupo_873099" data-name="Grupo 873099">
    <g id="Grupo_873098" data-name="Grupo 873098" clip-path="url(#clip-path)">
      <path id="Trazado_199790" data-name="Trazado 199790" d="M215.963,146.709l-1.68.517-7.254-10.906,1.67-.541Z" transform="translate(-140.326 -92.032)" fill="#207bb8"/>
      <path id="Trazado_199791" data-name="Trazado 199791" d="M204.334,135.088c.623-.106,2.117-1.063,2.538-.143l-1.67.542a.79.79,0,0,0-.868-.4" transform="translate(-138.499 -91.199)" fill="#207bb8"/>
    </g>
  </g>
  <g id="Grupo_873101" data-name="Grupo 873101" transform="translate(65.835 43.351)">
    <g id="Grupo_873100" data-name="Grupo 873100" clip-path="url(#clip-path-32)">
      <path id="Trazado_199792" data-name="Trazado 199792" d="M206.873,134.945l-1.67.542a.79.79,0,0,0-.868-.4c.623-.106,2.117-1.063,2.538-.143" transform="translate(-204.335 -134.549)" fill="#207bb8"/>
    </g>
  </g>
  <g id="Grupo_873103" data-name="Grupo 873103" transform="translate(65.365 43.347)">
    <g id="Grupo_873102" data-name="Grupo 873102" clip-path="url(#clip-path-33)">
      <path id="Trazado_199794" data-name="Trazado 199794" d="M204.542,135.212l-1.669.542c-.058-.831,1.644-.959,2.139-1.215a.757.757,0,0,0-.47.674" transform="translate(-202.873 -134.538)" fill="#1e4b16"/>
    </g>
  </g>
  <g id="Grupo_873105" data-name="Grupo 873105">
    <g id="Grupo_873104" data-name="Grupo 873104" clip-path="url(#clip-path)">
      <path id="Trazado_199796" data-name="Trazado 199796" d="M196.61,124.32l-1.669.53,1.272-15.4,1.664-.559Z" transform="translate(-132.132 -73.804)" fill="#207bb8"/>
      <path id="Trazado_199797" data-name="Trazado 199797" d="M195.181,157.522l-1.669.529a.786.786,0,0,0,.46-.73l1.669-.53a.786.786,0,0,1-.46.731" transform="translate(-131.164 -106.274)" fill="#207bb8"/>
    </g>
  </g>
  <g id="Grupo_873107" data-name="Grupo 873107" transform="translate(62.348 50.517)">
    <g id="Grupo_873106" data-name="Grupo 873106" clip-path="url(#clip-path-35)">
      <path id="Trazado_199798" data-name="Trazado 199798" d="M195.182,159.059l-1.669.529,1.671-.529h0" transform="translate(-193.513 -158.328)" fill="#207bb8"/>
      <path id="Trazado_199799" data-name="Trazado 199799" d="M195.185,157.522l-1.669.529a.787.787,0,0,0,.459-.73l1.669-.53a.788.788,0,0,1-.459.731" transform="translate(-193.515 -156.791)" fill="#207bb8"/>
    </g>
  </g>
  <g id="Grupo_873109" data-name="Grupo 873109">
    <g id="Grupo_873108" data-name="Grupo 873108" clip-path="url(#clip-path)">
      <path id="Trazado_199801" data-name="Trazado 199801" d="M199.4,151.037l-1.673.514,1.66-14.381,1.669-.541Z" transform="translate(-134.019 -92.608)" fill="#2d7322"/>
    </g>
  </g>
  <g id="Grupo_873111" data-name="Grupo 873111" transform="translate(63.214 58.429)">
    <g id="Grupo_873110" data-name="Grupo 873110" clip-path="url(#clip-path-37)">
      <path id="Trazado_199802" data-name="Trazado 199802" d="M197.874,183.485,196.2,184l1.683-.516-.01,0" transform="translate(-196.201 -182.795)" fill="#1d4815"/>
      <path id="Trazado_199803" data-name="Trazado 199803" d="M197.906,182.036l-1.673.513a.776.776,0,0,0,.481-.686l1.673-.514a.776.776,0,0,1-.481.687" transform="translate(-196.223 -181.349)" fill="#1e4b16"/>
    </g>
  </g>
  <g id="Grupo_873113" data-name="Grupo 873113" transform="translate(62.519 58.913)">
    <g id="Grupo_873112" data-name="Grupo 873112" clip-path="url(#clip-path-38)">
      <path id="Trazado_199805" data-name="Trazado 199805" d="M196.41,183.058c-.507.064-1.945.889-2.368.307l1.672-.513a.715.715,0,0,0,.7.206" transform="translate(-194.042 -182.852)" fill="#856d20"/>
    </g>
  </g>
  <g id="Grupo_873115" data-name="Grupo 873115">
    <g id="Grupo_873114" data-name="Grupo 873114" clip-path="url(#clip-path)">
      <path id="Trazado_199807" data-name="Trazado 199807" d="M182.638,151.863l1.665-.535a.626.626,0,0,0-.364.355l-1.665.534a.625.625,0,0,1,.364-.354" transform="translate(-123.547 -102.571)" fill="#207bb8"/>
    </g>
  </g>
  <g id="Grupo_873117" data-name="Grupo 873117" transform="translate(58.727 48.757)">
    <g id="Grupo_873116" data-name="Grupo 873116" clip-path="url(#clip-path-40)">
      <path id="Trazado_199808" data-name="Trazado 199808" d="M183.939,151.683l-1.665.534c.093-.462,1.7-.716,2.029-.889a.625.625,0,0,0-.364.355" transform="translate(-182.274 -151.328)" fill="#207bb8"/>
    </g>
  </g>
  <g id="Grupo_873119" data-name="Grupo 873119">
    <g id="Grupo_873118" data-name="Grupo 873118" clip-path="url(#clip-path)">
      <path id="Trazado_199810" data-name="Trazado 199810" d="M191.622,178.972l-1.672.514L188,177.645l1.67-.518Z" transform="translate(-127.431 -120.058)" fill="#caa631"/>
    </g>
  </g>
  <g id="Grupo_873121" data-name="Grupo 873121" transform="translate(59.87 56.861)">
    <g id="Grupo_873120" data-name="Grupo 873120" clip-path="url(#clip-path-42)">
      <path id="Trazado_199811" data-name="Trazado 199811" d="M188.2,176.69l-1.67.518a.724.724,0,0,0-.7-.205c.511-.068,1.944-.9,2.373-.313" transform="translate(-185.822 -176.482)" fill="#856d20"/>
    </g>
  </g>
  <g id="Grupo_873123" data-name="Grupo 873123" transform="translate(59.487 56.862)">
    <g id="Grupo_873122" data-name="Grupo 873122" clip-path="url(#clip-path-43)">
      <path id="Trazado_199813" data-name="Trazado 199813" d="M186.3,176.828l-1.669.518c.122-.433,1.715-.688,2.046-.852a.662.662,0,0,0-.377.334" transform="translate(-184.632 -176.491)" fill="#1e4b16"/>
      <path id="Trazado_199814" data-name="Trazado 199814" d="M187.47,176.488l-1.669.518,1.676-.521-.007,0" transform="translate(-185.424 -176.486)" fill="#1d4815"/>
    </g>
  </g>
  <g id="Grupo_873125" data-name="Grupo 873125">
    <g id="Grupo_873124" data-name="Grupo 873124" clip-path="url(#clip-path)">
      <path id="Trazado_199816" data-name="Trazado 199816" d="M180.4,154.932l-1.665.53,1.14-2.5,1.665-.534Z" transform="translate(-121.148 -103.318)" fill="#207bb8"/>
      <path id="Trazado_199817" data-name="Trazado 199817" d="M179.262,160.555l-1.665.529a.625.625,0,0,0,.367-.357l1.665-.53a.628.628,0,0,1-.367.358" transform="translate(-120.377 -108.583)" fill="#207bb8"/>
    </g>
  </g>
  <g id="Grupo_873127" data-name="Grupo 873127" transform="translate(57.22 51.614)">
    <g id="Grupo_873126" data-name="Grupo 873126" clip-path="url(#clip-path-45)">
      <path id="Trazado_199818" data-name="Trazado 199818" d="M179.262,161.308l-1.665.529h0l1.665-.529h0" transform="translate(-177.597 -160.95)" fill="#207bb8"/>
      <path id="Trazado_199819" data-name="Trazado 199819" d="M179.264,160.555l-1.665.529a.626.626,0,0,0,.366-.357l1.665-.53a.627.627,0,0,1-.366.358" transform="translate(-177.598 -160.197)" fill="#207bb8"/>
    </g>
  </g>
  <g id="Grupo_873129" data-name="Grupo 873129">
    <g id="Grupo_873128" data-name="Grupo 873128" clip-path="url(#clip-path)">
      <path id="Trazado_199821" data-name="Trazado 199821" d="M182.448,179.886l-1.669.514,1.241-2.351,1.669-.518Z" transform="translate(-122.534 -120.332)" fill="#2e7422"/>
    </g>
  </g>
  <g id="Grupo_873131" data-name="Grupo 873131" transform="translate(57.858 59.554)">
    <g id="Grupo_873130" data-name="Grupo 873130" clip-path="url(#clip-path-47)">
      <path id="Trazado_199822" data-name="Trazado 199822" d="M181.245,185.892l-1.669.513,1.678-.516-.009,0" transform="translate(-179.576 -185.551)" fill="#1d4815"/>
      <path id="Trazado_199823" data-name="Trazado 199823" d="M181.273,185.178l-1.669.513a.669.669,0,0,0,.379-.337l1.669-.514a.67.67,0,0,1-.379.338" transform="translate(-179.595 -184.84)" fill="#1e4b16"/>
    </g>
  </g>
  <g id="Grupo_873133" data-name="Grupo 873133" transform="translate(57.049 59.575)">
    <g id="Grupo_873132" data-name="Grupo 873132" clip-path="url(#clip-path-48)">
      <path id="Trazado_199825" data-name="Trazado 199825" d="M179.544,185.226c-.581.083-2.044.971-2.477.195l1.668-.514a.775.775,0,0,0,.809.319" transform="translate(-177.067 -184.907)" fill="#856d20"/>
    </g>
  </g>
  <g id="Grupo_873135" data-name="Grupo 873135">
    <g id="Grupo_873134" data-name="Grupo 873134" clip-path="url(#clip-path)">
      <path id="Trazado_199827" data-name="Trazado 199827" d="M154.359,135.622l1.656-.548a.848.848,0,0,0-.463.867l-1.656.548a.849.849,0,0,1,.463-.866" transform="translate(-104.312 -91.554)" fill="#207bb8"/>
    </g>
  </g>
  <g id="Grupo_873137" data-name="Grupo 873137" transform="translate(49.584 43.52)">
    <g id="Grupo_873136" data-name="Grupo 873136" clip-path="url(#clip-path-50)">
      <path id="Trazado_199828" data-name="Trazado 199828" d="M155.519,135.941l-1.655.547c-.2-1.012,1.535-1.133,2.119-1.414a.849.849,0,0,0-.463.867" transform="translate(-153.863 -135.074)" fill="#207bb8"/>
    </g>
  </g>
  <g id="Grupo_873139" data-name="Grupo 873139">
    <g id="Grupo_873138" data-name="Grupo 873138" clip-path="url(#clip-path)">
      <path id="Trazado_199830" data-name="Trazado 199830" d="M166.815,169.973l-1.668.514-5.666-7.083,1.66-.53Z" transform="translate(-108.097 -110.397)" fill="#cca832"/>
    </g>
  </g>
  <g id="Grupo_873141" data-name="Grupo 873141" transform="translate(50.56 52.154)">
    <g id="Grupo_873140" data-name="Grupo 873140" clip-path="url(#clip-path-52)">
      <path id="Trazado_199831" data-name="Trazado 199831" d="M159.409,162.2l-1.66.53a.775.775,0,0,0-.824-.321c.588-.092,2.043-1,2.484-.21" transform="translate(-156.925 -161.874)" fill="#856d20"/>
    </g>
  </g>
  <g id="Grupo_873143" data-name="Grupo 873143" transform="translate(50.061 52.155)">
    <g id="Grupo_873142" data-name="Grupo 873142" clip-path="url(#clip-path-53)">
      <path id="Trazado_199833" data-name="Trazado 199833" d="M157.018,162.691l-1.659.53c-.146-.968,1.594-1.07,2.158-1.344a.817.817,0,0,0-.5.814" transform="translate(-155.359 -161.876)" fill="#1e4b16"/>
    </g>
  </g>
  <g id="Grupo_873145" data-name="Grupo 873145">
    <g id="Grupo_873144" data-name="Grupo 873144" clip-path="url(#clip-path)">
      <path id="Trazado_199835" data-name="Trazado 199835" d="M156.345,181.064l-1.665.5.225-16.627,1.659-.53Z" transform="translate(-104.843 -111.435)" fill="#2d7222"/>
      <path id="Trazado_199836" data-name="Trazado 199836" d="M200.155,35.1c.417-.03.7.355.839.725l17.026,46.006-14.13-36c-.147-.437-.625-.835-1.07-.59a.8.8,0,0,0-.334.727l.178,28.147c.058.66-.671,1.127-1.151.586l-3.707-3.71a.627.627,0,0,0-1.053.107l-1.734,3.384a.775.775,0,0,1-.09.138c-1.454,3.064-10.178-23.089-11.069-17.241L184.752,78a.71.71,0,0,1-1.331.469l-7.265-10.93a.693.693,0,0,0-1.269-.005c-.15.28-1.647,14.384-1.725,14.688a.686.686,0,0,1-1.187.484c-.569-.322-2.36-2.993-3.035-1.715-.277.314-1.2,2.988-1.9,2.715-.222.412-6.03-7.355-6.211-7.437a.722.722,0,0,0-1.323.493l-.218,16.66-.262-25.243c-.078-.8.8-1.234,1.257-.5l5.608,7.73c1.137,1.547,1.853-1.977,2.288-2.5,1.062-1.862,3.358,4.256,4.085,1.405,2.3-16.882-1.97-23.847,9.774-3.823.415.833,1.42.393,1.27-.479l-1.322-22.155c-.137-.734.687-1.3,1.166-.6.285.283,8.494,18.6,8.711,18.93.179.543.974.919,1.24.247l1.593-3.6a.57.57,0,0,1,1.011-.094c.388.178,3.843,4.952,4.438,4.241a.921.921,0,0,0,.309-.79l-.805-30.242c-.008-.372.113-.787.51-.846" transform="translate(-107.784 -23.788)" fill="#299ae6"/>
      <path id="Trazado_199837" data-name="Trazado 199837" d="M155.814,163.008l-1.665.5-.252-25.193,1.655-.547Z" transform="translate(-104.312 -93.378)" fill="#207bb8"/>
      <path id="Trazado_199838" data-name="Trazado 199838" d="M156.059,222.994l-1.668.483.093-6.867,1.665-.5Z" transform="translate(-104.648 -146.484)" fill="#207bb8"/>
      <path id="Trazado_199839" data-name="Trazado 199839" d="M218.8,211.153l-1.714.477-62.7,8.485,1.668-.483Z" transform="translate(-104.648 -143.121)" fill="#1e4b16"/>
      <path id="Trazado_199840" data-name="Trazado 199840" d="M203.4,66.349c4.354,6.8,15.583,39.593,18.909,46.655l-62.744,8.478c-.016-4.452.3-18.851.309-23.541-.015-.443.308-.914.782-.836a.879.879,0,0,1,.541.343l5.674,7.1a.689.689,0,0,0,1.2-.022c.481-.535,1.221-3.574,2.329-2.485.608.323,2.4,3.1,3.065,1.639,2.929-16.067-1.563-22.546,10.328-4.031a.735.735,0,0,0,.99.333c.991-.352-1.044-21.52-.4-22.038,1.513-2.977,9.392,20.58,10.915,17.856a.76.76,0,0,0,.091-.138l1.734-3.384a.587.587,0,0,1,.754-.307c.7.167,4,4.695,4.82,4.066,1.258-.872-.925-29.253.7-29.687" transform="translate(-108.155 -44.972)" fill="#185c8a"/>
      <path id="Trazado_199841" data-name="Trazado 199841" d="M221.721,219.188l-1.72.47-70.992,9.751,1.668-.476Z" transform="translate(-100.999 -148.567)" fill="#122253"/>
      <path id="Trazado_199842" data-name="Trazado 199842" d="M125.472,142.822l-1.666.48L114.7,95.3l1.639-.58Z" transform="translate(-77.742 -64.2)" fill="#003c6d"/>
      <path id="Trazado_199843" data-name="Trazado 199843" d="M147.467,258.959l-1.672.458-1.676-8.835,1.667-.476Z" transform="translate(-97.685 -169.524)" fill="#003c6d"/>
      <path id="Trazado_199844" data-name="Trazado 199844" d="M152.57,276.883a18.712,18.712,0,0,1-3.248.684,18.667,18.667,0,0,1,3.248-.684" transform="translate(-101.212 -187.674)" fill="#112251"/>
      <path id="Trazado_199845" data-name="Trazado 199845" d="M130.723,250.106c-1.024.515-7.586,1.266-8.827,1.46,1.018-.517,7.59-1.267,8.827-1.46" transform="translate(-82.622 -169.524)" fill="#122253"/>
      <path id="Trazado_199846" data-name="Trazado 199846" d="M119.784,94.393l1.582-.154,9.132,48.045,71.05-9.636.364,1.849-71.044,9.745,1.681,8.844-1.577.226-1.681-8.853-7.166.983-.374-1.97,7.169-.972Z" transform="translate(-81.191 -63.876)" fill="#185c8a"/>
      <path id="Trazado_199847" data-name="Trazado 199847" d="M122.773,249.012l-1.661.477-.372-1.966,1.659-.481Z" transform="translate(-81.838 -167.447)" fill="#1b347e"/>
    </g>
  </g>
</svg>
