<svg id="Grupo_873204" data-name="Grupo 873204" xmlns="http://www.w3.org/2000/svg" xmlns:xlink="http://www.w3.org/1999/xlink" width="113.354" height="118.66" viewBox="0 0 113.354 118.66">
  <defs>
    <clipPath id="clip-path">
      <path id="Trazado_199934" data-name="Trazado 199934" d="M184.825,266.506l-1.383,1.687c.88-.3,1.689-1.591,2.287-2.286a2.805,2.805,0,0,1-.9.6m.9-.6c.034-.036.067-.072.1-.109-.032.034-.065.071-.1.109" transform="translate(-183.442 -265.798)" fill="none"/>
    </clipPath>
    <clipPath id="clip-path-2">
      <rect id="Rectángulo_66809" data-name="Rectángulo 66809" width="113.354" height="118.66" fill="none"/>
    </clipPath>
    <clipPath id="clip-path-3">
      <path id="Trazado_199947" data-name="Trazado 199947" d="M205.953,135.788A44.961,44.961,0,0,1,207.1,164.6l4.845-1.017c2.933-9.462,2.193-19.9-1.227-29.152Z" transform="translate(-205.953 -134.435)" fill="none"/>
    </clipPath>
    <clipPath id="clip-path-5">
      <path id="Trazado_199952" data-name="Trazado 199952" d="M158.072,80.2c9.256,4.315,16.027,13.019,19.557,22.52l4.765-1.353c-3.564-9.6-10.363-18.424-19.694-22.83Z" transform="translate(-158.072 -78.539)" fill="none"/>
    </clipPath>
    <clipPath id="clip-path-6">
      <path id="Trazado_199954" data-name="Trazado 199954" d="M111.443,75.549a24.4,24.4,0,0,1,19.045.984l4.627-1.663a24.771,24.771,0,0,0-10.655-2.534c-4.253,0-8.434,1.2-13.017,3.213" transform="translate(-111.443 -72.336)" fill="none"/>
    </clipPath>
    <clipPath id="clip-path-7">
      <path id="Trazado_199956" data-name="Trazado 199956" d="M63.985,12.072a42.858,42.858,0,0,0-5.367,3.068c3.169-1.291,6.721-3.685,9.748-5.166l-4.381,2.1" transform="translate(-58.618 -9.973)" fill="none"/>
    </clipPath>
    <clipPath id="clip-path-9">
      <path id="Trazado_199962" data-name="Trazado 199962" d="M0,71.078l4.309-1.5C4.176,49.906,11.647,28.816,28.3,17.529,8.549,26.572-.009,50.393,0,71.078" transform="translate(0 -17.529)" fill="none"/>
    </clipPath>
    <clipPath id="clip-path-11">
      <path id="Trazado_199968" data-name="Trazado 199968" d="M0,146.467c.056,19.943,7.156,40.1,20.354,55.123l4.573-.72c-13.335-15.26-20.517-35.687-20.618-55.9Z" transform="translate(0 -144.971)" fill="none"/>
    </clipPath>
    <clipPath id="clip-path-13">
      <path id="Trazado_199973" data-name="Trazado 199973" d="M122.458,108.637a12.144,12.144,0,0,1,3.059-.721,15.143,15.143,0,0,1,11.014,3.692l2.117-.749a15.094,15.094,0,0,0-9.722-3.757,14.856,14.856,0,0,0-6.467,1.535" transform="translate(-122.458 -107.102)" fill="none"/>
    </clipPath>
    <clipPath id="clip-path-15">
      <path id="Trazado_199978" data-name="Trazado 199978" d="M155.9,119.338c8.554,7,11.412,22.128,3.1,30.3l2.162-.562c8.326-8.238,5.425-23.439-3.148-30.485Z" transform="translate(-155.901 -118.594)" fill="none"/>
    </clipPath>
    <clipPath id="clip-path-17">
      <path id="Trazado_199983" data-name="Trazado 199983" d="M125.253,115.337c9.012-3.083,17.1,5.789,18.69,14.158,1.606,7.113-.886,16.171-8.477,18.267l2.15-.562c7.624-2.11,10.088-11.23,8.473-18.366-1.454-7.574-7.786-14.883-15.258-14.883a12.251,12.251,0,0,0-5.578,1.387" transform="translate(-125.253 -113.95)" fill="none"/>
    </clipPath>
    <clipPath id="clip-path-19">
      <path id="Trazado_199992" data-name="Trazado 199992" d="M151.893,199.152l.049-.012Zm5.356-2.933a12.261,12.261,0,0,1-5.307,2.921l2.106-.531a12.235,12.235,0,0,0,5.365-2.946Z" transform="translate(-151.893 -195.663)" fill="none"/>
    </clipPath>
    <clipPath id="clip-path-21">
      <path id="Trazado_199996" data-name="Trazado 199996" d="M129.482,201.384a14.766,14.766,0,0,0,11.356.52,13.654,13.654,0,0,1-9.225-1.077Z" transform="translate(-129.482 -200.827)" fill="none"/>
    </clipPath>
    <clipPath id="clip-path-23">
      <path id="Trazado_200002" data-name="Trazado 200002" d="M106.136,136.911c2.937,7.975,10.768,14.3,19.433,11.015-7.794,1.961-14.85-4.738-17.341-11.664-2.969-7.542-1.62-18.583,6.738-21.888-9.908,2.5-12.147,14-8.829,22.537" transform="translate(-104.702 -114.374)" fill="none"/>
    </clipPath>
    <clipPath id="clip-path-25">
      <path id="Trazado_200007" data-name="Trazado 200007" d="M96.994,119c-2.228,10.562,2.782,22.986,12.675,27.848l2.132-.55c-14.01-6.553-19.225-31.487-4.368-39.765-5.6,1.626-9.285,6.913-10.439,12.467" transform="translate(-96.471 -106.536)" fill="none"/>
    </clipPath>
  </defs>
  <g id="Grupo_873153" data-name="Grupo 873153" transform="translate(74.926 108.564)">
    <g id="Grupo_873152" data-name="Grupo 873152" clip-path="url(#clip-path)">
      <path id="Trazado_199933" data-name="Trazado 199933" d="M185.827,265.8c-.607.657-1.456,2.082-2.385,2.4l1.383-1.688a2.656,2.656,0,0,0,1-.708" transform="translate(-183.442 -265.798)" fill="#853e3e"/>
    </g>
  </g>
  <g id="Grupo_873155" data-name="Grupo 873155" transform="translate(0)">
    <g id="Grupo_873154" data-name="Grupo 873154" clip-path="url(#clip-path-2)">
      <path id="Trazado_199935" data-name="Trazado 199935" d="M144.753,223.766l-1.29-4.084-1.383,1.687,1.29,4.084c.789,1.742-.881,7-1.076,8.793l1.383-1.687c.2-1.811,1.862-7.036,1.076-8.793" transform="translate(-84.048 -129.954)" fill="#cc6060"/>
      <path id="Trazado_199936" data-name="Trazado 199936" d="M163.357,274.714l-10.668,1.5-3.142-.319-1.383,1.687,3.142.319,10.668-1.5a14.08,14.08,0,0,0,2.1-2.317,3.276,3.276,0,0,1-.715.63" transform="translate(-87.647 -162.136)" fill="#874040"/>
      <path id="Trazado_199937" data-name="Trazado 199937" d="M145.466,218.2c1.955-.619,5.612,3.278,5.648,6.035l.328,3.154,6.507-.915c2.249-.281,4.325,2.1,2.351,4.149,1.514,1.129,2.129,2.337,1.2,3.678,1.3,1.827,1.347,3.229-.422,4.01a2.1,2.1,0,0,1-.6,3.307l-10.668,1.5-3.142-.319L143.3,232.444l1.1-.8c.2-1.827,1.862-7.024,1.076-8.793l-1.29-4.084a2.394,2.394,0,0,1,1.283-.569" transform="translate(-84.768 -129.036)" fill="#f0beb4"/>
      <path id="Trazado_199938" data-name="Trazado 199938" d="M140.075,283.732l-1.383,1.687-7.713,1.084,1.383-1.687Z" transform="translate(-77.481 -167.843)" fill="#185c8a"/>
      <path id="Trazado_199939" data-name="Trazado 199939" d="M130.947,249.562l4.546,13.957L127.78,264.6l-4.546-13.957Z" transform="translate(-72.9 -147.63)" fill="#299ae6"/>
      <path id="Trazado_199940" data-name="Trazado 199940" d="M125.777,266.172l-1.383,1.687L119.848,253.9l1.383-1.687Z" transform="translate(-70.897 -149.2)" fill="#207bb8"/>
      <path id="Trazado_199941" data-name="Trazado 199941" d="M210.719,121.234l-4.765,1.353c3.405-1.557,20.073-10.2,23.516-10.468Z" transform="translate(-121.833 -66.325)" fill="#c09e2f"/>
      <path id="Trazado_199942" data-name="Trazado 199942" d="M235.093,215.076l-4.944.874-21.391-9.126,4.846-1.017Z" transform="translate(-123.491 -121.747)" fill="#c82d3c"/>
      <path id="Trazado_199943" data-name="Trazado 199943" d="M236.37,112.119c5.662,15.046,7.386,31.784,3.965,47.535l-21.49-9.268c2.934-9.462,2.193-19.9-1.226-29.152Z" transform="translate(-128.734 -66.325)" fill="#febac0"/>
      <path id="Trazado_199944" data-name="Trazado 199944" d="M211.944,163.587,207.1,164.6a44.958,44.958,0,0,0-1.145-28.816l4.765-1.353c3.419,9.249,4.16,19.69,1.227,29.152" transform="translate(-121.833 -79.526)" fill="#c82d3c"/>
    </g>
  </g>
  <g id="Grupo_873157" data-name="Grupo 873157" transform="translate(84.12 54.909)">
    <g id="Grupo_873156" data-name="Grupo 873156" clip-path="url(#clip-path-3)">
      <path id="Trazado_199945" data-name="Trazado 199945" d="M213.6,173.23l-4.846,1.017a43.593,43.593,0,0,0,.778-22.237l4.789-1.274a44.412,44.412,0,0,1-.721,22.494" transform="translate(-207.612 -144.078)" fill="#c82d3c"/>
      <path id="Trazado_199946" data-name="Trazado 199946" d="M212.666,141.093l-4.789,1.274a47.932,47.932,0,0,0-1.923-6.578l4.765-1.353a48.978,48.978,0,0,1,1.947,6.658" transform="translate(-205.954 -134.435)" fill="#c82d3c"/>
    </g>
  </g>
  <g id="Grupo_873159" data-name="Grupo 873159" transform="translate(0)">
    <g id="Grupo_873158" data-name="Grupo 873158" clip-path="url(#clip-path-2)">
      <path id="Trazado_199948" data-name="Trazado 199948" d="M162.7,39.314l-4.626,1.663,3.5-26.792,4.574-1.955Z" transform="translate(-93.509 -7.235)" fill="#60b26a"/>
      <path id="Trazado_199949" data-name="Trazado 199949" d="M172.849,12.23c16.5,8.1,28.559,23.741,35,40.8l-18.751,9.115c-3.564-9.6-10.363-18.424-19.695-22.83Z" transform="translate(-100.209 -7.235)" fill="#a6c0d6"/>
      <path id="Trazado_199950" data-name="Trazado 199950" d="M182.394,101.369l-4.765,1.353c-3.53-9.5-10.3-18.205-19.557-22.52l4.627-1.663c9.331,4.407,16.13,13.23,19.694,22.83" transform="translate(-93.509 -46.46)" fill="#185c8a"/>
    </g>
  </g>
  <g id="Grupo_873161" data-name="Grupo 873161" transform="translate(64.564 32.079)">
    <g id="Grupo_873160" data-name="Grupo 873160" clip-path="url(#clip-path-5)">
      <path id="Trazado_199951" data-name="Trazado 199951" d="M182.394,101.369l-4.765,1.353c-3.53-9.5-10.3-18.205-19.557-22.52l4.627-1.663c9.331,4.407,16.13,13.23,19.694,22.83" transform="translate(-158.073 -78.539)" fill="#185c8a"/>
    </g>
  </g>
  <g id="Grupo_873163" data-name="Grupo 873163" transform="translate(45.518 29.545)">
    <g id="Grupo_873162" data-name="Grupo 873162" clip-path="url(#clip-path-6)">
      <path id="Trazado_199953" data-name="Trazado 199953" d="M135.115,74.87l-4.626,1.663a24.4,24.4,0,0,0-19.046-.984c8.271-3.632,15.232-4.619,23.673-.68" transform="translate(-111.442 -72.336)" fill="#858585"/>
    </g>
  </g>
  <g id="Grupo_873165" data-name="Grupo 873165" transform="translate(23.942 4.073)">
    <g id="Grupo_873164" data-name="Grupo 873164" clip-path="url(#clip-path-7)">
      <path id="Trazado_199955" data-name="Trazado 199955" d="M62.975,13.059l-4.357,2.08a73.3,73.3,0,0,1,9.748-5.166,42.749,42.749,0,0,0-5.391,3.086" transform="translate(-58.618 -9.973)" fill="#8a8a8a"/>
    </g>
  </g>
  <g id="Grupo_873167" data-name="Grupo 873167" transform="translate(0)">
    <g id="Grupo_873166" data-name="Grupo 873166" clip-path="url(#clip-path-2)">
      <path id="Trazado_199957" data-name="Trazado 199957" d="M90.67.052a47.212,47.212,0,0,1,22.956,4.943l-3.449,27.084c-8.237-4.068-18.7-3.249-25.735,2.827L69.285,7.159A41.64,41.64,0,0,1,90.67.052" transform="translate(-40.986 0)" fill="#fff"/>
      <path id="Trazado_199958" data-name="Trazado 199958" d="M78.131,45.275l-4.506,1.7L58.618,19.609l4.357-2.08Z" transform="translate(-34.676 -10.369)" fill="#cecece"/>
      <path id="Trazado_199959" data-name="Trazado 199959" d="M32.314,148.736l-4.505,1.385L0,146.466l4.309-1.5Z" transform="translate(0 -85.758)" fill="#b25454"/>
      <path id="Trazado_199960" data-name="Trazado 199960" d="M4.309,69.582,0,71.078C-.009,50.393,8.549,26.572,28.3,17.529,11.647,28.816,4.176,49.907,4.309,69.582" transform="translate(0 -10.369)" fill="#a18dd3"/>
    </g>
  </g>
  <g id="Grupo_873169" data-name="Grupo 873169" transform="translate(0 7.16)">
    <g id="Grupo_873168" data-name="Grupo 873168" transform="translate(0)" clip-path="url(#clip-path-9)">
      <path id="Trazado_199961" data-name="Trazado 199961" d="M4.309,69.582,0,71.078C-.009,50.393,8.549,26.572,28.3,17.529,11.647,28.816,4.176,49.907,4.309,69.582" transform="translate(0 -17.529)" fill="#a18dd3"/>
    </g>
  </g>
  <g id="Grupo_873171" data-name="Grupo 873171" transform="translate(0)">
    <g id="Grupo_873170" data-name="Grupo 873170" clip-path="url(#clip-path-2)">
      <path id="Trazado_199963" data-name="Trazado 199963" d="M34.537,17.529,49.693,45.275C41.639,52,38.277,63.006,38.552,73.347L10.546,69.582c-.134-19.674,7.34-40.769,23.99-52.053" transform="translate(-6.238 -10.369)" fill="#ceb7f9"/>
      <path id="Trazado_199964" data-name="Trazado 199964" d="M10.549,144.971l28.006,3.765A47.191,47.191,0,0,0,51.12,179.784L31.167,200.87c-13.335-15.26-20.516-35.686-20.618-55.9" transform="translate(-6.24 -85.758)" fill="#299ae6"/>
      <path id="Trazado_199965" data-name="Trazado 199965" d="M24.927,200.87l-4.573.72C7.156,186.571.056,166.41,0,146.467l4.309-1.5c.1,20.213,7.283,40.64,20.618,55.9" transform="translate(0 -85.758)" fill="#207bb8"/>
    </g>
  </g>
  <g id="Grupo_873173" data-name="Grupo 873173" transform="translate(0 59.213)">
    <g id="Grupo_873172" data-name="Grupo 873172" clip-path="url(#clip-path-11)">
      <path id="Trazado_199966" data-name="Trazado 199966" d="M27.385,225.449l-4.573.72a83,83,0,0,1-18.656-38.38l4.356-1.269a84.682,84.682,0,0,0,18.873,38.929" transform="translate(-2.459 -169.55)" fill="#207bb8"/>
      <path id="Trazado_199967" data-name="Trazado 199967" d="M6.054,161.941,1.7,163.21A84.73,84.73,0,0,1,0,146.466l4.309-1.5a86.488,86.488,0,0,0,1.745,16.971" transform="translate(0 -144.97)" fill="#207bb8"/>
    </g>
  </g>
  <g id="Grupo_873175" data-name="Grupo 873175" transform="translate(0)">
    <g id="Grupo_873174" data-name="Grupo 873174" clip-path="url(#clip-path-2)">
      <path id="Trazado_199969" data-name="Trazado 199969" d="M159.23,114.488l-2.116.75.412-.929,2.116-.755Z" transform="translate(-92.941 -67.174)" fill="#a18dd3"/>
      <path id="Trazado_199970" data-name="Trazado 199970" d="M158.017,117.236l-2.116.745.413-.932,2.116-.749Z" transform="translate(-92.224 -68.797)" fill="#a18dd3"/>
      <path id="Trazado_199971" data-name="Trazado 199971" d="M125.516,107.916a12.163,12.163,0,0,0-3.058.721c5.619-2.7,11.421-1.76,16.189,2.222l-2.116.749a15.141,15.141,0,0,0-11.015-3.692" transform="translate(-72.441 -63.357)" fill="#207bb8"/>
    </g>
  </g>
  <g id="Grupo_873177" data-name="Grupo 873177" transform="translate(50.017 43.745)">
    <g id="Grupo_873176" data-name="Grupo 873176" clip-path="url(#clip-path-13)">
      <path id="Trazado_199972" data-name="Trazado 199972" d="M138.647,110.859l-2.116.75c-3.858-3.223-9.275-4.827-14.073-2.971,5.619-2.7,11.421-1.76,16.189,2.221" transform="translate(-122.458 -107.102)" fill="#207bb8"/>
    </g>
  </g>
  <g id="Grupo_873179" data-name="Grupo 873179" transform="translate(0)">
    <g id="Grupo_873178" data-name="Grupo 873178" clip-path="url(#clip-path-2)">
      <path id="Trazado_199974" data-name="Trazado 199974" d="M128.852,106.5a15.365,15.365,0,0,1,11.176,3.778l-.082.187c-4.146-3.511-10.2-5.076-15.191-2.537l-.1-.223a12.184,12.184,0,0,1,4.2-1.206" transform="translate(-73.74 -62.96)" fill="#299ae6"/>
      <path id="Trazado_199975" data-name="Trazado 199975" d="M161.164,149.079l-2.161.562c8.309-8.175,5.451-23.308-3.1-30.3l2.116-.744c8.573,7.046,11.475,22.248,3.148,30.485" transform="translate(-92.223 -70.155)" fill="#a18dd3"/>
    </g>
  </g>
  <g id="Grupo_873181" data-name="Grupo 873181" transform="translate(63.677 48.439)">
    <g id="Grupo_873180" data-name="Grupo 873180" clip-path="url(#clip-path-15)">
      <path id="Trazado_199976" data-name="Trazado 199976" d="M165.659,167.66l-2.161.562c4.655-4.371,5.732-11.444,4.424-17.557l2.149-.66c1.316,6.141.256,13.254-4.412,17.656" transform="translate(-160.394 -137.175)" fill="#a18dd3"/>
      <path id="Trazado_199977" data-name="Trazado 199977" d="M165.576,131.423l-2.149.66a22.713,22.713,0,0,0-7.527-12.746l2.116-.745a22.938,22.938,0,0,1,7.56,12.83" transform="translate(-155.9 -118.593)" fill="#a18dd3"/>
    </g>
  </g>
  <g id="Grupo_873183" data-name="Grupo 873183" transform="translate(0)">
    <g id="Grupo_873182" data-name="Grupo 873182" clip-path="url(#clip-path-2)">
      <path id="Trazado_199979" data-name="Trazado 199979" d="M137.615,147.2l-2.15.563c7.591-2.1,10.083-11.154,8.477-18.267-1.594-8.369-9.678-17.24-18.69-14.158,9.7-4.913,19.029,4.087,20.836,13.5,1.615,7.136-.85,16.257-8.473,18.366" transform="translate(-74.093 -67.408)" fill="#207bb8"/>
    </g>
  </g>
  <g id="Grupo_873185" data-name="Grupo 873185" transform="translate(51.159 46.542)">
    <g id="Grupo_873184" data-name="Grupo 873184" clip-path="url(#clip-path-17)">
      <path id="Trazado_199980" data-name="Trazado 199980" d="M152.406,194.969l-2.15.563c.592-.19,2.381-.675,3.011-.829q-.425.152-.861.266" transform="translate(-140.044 -161.72)" fill="#207bb8"/>
      <path id="Trazado_199981" data-name="Trazado 199981" d="M154.514,168.385l-2.152.563c7.015-2.626,9.147-11.218,7.6-18.072l2.146-.662c1.552,6.877-.553,15.527-7.6,18.171" transform="translate(-141.289 -135.402)" fill="#207bb8"/>
      <path id="Trazado_199982" data-name="Trazado 199982" d="M146.073,128.762l-2.146.662c-1.618-8.34-9.69-17.164-18.674-14.087,9.666-4.9,18.988,4.044,20.82,13.425" transform="translate(-125.253 -113.95)" fill="#207bb8"/>
    </g>
  </g>
  <g id="Grupo_873187" data-name="Grupo 873187" transform="translate(0)">
    <g id="Grupo_873186" data-name="Grupo 873186" clip-path="url(#clip-path-2)">
      <path id="Trazado_199984" data-name="Trazado 199984" d="M161.989,113.554c9.718,8.057,13.088,25.283,3.6,34.728l-1.36-2.184c8.327-8.24,5.425-23.437-3.148-30.486l.907-2.058" transform="translate(-95.289 -67.173)" fill="#ceb7f9"/>
      <path id="Trazado_199985" data-name="Trazado 199985" d="M130.986,116.769a21.986,21.986,0,0,1,6.679,17.92c-1.338,13.357-14.728,17.043-23.044,6.656-4.886-6.088-6.568-15.313-2.8-22.343,4.015-7.623,13.283-7.942,19.167-2.234m-3.379,29.958c10.733-2.207,11.859-16.689,6.994-24.745-6.622-12.188-22.152-11.769-24.259,3.1-1.462,9.912,6.145,23.147,17.265,21.649" transform="translate(-64.931 -66.751)" fill="#299ae6"/>
      <path id="Trazado_199986" data-name="Trazado 199986" d="M168,197l-2.168.547-.676-1.084,2.165-.555Z" transform="translate(-97.699 -115.889)" fill="#ceb7f9"/>
      <path id="Trazado_199987" data-name="Trazado 199987" d="M167.231,195.763l-2.165.555-.061-.1,2.164-.555Z" transform="translate(-97.61 -115.746)" fill="#ce0000"/>
      <path id="Trazado_199988" data-name="Trazado 199988" d="M166.277,194.224l-2.164.555-.616-.987,2.161-.562Z" transform="translate(-96.718 -114.307)" fill="#ceb7f9"/>
      <path id="Trazado_199989" data-name="Trazado 199989" d="M154.048,198.61l-2.155.543a12.256,12.256,0,0,0,5.356-2.933l2.164-.555a12.235,12.235,0,0,1-5.365,2.946" transform="translate(-89.853 -115.746)" fill="#a18dd3"/>
    </g>
  </g>
  <g id="Grupo_873189" data-name="Grupo 873189" transform="translate(62.04 79.918)">
    <g id="Grupo_873188" data-name="Grupo 873188" clip-path="url(#clip-path-19)">
      <path id="Trazado_199990" data-name="Trazado 199990" d="M154.048,202.347l-2.155.543c.787-.239,2.519-.724,3.345-.909a12.088,12.088,0,0,1-1.19.366" transform="translate(-151.893 -199.4)" fill="#a18dd3"/>
      <path id="Trazado_199991" data-name="Trazado 199991" d="M156.958,198.243l-2.158.544a12.372,12.372,0,0,0,4.168-2.569l2.164-.555a12.35,12.35,0,0,1-4.175,2.58" transform="translate(-153.613 -195.663)" fill="#a18dd3"/>
    </g>
  </g>
  <g id="Grupo_873191" data-name="Grupo 873191" transform="translate(0)">
    <g id="Grupo_873190" data-name="Grupo 873190" clip-path="url(#clip-path-2)">
      <path id="Trazado_199993" data-name="Trazado 199993" d="M131.676,200.383l-2.131.558.026-.113,2.131-.558Z" transform="translate(-76.633 -118.471)" fill="#d40000"/>
      <path id="Trazado_199994" data-name="Trazado 199994" d="M140.838,201.9a14.764,14.764,0,0,1-11.356-.52l2.131-.557a13.653,13.653,0,0,0,9.224,1.077" transform="translate(-76.596 -118.8)" fill="#a18dd3"/>
    </g>
  </g>
  <g id="Grupo_873193" data-name="Grupo 873193" transform="translate(52.886 82.027)">
    <g id="Grupo_873192" data-name="Grupo 873192" clip-path="url(#clip-path-21)">
      <path id="Trazado_199995" data-name="Trazado 199995" d="M140.838,201.9a14.761,14.761,0,0,1-11.356-.52l2.131-.557a13.653,13.653,0,0,0,9.224,1.077" transform="translate(-129.482 -200.826)" fill="#a18dd3"/>
    </g>
  </g>
  <g id="Grupo_873195" data-name="Grupo 873195" transform="translate(0)">
    <g id="Grupo_873194" data-name="Grupo 873194" clip-path="url(#clip-path-2)">
      <path id="Trazado_199997" data-name="Trazado 199997" d="M134.752,197.544a12.781,12.781,0,0,0,14.49-1.881l.123.2a12.935,12.935,0,0,1-14.666,1.911c.013-.057.039-.171.052-.228" transform="translate(-79.682 -115.745)" fill="#ceb7f9"/>
      <path id="Trazado_199998" data-name="Trazado 199998" d="M131.613,200.661l-2.131.557.026-.113,2.131-.558Z" transform="translate(-76.596 -118.635)" fill="#d40000"/>
      <path id="Trazado_199999" data-name="Trazado 199999" d="M125.568,147.926c-8.664,3.287-16.5-3.04-19.433-11.015-3.317-8.538-1.079-20.035,8.83-22.538-8.358,3.306-9.707,14.347-6.739,21.889,2.492,6.926,9.547,13.624,17.341,11.664" transform="translate(-61.937 -67.658)" fill="#207bb8"/>
    </g>
  </g>
  <g id="Grupo_873197" data-name="Grupo 873197" transform="translate(42.765 46.715)">
    <g id="Grupo_873196" data-name="Grupo 873196" clip-path="url(#clip-path-23)">
      <path id="Trazado_200000" data-name="Trazado 200000" d="M126.246,174.773c-9.935,3.772-18.572-5.053-20.4-14.345l2.085-.671c1.579,8.258,9.2,17.2,18.313,15.016" transform="translate(-105.38 -141.221)" fill="#207bb8"/>
      <path id="Trazado_200001" data-name="Trazado 200001" d="M107.237,132.91l-2.085.671c-1.748-8,1.22-17.037,9.8-19.208-7.146,2.745-9.261,11.641-7.71,18.537" transform="translate(-104.684 -114.373)" fill="#207bb8"/>
    </g>
  </g>
  <g id="Grupo_873199" data-name="Grupo 873199" transform="translate(0)">
    <g id="Grupo_873198" data-name="Grupo 873198" clip-path="url(#clip-path-2)">
      <path id="Trazado_200003" data-name="Trazado 200003" d="M110.372,106.536l1.2,2.678c-12.717,7.288-8.328,28.588,3.788,34.358-.161.709-.459,2.022-.619,2.729-14.008-6.55-19.226-31.489-4.368-39.765" transform="translate(-60.007 -63.022)" fill="#299ae6"/>
      <path id="Trazado_200004" data-name="Trazado 200004" d="M111.8,146.3l-2.132.55c-9.893-4.862-14.9-17.287-12.675-27.848,1.154-5.554,4.841-10.841,10.439-12.467-14.858,8.278-9.642,33.212,4.368,39.765" transform="translate(-57.068 -63.022)" fill="#207bb8"/>
    </g>
  </g>
  <g id="Grupo_873201" data-name="Grupo 873201" transform="translate(39.403 43.514)">
    <g id="Grupo_873200" data-name="Grupo 873200" clip-path="url(#clip-path-25)">
      <path id="Trazado_200005" data-name="Trazado 200005" d="M112.619,178.65l-2.132.55c-6.711-3.226-11.133-10.14-12.633-17.308l2.077-.671c1.512,7.208,5.946,14.171,12.689,17.43" transform="translate(-97.289 -138.885)" fill="#207bb8"/>
      <path id="Trazado_200006" data-name="Trazado 200006" d="M99.08,128.871,97,129.542c-2-8.734,1.023-20.154,10.4-23.006-7.914,4.018-10.115,14.211-8.321,22.335" transform="translate(-96.438 -106.536)" fill="#207bb8"/>
    </g>
  </g>
  <g id="Grupo_873203" data-name="Grupo 873203" transform="translate(0)">
    <g id="Grupo_873202" data-name="Grupo 873202" clip-path="url(#clip-path-2)">
      <path id="Trazado_200008" data-name="Trazado 200008" d="M144.792,153.514c-.2-1.158-1.721-.973-1.457.235.2,1.158,1.722.974,1.457-.235" transform="translate(-84.773 -90.352)" fill="red"/>
      <path id="Trazado_200009" data-name="Trazado 200009" d="M139.275,120.679a3.943,3.943,0,0,0-.385,4.772c.863,1.776,3.617,2.486,4.667.522a3.286,3.286,0,0,0,.436-1.18l8.3-22.469Zm2.559,3.366c-.578,2.036-2.57-.908-.792-1.156a1.028,1.028,0,0,1,.792,1.156" transform="translate(-81.796 -60.53)" fill="#fff"/>
      <path id="Trazado_200010" data-name="Trazado 200010" d="M140.824,127.127c-2.735.457-4.443-3.127-3.47-5.393a2.867,2.867,0,0,1,.728-1.054L151.1,102.325l-.816.289c-.332.714-14.381,19.71-13.921,19.918-.666,2.619,1.764,5.878,4.562,4.569l-.1.026" transform="translate(-80.602 -60.531)" fill="#bcbec0"/>
    </g>
  </g>
</svg>
