<svg id="Grupo_873151" data-name="Grupo 873151" xmlns="http://www.w3.org/2000/svg" xmlns:xlink="http://www.w3.org/1999/xlink" width="144.667" height="107.518" viewBox="0 0 144.667 107.518">
  <defs>
    <clipPath id="clip-path">
      <rect id="Rectángulo_66807" data-name="Rectángulo 66807" width="144.667" height="107.518" fill="none"/>
    </clipPath>
  </defs>
  <g id="Grupo_873148" data-name="Grupo 873148">
    <g id="Grupo_873147" data-name="Grupo 873147" clip-path="url(#clip-path)">
      <path id="Trazado_199848" data-name="Trazado 199848" d="M6.22,23.638c-.384-1.9.107-4.231,1.914-5.238C3.956,21-1.686,21.967.479,28.259l6.054-3.346c-.079-.318-.257-.96-.312-1.275" transform="translate(0 -9.486)" fill="#00304c"/>
      <path id="Trazado_199849" data-name="Trazado 199849" d="M129.164,5.291c-.707-2.719-3.12-5.432-6.071-5.285L16.1,8.48c-3.352.273-4.091,4.242-3.07,6.947l116.34-9.343Z" transform="translate(-6.5 0)" fill="#00517f"/>
      <path id="Trazado_199850" data-name="Trazado 199850" d="M142.941,110.381c-.82.321-6.293,3.417-6.95,3.413-1.959-.125-107.218,10.965-109.006,10.091a7.219,7.219,0,0,1-4.319-4.524C22.409,118.69,1.2,35.891.989,35.189l6.054-3.347c1.551,1.9,20.8,90.77,25.009,88.365a4.771,4.771,0,0,0,2.793.669c1.367-.326,106.8-9.824,108.1-10.495" transform="translate(-0.51 -16.417)" fill="#d1d3d4"/>
      <path id="Trazado_199851" data-name="Trazado 199851" d="M129.825,12.559,151.373,94.6c.749,2.5-.194,5.85-3.093,6.129-1.953-.261-107.216,11.1-108.957,9.927C34.178,114.527,15.171,23.591,13.485,21.9Z" transform="translate(-6.952 -6.475)" fill="#fff"/>
    </g>
  </g>
  <path id="Trazado_199852" data-name="Trazado 199852" d="M239.033,24.922l.582,2.23-5.372.454-.583-2.231Z" transform="translate(-120.467 -12.849)" fill="#5c28be"/>
  <path id="Trazado_199853" data-name="Trazado 199853" d="M246.575,69.334l2.77-.239.214.818-2.77.239Z" transform="translate(-127.126 -35.623)"/>
  <path id="Trazado_199854" data-name="Trazado 199854" d="M251.184,86.986l2.77-.241.214.819-2.77.241Z" transform="translate(-129.502 -44.723)"/>
  <path id="Trazado_199855" data-name="Trazado 199855" d="M223.443,22.441,225.1,28.77l-5.158.437-1.652-6.332Z" transform="translate(-112.54 -11.57)" fill="red"/>
  <path id="Trazado_199856" data-name="Trazado 199856" d="M255.8,104.645l2.77-.244.214.819-2.77.244Z" transform="translate(-131.88 -53.826)"/>
  <path id="Trazado_199857" data-name="Trazado 199857" d="M260.406,122.3l2.77-.246.214.819-2.77.246Z" transform="translate(-134.257 -62.929)"/>
  <g id="Grupo_873150" data-name="Grupo 873150">
    <g id="Grupo_873149" data-name="Grupo 873149" clip-path="url(#clip-path)">
      <path id="Trazado_199858" data-name="Trazado 199858" d="M225.336,45.794l-2.916,6.427-.984-3.445-2.692-2.147Z" transform="translate(-112.777 -23.61)" fill="#451e8f"/>
      <path id="Trazado_199859" data-name="Trazado 199859" d="M236.345,61.371l1.587,6.079-7.6.657-1.587-6.083Z" transform="translate(-117.936 -31.641)" fill="#299ae6"/>
      <path id="Trazado_199860" data-name="Trazado 199860" d="M265.021,139.977l2.77-.248.214.82-2.77.248Z" transform="translate(-136.636 -72.04)"/>
      <path id="Trazado_199861" data-name="Trazado 199861" d="M274.515,163.043l.834,3.194-.338.031-.729-2.79h-.007l-.373.342-.153-.324.467-.426Z" transform="translate(-141.137 -84.06)" fill="#003859"/>
      <path id="Trazado_199862" data-name="Trazado 199862" d="M204.07,27.869l.582,2.234-5.389.455-.582-2.235Z" transform="translate(-102.433 -14.368)" fill="#299ae6"/>
      <path id="Trazado_199863" data-name="Trazado 199863" d="M228.676,89.034l-.035-.136,3.326-.289.214.819-3.326.29Z" transform="translate(-117.88 -45.684)"/>
      <path id="Trazado_199864" data-name="Trazado 199864" d="M270.567,163.317a22.431,22.431,0,0,1-.294,3.3l-.362.032c0-.012.4-2.927.384-2.938l-1.268.115-.094-.359Z" transform="translate(-138.654 -84.201)" fill="#003859"/>
      <path id="Trazado_199865" data-name="Trazado 199865" d="M233.466,107.395l-.214-.82,3.325-.292.214.82Z" transform="translate(-120.257 -54.796)"/>
      <path id="Trazado_199866" data-name="Trazado 199866" d="M238.077,125.07l-.214-.82,3.326-.3.214.82Z" transform="translate(-122.634 -63.907)"/>
      <path id="Trazado_199867" data-name="Trazado 199867" d="M239.621,73.919l10.625,40.695-7.6.685L232.026,74.576Z" transform="translate(-119.625 -38.11)" fill="#299ae6"/>
      <path id="Trazado_199868" data-name="Trazado 199868" d="M242.692,142.762l-.214-.821,3.326-.3.214.82Z" transform="translate(-125.014 -73.027)"/>
      <path id="Trazado_199869" data-name="Trazado 199869" d="M188.435,25.386l1.652,6.339-5.175.438-1.652-6.342Z" transform="translate(-94.483 -13.088)" fill="#299ae6"/>
      <path id="Trazado_199870" data-name="Trazado 199870" d="M217.869,78.962c.044.169,1.287,4.932,1.33,5.1l-7.61.663-1.33-5.1Z" transform="translate(-108.403 -40.71)" fill="red"/>
      <path id="Trazado_199871" data-name="Trazado 199871" d="M251.54,165.021c1.562.079,1.111,2.049.443,2.911l1.169-.1.093.359-1.659.151-.069-.264a5.441,5.441,0,0,0,.754-1.755c.127-.706-.745-1.347-1.191-.618l-.193-.295a.861.861,0,0,1,.653-.393" transform="translate(-129.349 -85.079)" fill="#003859"/>
      <path id="Trazado_199872" data-name="Trazado 199872" d="M145.937,51.093l.52.415.19.664L136.27,60.1c-1.061,1.809-3.75,6.41-4.847,8.281l-7.326.932L113.559,86.046,98.651,73.281l-8.8,7.29L73.316,62.979l.61-.824L89.734,78.983l8.728-7.217,14.708,12.6,10.224-16.228L130.7,67.2c1.283-2.189,3.468-5.92,4.737-8.085Z" transform="translate(-37.799 -26.342)" fill="#451e8f"/>
      <path id="Trazado_199873" data-name="Trazado 199873" d="M199.961,73.073l.517-.883,14.469-1.249.214.819Z" transform="translate(-103.093 -36.575)"/>
      <path id="Trazado_199874" data-name="Trazado 199874" d="M206.052,90.865l3.332-.29c.021.08.189.724.214.82l-3.332.291Z" transform="translate(-106.234 -46.698)"/>
      <path id="Trazado_199875" data-name="Trazado 199875" d="M248.751,167.387l.362-.033.088.338-.362.033.227.871-.332.031-.227-.871-1.211.11-.074-.285.628-2.147.382-.035Zm-.611-1.039c-.043-.165-.084-.333-.12-.5h-.01a13.56,13.56,0,0,1-.445,1.637l0,.008.852-.077Z" transform="translate(-127.46 -85.274)" fill="#003859"/>
      <path id="Trazado_199876" data-name="Trazado 199876" d="M210.878,109.38l-.214-.821,3.332-.293.214.821Z" transform="translate(-108.612 -55.819)"/>
      <path id="Trazado_199877" data-name="Trazado 199877" d="M215.488,127.074l-.214-.821,3.332-.3.214.821Z" transform="translate(-110.988 -64.939)"/>
      <path id="Trazado_199878" data-name="Trazado 199878" d="M220.614,89.487c2.835,10.87,6.068,23.267,8.9,34.139l-7.61.687c-2.836-10.881-6.069-23.285-8.9-34.163Z" transform="translate(-109.818 -46.137)" fill="#ff7878"/>
      <path id="Trazado_199879" data-name="Trazado 199879" d="M220.1,144.783l-.214-.822,3.332-.3.214.821Z" transform="translate(-113.368 -74.068)"/>
      <path id="Trazado_199880" data-name="Trazado 199880" d="M197.821,90.731l1.169,4.486-7.625.667L190.2,91.4Z" transform="translate(-98.059 -46.778)" fill="red"/>
      <path id="Trazado_199881" data-name="Trazado 199881" d="M229.047,167.056c1.564.079,1.112,2.051.443,2.915l1.171-.1.094.359-1.663.151-.069-.264a5.558,5.558,0,0,0,.757-1.756c.127-.707-.746-1.348-1.194-.618l-.194-.3a.865.865,0,0,1,.654-.393" transform="translate(-117.752 -86.129)" fill="#003859"/>
      <path id="Trazado_199882" data-name="Trazado 199882" d="M224.772,167.437c.772-.128,1.371,1.053.66,1.492l0,.013a.92.92,0,1,1-.637,1.66l.007-.343c1.44.768,1.385-1.4.02-1.084l-.085-.327c1.283.057.366-1.735-.41-.8l-.176-.305a.921.921,0,0,1,.618-.31" transform="translate(-115.567 -86.32)" fill="#003859"/>
      <path id="Trazado_199883" data-name="Trazado 199883" d="M188.086,110.759l-.055-.211,3.339-.293.214.821-3.339.294Z" transform="translate(-96.943 -56.844)"/>
      <path id="Trazado_199884" data-name="Trazado 199884" d="M192.855,129.081l-.214-.822,3.339-.3.214.822Z" transform="translate(-99.32 -65.974)"/>
      <path id="Trazado_199885" data-name="Trazado 199885" d="M173.723,94.085l.56-.889,7.476-.651.214.821Z" transform="translate(-89.566 -47.713)"/>
      <path id="Trazado_199886" data-name="Trazado 199886" d="M200.234,99.992l7.826,30.038-7.625.688-7.826-30.059Z" transform="translate(-99.303 -51.553)" fill="#327fbc"/>
      <path id="Trazado_199887" data-name="Trazado 199887" d="M197.471,146.809l-.214-.822,3.339-.3.214.822Z" transform="translate(-101.699 -75.112)"/>
      <path id="Trazado_199888" data-name="Trazado 199888" d="M177.96,103.412l.939,3.608.055.211-7.641.672-.055-.211-.939-3.611Z" transform="translate(-87.811 -53.316)" fill="red"/>
      <path id="Trazado_199889" data-name="Trazado 199889" d="M205.432,170.329a1.262,1.262,0,0,1,.822,2.042c-1.739.776-2.524-3.181-.589-3.236l.093.356a.99.99,0,0,0-.873,1.264h.014a.61.61,0,0,1,.534-.425m.395,1.835c.729-.171.253-1.587-.418-1.5-.813.173-.239,1.549.418,1.5" transform="translate(-105.452 -87.201)" fill="#003859"/>
      <path id="Trazado_199890" data-name="Trazado 199890" d="M200.5,169.64c1.568.078,1.113,2.054.442,2.919l1.174-.1.094.359-1.667.152-.069-.264a5.468,5.468,0,0,0,.76-1.759c.127-.709-.747-1.349-1.2-.619l-.194-.3a.868.868,0,0,1,.656-.394" transform="translate(-103.033 -87.461)" fill="#003859"/>
      <path id="Trazado_199891" data-name="Trazado 199891" d="M162.195,112.649l4.586-.4.214.822-5.36.472Z" transform="translate(-83.333 -57.87)"/>
      <path id="Trazado_199892" data-name="Trazado 199892" d="M170.177,131.093l-.214-.823,3.345-.3.214.823Z" transform="translate(-87.627 -67.01)"/>
      <path id="Trazado_199893" data-name="Trazado 199893" d="M180.012,111.295c2.035,7.818,4.615,17.731,6.651,25.552l-7.641.69-6.651-25.57Z" transform="translate(-88.869 -57.38)" fill="#299ae6"/>
      <path id="Trazado_199894" data-name="Trazado 199894" d="M174.792,148.838l-.214-.823,3.345-.3.214.823Z" transform="translate(-90.007 -76.157)"/>
      <path id="Trazado_199895" data-name="Trazado 199895" d="M150.06,114.565l-.891-.763,5.066-.445-.561.891Z" transform="translate(-76.907 -58.443)"/>
      <path id="Trazado_199896" data-name="Trazado 199896" d="M181.856,173.448l.364-.033.088.339-.364.033.227.873-.334.031-.227-.873-1.218.11-.075-.285.635-2.155.385-.034Zm-.613-1.042c-.043-.166-.083-.334-.12-.5h-.01a13.581,13.581,0,0,1-.45,1.642l0,.008.856-.077Z" transform="translate(-92.966 -88.396)" fill="#003859"/>
      <path id="Trazado_199897" data-name="Trazado 199897" d="M161.083,127.769l.628,2.414-7.656.68-.628-2.416Z" transform="translate(-79.102 -65.874)" fill="red"/>
      <path id="Trazado_199898" data-name="Trazado 199898" d="M176.143,171.845c1.571.078,1.115,2.057.442,2.922l1.176-.1.094.36-1.67.152-.069-.265a5.47,5.47,0,0,0,.763-1.761c.128-.711-.749-1.35-1.2-.619l-.194-.3a.871.871,0,0,1,.657-.394" transform="translate(-90.475 -88.598)" fill="#003859"/>
      <path id="Trazado_199899" data-name="Trazado 199899" d="M130.828,96.691l-.892-.764,20.241-1.763-.56.889Z" transform="translate(-66.99 -48.548)"/>
      <path id="Trazado_199900" data-name="Trazado 199900" d="M147.454,133.108l-.214-.824,3.352-.3.214.824Z" transform="translate(-75.912 -68.048)"/>
      <path id="Trazado_199901" data-name="Trazado 199901" d="M162.379,132.754l4.2,16.149-7.656.691-4.2-16.16Z" transform="translate(-79.77 -68.444)" fill="#ceb7f9"/>
      <path id="Trazado_199902" data-name="Trazado 199902" d="M152.069,150.871l-.214-.824,3.352-.3.214.824Z" transform="translate(-78.291 -77.205)"/>
      <path id="Trazado_199903" data-name="Trazado 199903" d="M122.672,98.191l1.5-.131.892.764-3.528.308Z" transform="translate(-62.659 -50.557)"/>
      <path id="Trazado_199904" data-name="Trazado 199904" d="M161.833,173.242l.834,3.21-.342.031-.729-2.8h-.01l-.374.343-.157-.325.476-.429Z" transform="translate(-83.035 -89.318)" fill="#003859"/>
      <path id="Trazado_199905" data-name="Trazado 199905" d="M157.563,173.629l.834,3.211-.342.031-.729-2.8h-.01l-.374.343-.157-.325.477-.429Z" transform="translate(-80.834 -89.517)" fill="#003859"/>
      <path id="Trazado_199906" data-name="Trazado 199906" d="M135.408,118.48l.812,3.128-7.671.678-.812-3.13Z" transform="translate(-65.857 -61.085)" fill="red"/>
      <path id="Trazado_199907" data-name="Trazado 199907" d="M137.084,124.938c1.613,6.208,3.818,14.7,5.436,20.928l-7.671.693-5.437-20.943Z" transform="translate(-66.721 -64.414)" fill="#ceb7f9"/>
      <path id="Trazado_199908" data-name="Trazado 199908" d="M129.3,152.909l-.214-.825,3.359-.3.214.825Z" transform="translate(-66.553 -78.255)"/>
      <path id="Trazado_199909" data-name="Trazado 199909" d="M100.225,100.348l-.732-.779,9.554-.832-1.138.941Z" transform="translate(-51.295 -50.906)"/>
      <path id="Trazado_199910" data-name="Trazado 199910" d="M141.849,177.073l.369-.033.088.34-.369.034.227.874-.335.031-.227-.875-1.218.111-.074-.286.638-2.159.382-.034Zm-.614-1.043c-.043-.166-.083-.335-.117-.5H141.1a12.763,12.763,0,0,1-.453,1.646l0,.008.86-.078Z" transform="translate(-72.339 -90.263)" fill="#003859"/>
      <path id="Trazado_199911" data-name="Trazado 199911" d="M84.434,79.34l-.732-.779,55.353-4.777-.517.883Z" transform="translate(-43.154 -38.041)"/>
      <path id="Trazado_199912" data-name="Trazado 199912" d="M92.435,100.87l2.144-.187.732.779-2.662.232Z" transform="translate(-47.657 -51.909)"/>
      <path id="Trazado_199913" data-name="Trazado 199913" d="M117.318,138.563l.517,1.993-7.683.685-.517-1.995Z" transform="translate(-56.524 -71.438)" fill="red"/>
      <path id="Trazado_199914" data-name="Trazado 199914" d="M97.047,116.629l23.819-2.093.892.763-24.5,2.155Z" transform="translate(-50.034 -59.051)"/>
      <path id="Trazado_199915" data-name="Trazado 199915" d="M125.478,176.424c.777-.13,1.381,1.058.663,1.5l0,.013a.925.925,0,1,1-.646,1.668l.011-.345c1.446.772,1.4-1.407.023-1.089l-.085-.327c1.291.053.366-1.742-.415-.8l-.173-.307a.916.916,0,0,1,.62-.311" transform="translate(-64.373 -90.954)" fill="#003859"/>
      <path id="Trazado_199916" data-name="Trazado 199916" d="M101.871,136.108l-.214-.825L116.068,134l.214.824Z" transform="translate(-52.411 -69.089)"/>
      <path id="Trazado_199917" data-name="Trazado 199917" d="M118.385,142.677l3.459,13.331-7.683.694c-.876-3.376-2.6-10.024-3.459-13.34Z" transform="translate(-57.074 -73.56)" fill="#ceb7f9"/>
      <path id="Trazado_199918" data-name="Trazado 199918" d="M106.486,154.95l-.214-.825,3.369-.3.214.825Z" transform="translate(-54.79 -79.306)"/>
      <path id="Trazado_199919" data-name="Trazado 199919" d="M82.67,95l1.261,4.865-7.7.672-1.261-4.868Z" transform="translate(-38.653 -48.982)" fill="#299ae6"/>
      <path id="Trazado_199920" data-name="Trazado 199920" d="M58.184,84.814l10.909-.941.733.779L58.4,85.639l-.337.029-.214-.825Z" transform="translate(-29.824 -43.242)"/>
      <path id="Trazado_199921" data-name="Trazado 199921" d="M108.826,177.938c1.579.077,1.118,2.064.44,2.93l1.183-.1.093.361-1.68.153-.069-.266a5.485,5.485,0,0,0,.769-1.766c.13-.715-.753-1.354-1.2-.621l-.2-.3a.877.877,0,0,1,.662-.4" transform="translate(-55.766 -91.739)" fill="#003859"/>
      <path id="Trazado_199922" data-name="Trazado 199922" d="M62.456,103.047l.337-.03,6.488-.565.214.825-6.488.565-.337.03Z" transform="translate(-32.2 -52.821)"/>
      <path id="Trazado_199923" data-name="Trazado 199923" d="M85.274,105.047l8.44,32.558-7.7.7c-2.68-10.346-5.762-22.242-8.44-32.581Z" transform="translate(-39.995 -54.159)" fill="#299ae6"/>
      <path id="Trazado_199924" data-name="Trazado 199924" d="M67.067,120.853l.337-.03,6.488-.57.214.825-6.488.571-.337.03Z" transform="translate(-34.578 -61.999)"/>
      <path id="Trazado_199925" data-name="Trazado 199925" d="M71.678,138.658l.337-.03,6.488-.575.214.826-6.488.576-.337.03Z" transform="translate(-36.955 -71.176)"/>
      <path id="Trazado_199926" data-name="Trazado 199926" d="M92.655,179.5l.834,3.22-.343.031-.729-2.813h-.01l-.377.344-.157-.326.48-.43Z" transform="translate(-47.367 -92.547)" fill="#003859"/>
      <path id="Trazado_199927" data-name="Trazado 199927" d="M41.89,81.161l1.834,4.157-.691.06-.388-.921-.726.062.092.947-.675.059-.353-4.285ZM41.849,83.9l.548-.047-.733-1.744Z" transform="translate(-21.13 -41.844)" fill="#003859"/>
      <path id="Trazado_199928" data-name="Trazado 199928" d="M76.293,156.478l.337-.03,6.488-.58.214.826-6.488.581-.337.031Z" transform="translate(-39.334 -80.361)"/>
      <path id="Trazado_199929" data-name="Trazado 199929" d="M47.189,102.855c.64.172.861.967.847,1.549-.085.86-1.367.674-1.962.777l-1.091-4.219c.693-.042,1.779-.325,2.214.413.245.42.479,1.142-.007,1.48m.143,1.2c-.093-.677-.361-.963-1.064-.8l.327,1.266c.291-.023.883,0,.737-.464m-1.517-2.551.3,1.146c.331,0,.825-.066.663-.521-.049-.583-.426-.749-.96-.625" transform="translate(-23.191 -52.007)" fill="#003859"/>
      <path id="Trazado_199930" data-name="Trazado 199930" d="M53.436,68.875l2.125,8.207-.337.029.214.825.337-.029,2.019,7.8-.337.03.214.826.337-.03,2.02,7.8-.337.03.214.826.337-.03,2.02,7.8-.337.03.214.826.337-.03L64.5,111.6l-.337.03.214.827.337-.031,2.023,7.812,93.859-8.474.215.82L66.27,121.124,52.758,68.933Z" transform="translate(-27.201 -35.51)"/>
      <path id="Trazado_199931" data-name="Trazado 199931" d="M51.253,120.383c.852-.111,1.353.648,1.446,1.4l-.664.058c-.04-.425-.372-1.2-.875-.728-.19.12.566,2.454.572,2.641.051.386.719.538.794.1a4.584,4.584,0,0,0-.17-.771l.664-.059c.75,1.411-.825,2.361-1.785,1.188-.223-.824-1.657-3.778.017-3.832" transform="translate(-26.011 -62.06)" fill="#003859"/>
      <path id="Trazado_199932" data-name="Trazado 199932" d="M56.211,140.14c1.525-.262,1.539,2.207,1.891,3.118.356,1.161-1.113,1.151-1.861,1.2l-1.092-4.223Zm1.216,3.191-.577-2.232c-.079-.415-.549-.369-.868-.323l.781,3.018c.29-.011.8-.033.664-.463" transform="translate(-28.433 -72.242)" fill="#003859"/>
    </g>
  </g>
</svg>
